%TF.GenerationSoftware,KiCad,Pcbnew,10.0.1*%
%TF.CreationDate,2026-08-15T15:28:44+09:00*%
%TF.ProjectId,CMFD-LMSE,434d4644-2d4c-44d5-9345-2e6b69636164,rev?*%
%TF.SameCoordinates,Original*%
%TF.FileFunction,Paste,Top*%
%TF.FilePolarity,Positive*%
%FSLAX46Y46*%
G04 Gerber Fmt 4.6, Leading zero omitted, Abs format (unit mm)*
G04 Created by KiCad (PCBNEW 10.0.1) date 2026-08-15 15:28:44*
%MOMM*%
%LPD*%
G01*
G04 APERTURE LIST*
G04 Aperture macros list*
%AMRoundRect*
0 Rectangle with rounded corners*
0 $1 Rounding radius*
0 $2 $3 $4 $5 $6 $7 $8 $9 X,Y pos of 4 corners*
0 Add a 4 corners polygon primitive as box body*
4,1,4,$2,$3,$4,$5,$6,$7,$8,$9,$2,$3,0*
0 Add four circle primitives for the rounded corners*
1,1,$1+$1,$2,$3*
1,1,$1+$1,$4,$5*
1,1,$1+$1,$6,$7*
1,1,$1+$1,$8,$9*
0 Add four rect primitives between the rounded corners*
20,1,$1+$1,$2,$3,$4,$5,0*
20,1,$1+$1,$4,$5,$6,$7,0*
20,1,$1+$1,$6,$7,$8,$9,0*
20,1,$1+$1,$8,$9,$2,$3,0*%
G04 Aperture macros list end*
%ADD10C,0.000000*%
%ADD11RoundRect,0.237500X0.250000X0.237500X-0.250000X0.237500X-0.250000X-0.237500X0.250000X-0.237500X0*%
%ADD12R,1.676400X0.508000*%
%ADD13RoundRect,0.237500X-0.250000X-0.237500X0.250000X-0.237500X0.250000X0.237500X-0.250000X0.237500X0*%
%ADD14RoundRect,0.250000X0.412500X0.650000X-0.412500X0.650000X-0.412500X-0.650000X0.412500X-0.650000X0*%
%ADD15R,0.660000X0.320000*%
%ADD16R,0.508000X0.965200*%
%ADD17RoundRect,0.237500X0.237500X-0.300000X0.237500X0.300000X-0.237500X0.300000X-0.237500X-0.300000X0*%
%ADD18RoundRect,0.237500X0.287500X0.237500X-0.287500X0.237500X-0.287500X-0.237500X0.287500X-0.237500X0*%
%ADD19RoundRect,0.237500X-0.300000X-0.237500X0.300000X-0.237500X0.300000X0.237500X-0.300000X0.237500X0*%
%ADD20R,0.812800X0.939800*%
%ADD21R,1.397000X0.889000*%
%ADD22R,0.863600X0.762000*%
%ADD23RoundRect,0.237500X0.300000X0.237500X-0.300000X0.237500X-0.300000X-0.237500X0.300000X-0.237500X0*%
%ADD24RoundRect,0.237500X0.380070X-0.044194X-0.044194X0.380070X-0.380070X0.044194X0.044194X-0.380070X0*%
%ADD25RoundRect,0.237500X-0.044194X-0.380070X0.380070X0.044194X0.044194X0.380070X-0.380070X-0.044194X0*%
%ADD26RoundRect,0.250000X-0.412500X-0.650000X0.412500X-0.650000X0.412500X0.650000X-0.412500X0.650000X0*%
%ADD27R,1.244600X1.066800*%
%ADD28RoundRect,0.108750X-0.401250X0.326250X-0.401250X-0.326250X0.401250X-0.326250X0.401250X0.326250X0*%
%ADD29R,2.921000X1.397000*%
%ADD30R,1.117600X0.965200*%
%ADD31RoundRect,0.237500X-0.237500X0.300000X-0.237500X-0.300000X0.237500X-0.300000X0.237500X0.300000X0*%
%ADD32RoundRect,0.250000X0.350000X0.450000X-0.350000X0.450000X-0.350000X-0.450000X0.350000X-0.450000X0*%
%ADD33R,1.350000X0.400000*%
%ADD34R,1.600000X2.100000*%
%ADD35R,1.900000X1.800000*%
%ADD36R,1.900000X1.900000*%
%ADD37RoundRect,0.237500X-0.237500X0.287500X-0.237500X-0.287500X0.237500X-0.287500X0.237500X0.287500X0*%
%ADD38R,0.812800X0.254000*%
%ADD39R,1.092200X0.304800*%
%ADD40R,0.508000X0.254000*%
%ADD41R,0.711200X0.254000*%
%ADD42R,0.254000X0.711200*%
%ADD43R,0.304800X1.092200*%
%ADD44R,0.254000X0.406400*%
%ADD45RoundRect,0.108750X0.401250X-0.326250X0.401250X0.326250X-0.401250X0.326250X-0.401250X-0.326250X0*%
%ADD46R,0.482600X1.676400*%
%ADD47RoundRect,0.237500X-0.237500X0.250000X-0.237500X-0.250000X0.237500X-0.250000X0.237500X0.250000X0*%
%ADD48RoundRect,0.075000X-0.662500X-0.075000X0.662500X-0.075000X0.662500X0.075000X-0.662500X0.075000X0*%
%ADD49RoundRect,0.075000X-0.075000X-0.662500X0.075000X-0.662500X0.075000X0.662500X-0.075000X0.662500X0*%
%ADD50RoundRect,0.250000X-0.450000X0.350000X-0.450000X-0.350000X0.450000X-0.350000X0.450000X0.350000X0*%
%ADD51R,1.498600X3.302000*%
%ADD52R,1.016000X1.016000*%
%ADD53R,0.609600X0.838200*%
%ADD54RoundRect,0.087500X-0.662500X-0.087500X0.662500X-0.087500X0.662500X0.087500X-0.662500X0.087500X0*%
G04 APERTURE END LIST*
D10*
%TO.C,U1*%
G36*
X116796000Y-106927000D02*
G01*
X116212000Y-106927000D01*
X116212000Y-104973000D01*
X116796000Y-104973000D01*
X116796000Y-106927000D01*
G37*
G36*
X118796000Y-106927000D02*
G01*
X118212000Y-106927000D01*
X118212000Y-104973000D01*
X118796000Y-104973000D01*
X118796000Y-106927000D01*
G37*
%TO.C,U5*%
G36*
X125245000Y-91888700D02*
G01*
X123844800Y-91888700D01*
X123844800Y-89675700D01*
X125245000Y-89675700D01*
X125245000Y-91888700D01*
G37*
G36*
X126845200Y-91888700D02*
G01*
X125445000Y-91888700D01*
X125445000Y-89675700D01*
X126845200Y-89675700D01*
X126845200Y-91888700D01*
G37*
%TD*%
D11*
%TO.C,R22*%
X117025000Y-119050000D03*
X115200000Y-119050000D03*
%TD*%
D12*
%TO.C,U6*%
X111118900Y-83655000D03*
X111118900Y-82385000D03*
X111118900Y-81115000D03*
X111118900Y-79845000D03*
X106496100Y-79845000D03*
X106496100Y-81115000D03*
X106496100Y-82385000D03*
X106496100Y-83655000D03*
%TD*%
D13*
%TO.C,R35*%
X175895000Y-71000000D03*
X177720000Y-71000000D03*
%TD*%
%TO.C,R33*%
X156925000Y-95650000D03*
X158750000Y-95650000D03*
%TD*%
D11*
%TO.C,R6*%
X125000000Y-119000000D03*
X123175000Y-119000000D03*
%TD*%
D14*
%TO.C,C1*%
X116162500Y-114000000D03*
X113037500Y-114000000D03*
%TD*%
D11*
%TO.C,R19*%
X152000000Y-119000000D03*
X150175000Y-119000000D03*
%TD*%
D15*
%TO.C,U4*%
X124670000Y-100800000D03*
X124670000Y-100300000D03*
X124670000Y-99800000D03*
X124670000Y-99300000D03*
X123200000Y-99300000D03*
X123200000Y-99800000D03*
X123200000Y-100300000D03*
X123200000Y-100800000D03*
%TD*%
D16*
%TO.C,XTAL2*%
X135357000Y-105250000D03*
X135357000Y-107002600D03*
X136500000Y-107002600D03*
X136500000Y-105250000D03*
%TD*%
D17*
%TO.C,C13*%
X104307500Y-79862500D03*
X104307500Y-78137500D03*
%TD*%
D11*
%TO.C,R37*%
X174200000Y-95550000D03*
X172375000Y-95550000D03*
%TD*%
D18*
%TO.C,D10*%
X132650000Y-119000000D03*
X130900000Y-119000000D03*
%TD*%
D19*
%TO.C,C45*%
X141387500Y-91500000D03*
X143112500Y-91500000D03*
%TD*%
D20*
%TO.C,R30*%
X117751400Y-102000000D03*
X119250000Y-102000000D03*
%TD*%
D11*
%TO.C,R3*%
X153500000Y-96750000D03*
X151675000Y-96750000D03*
%TD*%
D21*
%TO.C,D1*%
X108149300Y-108850000D03*
D22*
X106384000Y-108850000D03*
%TD*%
D23*
%TO.C,C38*%
X139750000Y-91500000D03*
X138025000Y-91500000D03*
%TD*%
D24*
%TO.C,C37*%
X148500000Y-96000000D03*
X147280240Y-94780240D03*
%TD*%
D19*
%TO.C,C2*%
X118487500Y-114250000D03*
X120212500Y-114250000D03*
%TD*%
D13*
%TO.C,R23*%
X106875000Y-135900000D03*
X108700000Y-135900000D03*
%TD*%
D25*
%TO.C,C34*%
X136390120Y-96859880D03*
X137609880Y-95640120D03*
%TD*%
D23*
%TO.C,C8*%
X110000000Y-95750000D03*
X108275000Y-95750000D03*
%TD*%
D26*
%TO.C,C7*%
X108437500Y-90000000D03*
X111562500Y-90000000D03*
%TD*%
D11*
%TO.C,R10*%
X171862500Y-118950000D03*
X170037500Y-118950000D03*
%TD*%
D18*
%TO.C,D6*%
X179450000Y-118950000D03*
X177700000Y-118950000D03*
%TD*%
D27*
%TO.C,X1*%
X132750000Y-96250000D03*
X132750000Y-99094800D03*
%TD*%
D28*
%TO.C,RV2*%
X104550000Y-95720000D03*
X104550000Y-97280000D03*
%TD*%
%TO.C,RV1*%
X101750000Y-95750000D03*
X101750000Y-97310000D03*
%TD*%
D11*
%TO.C,R21*%
X128887500Y-119000000D03*
X127062500Y-119000000D03*
%TD*%
%TO.C,R16*%
X187525000Y-118950000D03*
X185700000Y-118950000D03*
%TD*%
D26*
%TO.C,C9*%
X113937500Y-90000000D03*
X117062500Y-90000000D03*
%TD*%
D29*
%TO.C,D13*%
X103403500Y-108850000D03*
D30*
X100800000Y-108850000D03*
%TD*%
D31*
%TO.C,C41*%
X138250000Y-105250000D03*
X138250000Y-106975002D03*
%TD*%
D11*
%TO.C,R8*%
X148250000Y-119000000D03*
X146425000Y-119000000D03*
%TD*%
D32*
%TO.C,R31*%
X119501400Y-99750000D03*
X117501400Y-99750000D03*
%TD*%
D19*
%TO.C,C11*%
X129387500Y-87000000D03*
X131112500Y-87000000D03*
%TD*%
D18*
%TO.C,D12*%
X112750000Y-135900000D03*
X111000000Y-135900000D03*
%TD*%
D33*
%TO.C,J3*%
X98675000Y-92800000D03*
X98675000Y-93450000D03*
X98675000Y-94100000D03*
X98675000Y-94750000D03*
X98675000Y-95400000D03*
D34*
X98550000Y-91000000D03*
D35*
X96000000Y-90100000D03*
D36*
X96000000Y-92900000D03*
X96000000Y-95300000D03*
D35*
X96000000Y-98100000D03*
D34*
X98550000Y-97200000D03*
%TD*%
D23*
%TO.C,C28*%
X136500000Y-109000000D03*
X134775000Y-109000000D03*
%TD*%
D37*
%TO.C,D3*%
X180650000Y-91175000D03*
X180650000Y-92925000D03*
%TD*%
D23*
%TO.C,C35*%
X148612500Y-92250000D03*
X146887500Y-92250000D03*
%TD*%
D13*
%TO.C,R2*%
X151675000Y-95000000D03*
X153500000Y-95000000D03*
%TD*%
D11*
%TO.C,R18*%
X163925000Y-119000000D03*
X162100000Y-119000000D03*
%TD*%
D19*
%TO.C,C31*%
X176525000Y-93250000D03*
X178250000Y-93250000D03*
%TD*%
D14*
%TO.C,C6*%
X114100000Y-106750000D03*
X110975000Y-106750000D03*
%TD*%
D18*
%TO.C,D5*%
X191175000Y-118950000D03*
X189425000Y-118950000D03*
%TD*%
D31*
%TO.C,C42*%
X130500000Y-93500000D03*
X130500000Y-95225000D03*
%TD*%
%TO.C,C44*%
X145250000Y-107750000D03*
X145250000Y-109475000D03*
%TD*%
D18*
%TO.C,D11*%
X120900000Y-119050000D03*
X119150000Y-119050000D03*
%TD*%
D11*
%TO.C,R5*%
X113175000Y-119050000D03*
X111350000Y-119050000D03*
%TD*%
D13*
%TO.C,R27*%
X120837500Y-105300000D03*
X122662500Y-105300000D03*
%TD*%
D38*
%TO.C,U1*%
X118898000Y-108750000D03*
D39*
X118758000Y-108100001D03*
X118758000Y-107450000D03*
D40*
X119050000Y-106800000D03*
X119050000Y-105949999D03*
X119050000Y-105100000D03*
X115958000Y-105100000D03*
X115958000Y-105949999D03*
X115958000Y-106800000D03*
D39*
X116250000Y-107450000D03*
X116250000Y-108100001D03*
D41*
X116060000Y-108750000D03*
D42*
X116254000Y-109644000D03*
X116753999Y-109644000D03*
D43*
X117254000Y-109454000D03*
X117754000Y-109454000D03*
D42*
X118254001Y-109644000D03*
X118754000Y-109644000D03*
D44*
X117754000Y-107775000D03*
X117254000Y-107775000D03*
%TD*%
D11*
%TO.C,R11*%
X183750000Y-118950000D03*
X181925000Y-118950000D03*
%TD*%
D23*
%TO.C,C40*%
X131000000Y-104250000D03*
X129274998Y-104250000D03*
%TD*%
D45*
%TO.C,RV3*%
X101750000Y-101060000D03*
X101750000Y-99500000D03*
%TD*%
D46*
%TO.C,U5*%
X127250000Y-88064400D03*
X125980000Y-88064400D03*
X124710000Y-88064400D03*
X123440000Y-88064400D03*
X123440000Y-93500000D03*
X124710000Y-93500000D03*
X125980000Y-93500000D03*
X127250000Y-93500000D03*
%TD*%
D11*
%TO.C,R40*%
X168892500Y-95550000D03*
X167067500Y-95550000D03*
%TD*%
D37*
%TO.C,D4*%
X180700000Y-103150000D03*
X180700000Y-104900000D03*
%TD*%
D47*
%TO.C,R14*%
X180650000Y-95012500D03*
X180650000Y-96837500D03*
%TD*%
D48*
%TO.C,U7*%
X138750000Y-97750000D03*
X138750000Y-98250000D03*
X138750000Y-98750000D03*
X138750000Y-99250000D03*
X138750000Y-99750000D03*
X138750000Y-100250000D03*
X138750000Y-100750000D03*
X138750000Y-101250000D03*
X138750000Y-101750000D03*
X138750000Y-102250000D03*
X138750000Y-102750000D03*
X138750000Y-103250000D03*
D49*
X140162500Y-104662500D03*
X140662500Y-104662500D03*
X141162500Y-104662500D03*
X141662500Y-104662500D03*
X142162500Y-104662500D03*
X142662500Y-104662500D03*
X143162500Y-104662500D03*
X143662500Y-104662500D03*
X144162500Y-104662500D03*
X144662500Y-104662500D03*
X145162500Y-104662500D03*
X145662500Y-104662500D03*
D48*
X147075000Y-103250000D03*
X147075000Y-102750000D03*
X147075000Y-102250000D03*
X147075000Y-101750000D03*
X147075000Y-101250000D03*
X147075000Y-100750000D03*
X147075000Y-100250000D03*
X147075000Y-99750000D03*
X147075000Y-99250000D03*
X147075000Y-98750000D03*
X147075000Y-98250000D03*
X147075000Y-97750000D03*
D49*
X145662500Y-96337500D03*
X145162500Y-96337500D03*
X144662500Y-96337500D03*
X144162500Y-96337500D03*
X143662500Y-96337500D03*
X143162500Y-96337500D03*
X142662500Y-96337500D03*
X142162500Y-96337500D03*
X141662500Y-96337500D03*
X141162500Y-96337500D03*
X140662500Y-96337500D03*
X140162500Y-96337500D03*
%TD*%
D31*
%TO.C,C43*%
X130500000Y-97137500D03*
X130500000Y-98862500D03*
%TD*%
D47*
%TO.C,R13*%
X180700000Y-99200000D03*
X180700000Y-101025000D03*
%TD*%
D50*
%TO.C,R39*%
X104307500Y-83750000D03*
X104307500Y-85750000D03*
%TD*%
D11*
%TO.C,R20*%
X140450000Y-119000000D03*
X138625000Y-119000000D03*
%TD*%
D20*
%TO.C,R32*%
X126750700Y-99000000D03*
X128249300Y-99000000D03*
%TD*%
D31*
%TO.C,C30*%
X133750000Y-105275000D03*
X133750000Y-107000000D03*
%TD*%
D11*
%TO.C,R17*%
X175725000Y-118950000D03*
X173900000Y-118950000D03*
%TD*%
D19*
%TO.C,C12*%
X114750000Y-81250000D03*
X116475000Y-81250000D03*
%TD*%
D51*
%TO.C,F2*%
X101750000Y-92000000D03*
X105941000Y-92000000D03*
%TD*%
D11*
%TO.C,R9*%
X160262500Y-119000000D03*
X158437500Y-119000000D03*
%TD*%
%TO.C,R7*%
X136850000Y-119000000D03*
X135025000Y-119000000D03*
%TD*%
D52*
%TO.C,L1*%
X102682000Y-105650000D03*
X100650000Y-105650000D03*
%TD*%
D47*
%TO.C,R12*%
X180700000Y-110662500D03*
X180700000Y-112487500D03*
%TD*%
D13*
%TO.C,R29*%
X108337500Y-93750000D03*
X110162500Y-93750000D03*
%TD*%
D53*
%TO.C,R26*%
X121897700Y-109650000D03*
X120602300Y-109650000D03*
%TD*%
D23*
%TO.C,C5*%
X113362500Y-103500000D03*
X111637500Y-103500000D03*
%TD*%
D13*
%TO.C,R38*%
X101732500Y-75750000D03*
X103557500Y-75750000D03*
%TD*%
D53*
%TO.C,R28*%
X120952300Y-107300000D03*
X122247700Y-107300000D03*
%TD*%
%TO.C,R1*%
X120352300Y-111500000D03*
X121647700Y-111500000D03*
%TD*%
D18*
%TO.C,D8*%
X155750000Y-119000000D03*
X154000000Y-119000000D03*
%TD*%
D13*
%TO.C,R34*%
X161975000Y-95650000D03*
X163800000Y-95650000D03*
%TD*%
D18*
%TO.C,D9*%
X144012500Y-119000000D03*
X142262500Y-119000000D03*
%TD*%
D47*
%TO.C,R15*%
X180700000Y-106825000D03*
X180700000Y-108650000D03*
%TD*%
D25*
%TO.C,C36*%
X147890120Y-106859880D03*
X149109880Y-105640120D03*
%TD*%
D54*
%TO.C,U2*%
X107000000Y-98250000D03*
X107000000Y-98750000D03*
X107000000Y-99250000D03*
X107000000Y-99750000D03*
X107000000Y-100250000D03*
X111200000Y-100250000D03*
X111200000Y-99750000D03*
X111200000Y-99250000D03*
X111200000Y-98750000D03*
X111200000Y-98250000D03*
%TD*%
D23*
%TO.C,C10*%
X121362500Y-95500000D03*
X119637500Y-95500000D03*
%TD*%
D18*
%TO.C,D7*%
X167600000Y-119000000D03*
X165850000Y-119000000D03*
%TD*%
M02*
