%TF.GenerationSoftware,KiCad,Pcbnew,10.0.1*%
%TF.CreationDate,2026-08-13T17:57:59+09:00*%
%TF.ProjectId,CMFD-LMSE,434d4644-2d4c-44d5-9345-2e6b69636164,rev?*%
%TF.SameCoordinates,Original*%
%TF.FileFunction,Soldermask,Top*%
%TF.FilePolarity,Negative*%
%FSLAX46Y46*%
G04 Gerber Fmt 4.6, Leading zero omitted, Abs format (unit mm)*
G04 Created by KiCad (PCBNEW 10.0.1) date 2026-08-13 17:57:59*
%MOMM*%
%LPD*%
G01*
G04 APERTURE LIST*
G04 Aperture macros list*
%AMRoundRect*
0 Rectangle with rounded corners*
0 $1 Rounding radius*
0 $2 $3 $4 $5 $6 $7 $8 $9 X,Y pos of 4 corners*
0 Add a 4 corners polygon primitive as box body*
4,1,4,$2,$3,$4,$5,$6,$7,$8,$9,$2,$3,0*
0 Add four circle primitives for the rounded corners*
1,1,$1+$1,$2,$3*
1,1,$1+$1,$4,$5*
1,1,$1+$1,$6,$7*
1,1,$1+$1,$8,$9*
0 Add four rect primitives between the rounded corners*
20,1,$1+$1,$2,$3,$4,$5,0*
20,1,$1+$1,$4,$5,$6,$7,0*
20,1,$1+$1,$6,$7,$8,$9,0*
20,1,$1+$1,$8,$9,$2,$3,0*%
G04 Aperture macros list end*
%ADD10C,0.010000*%
%ADD11C,0.000000*%
%ADD12RoundRect,0.237500X0.250000X0.237500X-0.250000X0.237500X-0.250000X-0.237500X0.250000X-0.237500X0*%
%ADD13R,1.676400X0.508000*%
%ADD14C,1.700000*%
%ADD15R,1.500000X1.500000*%
%ADD16RoundRect,0.237500X-0.250000X-0.237500X0.250000X-0.237500X0.250000X0.237500X-0.250000X0.237500X0*%
%ADD17C,1.701800*%
%ADD18RoundRect,0.250000X0.412500X0.650000X-0.412500X0.650000X-0.412500X-0.650000X0.412500X-0.650000X0*%
%ADD19R,1.700000X1.700000*%
%ADD20R,0.508000X0.965200*%
%ADD21RoundRect,0.237500X0.237500X-0.300000X0.237500X0.300000X-0.237500X0.300000X-0.237500X-0.300000X0*%
%ADD22RoundRect,0.237500X0.287500X0.237500X-0.287500X0.237500X-0.287500X-0.237500X0.287500X-0.237500X0*%
%ADD23RoundRect,0.237500X-0.300000X-0.237500X0.300000X-0.237500X0.300000X0.237500X-0.300000X0.237500X0*%
%ADD24R,0.812800X0.939800*%
%ADD25R,1.000000X1.500000*%
%ADD26R,1.397000X0.889000*%
%ADD27R,0.863600X0.762000*%
%ADD28RoundRect,0.237500X0.300000X0.237500X-0.300000X0.237500X-0.300000X-0.237500X0.300000X-0.237500X0*%
%ADD29RoundRect,0.237500X0.380070X-0.044194X-0.044194X0.380070X-0.380070X0.044194X0.044194X-0.380070X0*%
%ADD30RoundRect,0.237500X-0.044194X-0.380070X0.380070X0.044194X0.044194X0.380070X-0.380070X-0.044194X0*%
%ADD31C,1.651000*%
%ADD32RoundRect,0.250000X-0.412500X-0.650000X0.412500X-0.650000X0.412500X0.650000X-0.412500X0.650000X0*%
%ADD33R,1.800000X1.800000*%
%ADD34C,1.800000*%
%ADD35R,1.244600X1.066800*%
%ADD36RoundRect,0.134250X-0.477750X0.402750X-0.477750X-0.402750X0.477750X-0.402750X0.477750X0.402750X0*%
%ADD37R,2.921000X1.397000*%
%ADD38R,1.117600X0.965200*%
%ADD39RoundRect,0.237500X-0.237500X0.300000X-0.237500X-0.300000X0.237500X-0.300000X0.237500X0.300000X0*%
%ADD40RoundRect,0.250000X0.350000X0.450000X-0.350000X0.450000X-0.350000X-0.450000X0.350000X-0.450000X0*%
%ADD41R,1.500000X1.000000*%
%ADD42RoundRect,0.102000X-0.675000X0.200000X-0.675000X-0.200000X0.675000X-0.200000X0.675000X0.200000X0*%
%ADD43RoundRect,0.102000X-0.800000X1.050000X-0.800000X-1.050000X0.800000X-1.050000X0.800000X1.050000X0*%
%ADD44RoundRect,0.102000X-0.950000X0.900000X-0.950000X-0.900000X0.950000X-0.900000X0.950000X0.900000X0*%
%ADD45RoundRect,0.102000X-0.950000X0.950000X-0.950000X-0.950000X0.950000X-0.950000X0.950000X0.950000X0*%
%ADD46RoundRect,0.237500X-0.237500X0.287500X-0.237500X-0.287500X0.237500X-0.287500X0.237500X0.287500X0*%
%ADD47C,5.500000*%
%ADD48R,0.812800X0.254000*%
%ADD49R,1.092200X0.304800*%
%ADD50R,0.508000X0.254000*%
%ADD51R,0.711200X0.254000*%
%ADD52R,0.254000X0.711200*%
%ADD53R,0.304800X1.092200*%
%ADD54R,0.254000X0.406400*%
%ADD55RoundRect,0.134250X0.477750X-0.402750X0.477750X0.402750X-0.477750X0.402750X-0.477750X-0.402750X0*%
%ADD56R,0.482600X1.676400*%
%ADD57R,3.200400X2.413000*%
%ADD58RoundRect,0.237500X-0.237500X0.250000X-0.237500X-0.250000X0.237500X-0.250000X0.237500X0.250000X0*%
%ADD59RoundRect,0.075000X-0.662500X-0.075000X0.662500X-0.075000X0.662500X0.075000X-0.662500X0.075000X0*%
%ADD60RoundRect,0.075000X-0.075000X-0.662500X0.075000X-0.662500X0.075000X0.662500X-0.075000X0.662500X0*%
%ADD61RoundRect,0.250000X-0.450000X0.350000X-0.450000X-0.350000X0.450000X-0.350000X0.450000X0.350000X0*%
%ADD62RoundRect,0.250001X1.149999X-1.149999X1.149999X1.149999X-1.149999X1.149999X-1.149999X-1.149999X0*%
%ADD63C,2.800000*%
%ADD64C,1.400000*%
%ADD65RoundRect,0.770000X0.980000X-0.980000X0.980000X0.980000X-0.980000X0.980000X-0.980000X-0.980000X0*%
%ADD66C,3.500000*%
%ADD67R,1.498600X3.302000*%
%ADD68R,1.016000X1.016000*%
%ADD69R,0.609600X0.838200*%
%ADD70RoundRect,0.250000X-0.550000X-0.550000X0.550000X-0.550000X0.550000X0.550000X-0.550000X0.550000X0*%
%ADD71C,1.600000*%
%ADD72RoundRect,0.087500X-0.662500X-0.087500X0.662500X-0.087500X0.662500X0.087500X-0.662500X0.087500X0*%
G04 APERTURE END LIST*
D10*
%TO.C,U4*%
X123580000Y-99510000D02*
X122820000Y-99510000D01*
X122820000Y-99090000D01*
X123580000Y-99090000D01*
X123580000Y-99510000D01*
G36*
X123580000Y-99510000D02*
G01*
X122820000Y-99510000D01*
X122820000Y-99090000D01*
X123580000Y-99090000D01*
X123580000Y-99510000D01*
G37*
X123580000Y-100010000D02*
X122820000Y-100010000D01*
X122820000Y-99590000D01*
X123580000Y-99590000D01*
X123580000Y-100010000D01*
G36*
X123580000Y-100010000D02*
G01*
X122820000Y-100010000D01*
X122820000Y-99590000D01*
X123580000Y-99590000D01*
X123580000Y-100010000D01*
G37*
X123580000Y-100510000D02*
X122820000Y-100510000D01*
X122820000Y-100090000D01*
X123580000Y-100090000D01*
X123580000Y-100510000D01*
G36*
X123580000Y-100510000D02*
G01*
X122820000Y-100510000D01*
X122820000Y-100090000D01*
X123580000Y-100090000D01*
X123580000Y-100510000D01*
G37*
X123580000Y-101010000D02*
X122820000Y-101010000D01*
X122820000Y-100590000D01*
X123580000Y-100590000D01*
X123580000Y-101010000D01*
G36*
X123580000Y-101010000D02*
G01*
X122820000Y-101010000D01*
X122820000Y-100590000D01*
X123580000Y-100590000D01*
X123580000Y-101010000D01*
G37*
X125050000Y-99510000D02*
X124290000Y-99510000D01*
X124290000Y-99090000D01*
X125050000Y-99090000D01*
X125050000Y-99510000D01*
G36*
X125050000Y-99510000D02*
G01*
X124290000Y-99510000D01*
X124290000Y-99090000D01*
X125050000Y-99090000D01*
X125050000Y-99510000D01*
G37*
X125050000Y-100010000D02*
X124290000Y-100010000D01*
X124290000Y-99590000D01*
X125050000Y-99590000D01*
X125050000Y-100010000D01*
G36*
X125050000Y-100010000D02*
G01*
X124290000Y-100010000D01*
X124290000Y-99590000D01*
X125050000Y-99590000D01*
X125050000Y-100010000D01*
G37*
X125050000Y-100510000D02*
X124290000Y-100510000D01*
X124290000Y-100090000D01*
X125050000Y-100090000D01*
X125050000Y-100510000D01*
G36*
X125050000Y-100510000D02*
G01*
X124290000Y-100510000D01*
X124290000Y-100090000D01*
X125050000Y-100090000D01*
X125050000Y-100510000D01*
G37*
X125050000Y-101010000D02*
X124290000Y-101010000D01*
X124290000Y-100590000D01*
X125050000Y-100590000D01*
X125050000Y-101010000D01*
G36*
X125050000Y-101010000D02*
G01*
X124290000Y-101010000D01*
X124290000Y-100590000D01*
X125050000Y-100590000D01*
X125050000Y-101010000D01*
G37*
%TO.C,JP2*%
G36*
X126800000Y-128150000D02*
G01*
X128400000Y-128150000D01*
X128400000Y-129650000D01*
X126800000Y-129650000D01*
X126800000Y-128150000D01*
G37*
%TO.C,JP3*%
G36*
X138600000Y-128250000D02*
G01*
X140200000Y-128250000D01*
X140200000Y-129750000D01*
X138600000Y-129750000D01*
X138600000Y-128250000D01*
G37*
%TO.C,JP8*%
G36*
X190350000Y-107000000D02*
G01*
X191850000Y-107000000D01*
X191850000Y-108600000D01*
X190350000Y-108600000D01*
X190350000Y-107000000D01*
G37*
D11*
%TO.C,U1*%
G36*
X116796000Y-106927000D02*
G01*
X116212000Y-106927000D01*
X116212000Y-104973000D01*
X116796000Y-104973000D01*
X116796000Y-106927000D01*
G37*
G36*
X118796000Y-106927000D02*
G01*
X118212000Y-106927000D01*
X118212000Y-104973000D01*
X118796000Y-104973000D01*
X118796000Y-106927000D01*
G37*
%TO.C,JP9*%
G36*
X190200000Y-95300000D02*
G01*
X191700000Y-95300000D01*
X191700000Y-96900000D01*
X190200000Y-96900000D01*
X190200000Y-95300000D01*
G37*
%TO.C,JP5*%
G36*
X162150000Y-128200000D02*
G01*
X163750000Y-128200000D01*
X163750000Y-129700000D01*
X162150000Y-129700000D01*
X162150000Y-128200000D01*
G37*
%TO.C,JP7*%
G36*
X185850000Y-128000000D02*
G01*
X187450000Y-128000000D01*
X187450000Y-129500000D01*
X185850000Y-129500000D01*
X185850000Y-128000000D01*
G37*
%TO.C,JP4*%
G36*
X150350000Y-128100000D02*
G01*
X151950000Y-128100000D01*
X151950000Y-129600000D01*
X150350000Y-129600000D01*
X150350000Y-128100000D01*
G37*
%TO.C,JP6*%
G36*
X173950000Y-128300000D02*
G01*
X175550000Y-128300000D01*
X175550000Y-129800000D01*
X173950000Y-129800000D01*
X173950000Y-128300000D01*
G37*
%TO.C,JP1*%
G36*
X114900000Y-128250000D02*
G01*
X116500000Y-128250000D01*
X116500000Y-129750000D01*
X114900000Y-129750000D01*
X114900000Y-128250000D01*
G37*
%TD*%
D12*
%TO.C,R22*%
X117025000Y-119050000D03*
X115200000Y-119050000D03*
%TD*%
D13*
%TO.C,U6*%
X111118900Y-83655000D03*
X111118900Y-82385000D03*
X111118900Y-81115000D03*
X111118900Y-79845000D03*
X106496100Y-79845000D03*
X106496100Y-81115000D03*
X106496100Y-82385000D03*
X106496100Y-83655000D03*
%TD*%
D14*
%TO.C,NRST*%
X191140000Y-85080000D03*
X191140000Y-74920000D03*
X186060000Y-85080000D03*
X186060000Y-74920000D03*
%TD*%
D15*
%TO.C,TP2*%
X104000000Y-88500000D03*
%TD*%
D14*
%TO.C,SW3*%
X172800000Y-65750000D03*
X181200000Y-65750000D03*
X177000000Y-65750000D03*
X175000000Y-65750000D03*
X179000000Y-65750000D03*
%TD*%
D16*
%TO.C,R35*%
X175895000Y-71000000D03*
X177720000Y-71000000D03*
%TD*%
%TO.C,R33*%
X156925000Y-95650000D03*
X158750000Y-95650000D03*
%TD*%
D17*
%TO.C,GPIO3*%
X136900000Y-124050000D03*
X139400000Y-124050000D03*
X141900000Y-124050000D03*
%TD*%
D12*
%TO.C,R6*%
X125000000Y-119000000D03*
X123175000Y-119000000D03*
%TD*%
D18*
%TO.C,C1*%
X116162500Y-114000000D03*
X113037500Y-114000000D03*
%TD*%
D12*
%TO.C,R19*%
X152000000Y-119000000D03*
X150175000Y-119000000D03*
%TD*%
D19*
%TO.C,J4*%
X109557500Y-75750000D03*
D14*
X107017500Y-75750000D03*
%TD*%
D20*
%TO.C,XTAL2*%
X135357000Y-105250000D03*
X135357000Y-107002600D03*
X136500000Y-107002600D03*
X136500000Y-105250000D03*
%TD*%
D21*
%TO.C,C13*%
X104307500Y-79862500D03*
X104307500Y-78137500D03*
%TD*%
D12*
%TO.C,R37*%
X174200000Y-95550000D03*
X172375000Y-95550000D03*
%TD*%
D22*
%TO.C,D10*%
X132650000Y-119000000D03*
X130900000Y-119000000D03*
%TD*%
D23*
%TO.C,C45*%
X141387500Y-91500000D03*
X143112500Y-91500000D03*
%TD*%
D24*
%TO.C,R30*%
X117751400Y-102000000D03*
X119250000Y-102000000D03*
%TD*%
D12*
%TO.C,R3*%
X153500000Y-96750000D03*
X151675000Y-96750000D03*
%TD*%
D25*
%TO.C,JP2*%
X126300000Y-128900000D03*
X127600000Y-128900000D03*
X128900000Y-128900000D03*
%TD*%
%TO.C,JP3*%
X138100000Y-129000000D03*
X139400000Y-129000000D03*
X140700000Y-129000000D03*
%TD*%
D26*
%TO.C,D1*%
X108149300Y-108850000D03*
D27*
X106384000Y-108850000D03*
%TD*%
D28*
%TO.C,C38*%
X139750000Y-91500000D03*
X138025000Y-91500000D03*
%TD*%
D29*
%TO.C,C37*%
X148500000Y-96000000D03*
X147280240Y-94780240D03*
%TD*%
D23*
%TO.C,C2*%
X118487500Y-114250000D03*
X120212500Y-114250000D03*
%TD*%
D16*
%TO.C,R23*%
X106875000Y-135900000D03*
X108700000Y-135900000D03*
%TD*%
D30*
%TO.C,C34*%
X136390120Y-96859880D03*
X137609880Y-95640120D03*
%TD*%
D31*
%TO.C,J9*%
X136806800Y-68582100D03*
X134306800Y-68582100D03*
%TD*%
D28*
%TO.C,C8*%
X110000000Y-95750000D03*
X108275000Y-95750000D03*
%TD*%
D31*
%TO.C,J7*%
X118500000Y-68582100D03*
X116000000Y-68582100D03*
%TD*%
D32*
%TO.C,C7*%
X108437500Y-90000000D03*
X111562500Y-90000000D03*
%TD*%
D33*
%TO.C,D14*%
X156210000Y-100250000D03*
D34*
X158750000Y-100250000D03*
%TD*%
D12*
%TO.C,R10*%
X171862500Y-118950000D03*
X170037500Y-118950000D03*
%TD*%
D22*
%TO.C,D6*%
X179450000Y-118950000D03*
X177700000Y-118950000D03*
%TD*%
D35*
%TO.C,X1*%
X132750000Y-96250000D03*
X132750000Y-99094800D03*
%TD*%
D36*
%TO.C,RV2*%
X104550000Y-95720000D03*
X104550000Y-97280000D03*
%TD*%
%TO.C,RV1*%
X101750000Y-95750000D03*
X101750000Y-97310000D03*
%TD*%
D12*
%TO.C,R21*%
X128887500Y-119000000D03*
X127062500Y-119000000D03*
%TD*%
%TO.C,R16*%
X187525000Y-118950000D03*
X185700000Y-118950000D03*
%TD*%
D32*
%TO.C,C9*%
X113937500Y-90000000D03*
X117062500Y-90000000D03*
%TD*%
D37*
%TO.C,D13*%
X103403500Y-108850000D03*
D38*
X100800000Y-108850000D03*
%TD*%
D39*
%TO.C,C41*%
X138250000Y-105250000D03*
X138250000Y-106975002D03*
%TD*%
D12*
%TO.C,R8*%
X148250000Y-119000000D03*
X146425000Y-119000000D03*
%TD*%
D40*
%TO.C,R31*%
X119501400Y-99750000D03*
X117501400Y-99750000D03*
%TD*%
D31*
%TO.C,J10*%
X145960200Y-68582100D03*
X143460200Y-68582100D03*
%TD*%
D41*
%TO.C,JP8*%
X191100000Y-109100000D03*
X191100000Y-107800000D03*
X191100000Y-106500000D03*
%TD*%
D23*
%TO.C,C11*%
X129387500Y-87000000D03*
X131112500Y-87000000D03*
%TD*%
D22*
%TO.C,D12*%
X112750000Y-135900000D03*
X111000000Y-135900000D03*
%TD*%
D42*
%TO.C,J3*%
X98675000Y-92800000D03*
X98675000Y-93450000D03*
X98675000Y-94100000D03*
X98675000Y-94750000D03*
X98675000Y-95400000D03*
D43*
X98550000Y-91000000D03*
D44*
X96000000Y-90100000D03*
D45*
X96000000Y-92900000D03*
X96000000Y-95300000D03*
D44*
X96000000Y-98100000D03*
D43*
X98550000Y-97200000D03*
%TD*%
D28*
%TO.C,C28*%
X136500000Y-109000000D03*
X134775000Y-109000000D03*
%TD*%
D15*
%TO.C,TP4*%
X117250000Y-95250000D03*
%TD*%
D33*
%TO.C,D18*%
X169250000Y-100250000D03*
D34*
X166710000Y-100250000D03*
%TD*%
D46*
%TO.C,D3*%
X180650000Y-91175000D03*
X180650000Y-92925000D03*
%TD*%
D28*
%TO.C,C35*%
X148612500Y-92250000D03*
X146887500Y-92250000D03*
%TD*%
D16*
%TO.C,R2*%
X151675000Y-95000000D03*
X153500000Y-95000000D03*
%TD*%
D12*
%TO.C,R18*%
X163925000Y-119000000D03*
X162100000Y-119000000D03*
%TD*%
D17*
%TO.C,GPIO6*%
X172250000Y-124050000D03*
X174750000Y-124050000D03*
X177250000Y-124050000D03*
%TD*%
%TO.C,GPIO1*%
X113200000Y-124050000D03*
X115700000Y-124050000D03*
X118200000Y-124050000D03*
%TD*%
D47*
%TO.C,H4*%
X189500000Y-136500000D03*
%TD*%
D23*
%TO.C,C31*%
X176525000Y-93250000D03*
X178250000Y-93250000D03*
%TD*%
D18*
%TO.C,C6*%
X114100000Y-106750000D03*
X110975000Y-106750000D03*
%TD*%
D22*
%TO.C,D5*%
X191175000Y-118950000D03*
X189425000Y-118950000D03*
%TD*%
D39*
%TO.C,C42*%
X130500000Y-93500000D03*
X130500000Y-95225000D03*
%TD*%
%TO.C,C44*%
X145250000Y-107750000D03*
X145250000Y-109475000D03*
%TD*%
D22*
%TO.C,D11*%
X120900000Y-119050000D03*
X119150000Y-119050000D03*
%TD*%
D17*
%TO.C,GPIO7*%
X184150000Y-123900000D03*
X186650000Y-123900000D03*
X189150000Y-123900000D03*
%TD*%
%TO.C,GPIO5*%
X160450000Y-124050000D03*
X162950000Y-124050000D03*
X165450000Y-124050000D03*
%TD*%
D12*
%TO.C,R5*%
X113175000Y-119050000D03*
X111350000Y-119050000D03*
%TD*%
D47*
%TO.C,H1*%
X96500000Y-66500000D03*
%TD*%
D16*
%TO.C,R27*%
X120837500Y-105300000D03*
X122662500Y-105300000D03*
%TD*%
D48*
%TO.C,U1*%
X118898000Y-108750000D03*
D49*
X118758000Y-108100001D03*
X118758000Y-107450000D03*
D50*
X119050000Y-106800000D03*
X119050000Y-105949999D03*
X119050000Y-105100000D03*
X115958000Y-105100000D03*
X115958000Y-105949999D03*
X115958000Y-106800000D03*
D49*
X116250000Y-107450000D03*
X116250000Y-108100001D03*
D51*
X116060000Y-108750000D03*
D52*
X116254000Y-109644000D03*
X116753999Y-109644000D03*
D53*
X117254000Y-109454000D03*
X117754000Y-109454000D03*
D52*
X118254001Y-109644000D03*
X118754000Y-109644000D03*
D54*
X117754000Y-107775000D03*
X117254000Y-107775000D03*
%TD*%
D12*
%TO.C,R11*%
X183750000Y-118950000D03*
X181925000Y-118950000D03*
%TD*%
D47*
%TO.C,H3*%
X96650000Y-136250000D03*
%TD*%
D31*
%TO.C,J12*%
X164267000Y-68582100D03*
X161767000Y-68582100D03*
%TD*%
D28*
%TO.C,C40*%
X131000000Y-104250000D03*
X129274998Y-104250000D03*
%TD*%
D31*
%TO.C,J11*%
X155113600Y-68582100D03*
X152613600Y-68582100D03*
%TD*%
D55*
%TO.C,RV3*%
X101750000Y-101060000D03*
X101750000Y-99500000D03*
%TD*%
D56*
%TO.C,U5*%
X127250000Y-88064400D03*
X125980000Y-88064400D03*
X124710000Y-88064400D03*
X123440000Y-88064400D03*
X123440000Y-93500000D03*
X124710000Y-93500000D03*
X125980000Y-93500000D03*
X127250000Y-93500000D03*
D57*
X125345000Y-90782200D03*
%TD*%
D12*
%TO.C,R40*%
X168892500Y-95550000D03*
X167067500Y-95550000D03*
%TD*%
D19*
%TO.C,J5*%
X146830000Y-87500000D03*
D14*
X144290000Y-87500000D03*
X141750000Y-87500000D03*
X139210000Y-87500000D03*
X136670000Y-87500000D03*
%TD*%
D46*
%TO.C,D4*%
X180700000Y-103150000D03*
X180700000Y-104900000D03*
%TD*%
D58*
%TO.C,R14*%
X180650000Y-95012500D03*
X180650000Y-96837500D03*
%TD*%
D17*
%TO.C,GPIO9*%
X186000000Y-98583400D03*
X186000000Y-96083400D03*
X186000000Y-93583400D03*
%TD*%
%TO.C,GPIO4*%
X148650000Y-124050000D03*
X151150000Y-124050000D03*
X153650000Y-124050000D03*
%TD*%
D59*
%TO.C,U7*%
X138750000Y-97750000D03*
X138750000Y-98250000D03*
X138750000Y-98750000D03*
X138750000Y-99250000D03*
X138750000Y-99750000D03*
X138750000Y-100250000D03*
X138750000Y-100750000D03*
X138750000Y-101250000D03*
X138750000Y-101750000D03*
X138750000Y-102250000D03*
X138750000Y-102750000D03*
X138750000Y-103250000D03*
D60*
X140162500Y-104662500D03*
X140662500Y-104662500D03*
X141162500Y-104662500D03*
X141662500Y-104662500D03*
X142162500Y-104662500D03*
X142662500Y-104662500D03*
X143162500Y-104662500D03*
X143662500Y-104662500D03*
X144162500Y-104662500D03*
X144662500Y-104662500D03*
X145162500Y-104662500D03*
X145662500Y-104662500D03*
D59*
X147075000Y-103250000D03*
X147075000Y-102750000D03*
X147075000Y-102250000D03*
X147075000Y-101750000D03*
X147075000Y-101250000D03*
X147075000Y-100750000D03*
X147075000Y-100250000D03*
X147075000Y-99750000D03*
X147075000Y-99250000D03*
X147075000Y-98750000D03*
X147075000Y-98250000D03*
X147075000Y-97750000D03*
D60*
X145662500Y-96337500D03*
X145162500Y-96337500D03*
X144662500Y-96337500D03*
X144162500Y-96337500D03*
X143662500Y-96337500D03*
X143162500Y-96337500D03*
X142662500Y-96337500D03*
X142162500Y-96337500D03*
X141662500Y-96337500D03*
X141162500Y-96337500D03*
X140662500Y-96337500D03*
X140162500Y-96337500D03*
%TD*%
D39*
%TO.C,C43*%
X130500000Y-97137500D03*
X130500000Y-98862500D03*
%TD*%
D33*
%TO.C,D17*%
X161460000Y-100250000D03*
D34*
X164000000Y-100250000D03*
%TD*%
D58*
%TO.C,R13*%
X180700000Y-99200000D03*
X180700000Y-101025000D03*
%TD*%
D17*
%TO.C,GPIO2*%
X125100000Y-124100000D03*
X127600000Y-124100000D03*
X130100000Y-124100000D03*
%TD*%
D61*
%TO.C,R39*%
X104307500Y-83750000D03*
X104307500Y-85750000D03*
%TD*%
D12*
%TO.C,R20*%
X140450000Y-119000000D03*
X138625000Y-119000000D03*
%TD*%
D33*
%TO.C,D16*%
X174500000Y-100250000D03*
D34*
X171960000Y-100250000D03*
%TD*%
D41*
%TO.C,JP9*%
X190950000Y-97400000D03*
X190950000Y-96100000D03*
X190950000Y-94800000D03*
%TD*%
D24*
%TO.C,R32*%
X126750700Y-99000000D03*
X128249300Y-99000000D03*
%TD*%
D39*
%TO.C,C30*%
X133750000Y-105275000D03*
X133750000Y-107000000D03*
%TD*%
D25*
%TO.C,JP5*%
X161650000Y-128950000D03*
X162950000Y-128950000D03*
X164250000Y-128950000D03*
%TD*%
D62*
%TO.C,J6*%
X98000000Y-84750000D03*
D63*
X98000000Y-79750000D03*
%TD*%
D12*
%TO.C,R17*%
X175725000Y-118950000D03*
X173900000Y-118950000D03*
%TD*%
D17*
%TO.C,GPIO8*%
X185900000Y-110300000D03*
X185900000Y-107800000D03*
X185900000Y-105300000D03*
%TD*%
D23*
%TO.C,C12*%
X114750000Y-81250000D03*
X116475000Y-81250000D03*
%TD*%
D47*
%TO.C,H2*%
X189500000Y-66500000D03*
%TD*%
D31*
%TO.C,J1*%
X109346600Y-68582100D03*
X106846600Y-68582100D03*
%TD*%
D64*
%TO.C,IN1*%
X97000000Y-125700000D03*
X97000000Y-114700000D03*
D65*
X107000000Y-117700000D03*
D66*
X107000000Y-122700000D03*
%TD*%
D67*
%TO.C,F2*%
X101750000Y-92000000D03*
X105941000Y-92000000D03*
%TD*%
D12*
%TO.C,R9*%
X160262500Y-119000000D03*
X158437500Y-119000000D03*
%TD*%
%TO.C,R7*%
X136850000Y-119000000D03*
X135025000Y-119000000D03*
%TD*%
D68*
%TO.C,L1*%
X102682000Y-105650000D03*
X100650000Y-105650000D03*
%TD*%
D58*
%TO.C,R12*%
X180700000Y-110662500D03*
X180700000Y-112487500D03*
%TD*%
D16*
%TO.C,R29*%
X108337500Y-93750000D03*
X110162500Y-93750000D03*
%TD*%
D25*
%TO.C,JP7*%
X185350000Y-128750000D03*
X186650000Y-128750000D03*
X187950000Y-128750000D03*
%TD*%
%TO.C,JP4*%
X149850000Y-128850000D03*
X151150000Y-128850000D03*
X152450000Y-128850000D03*
%TD*%
D69*
%TO.C,R26*%
X121897700Y-109650000D03*
X120602300Y-109650000D03*
%TD*%
D15*
%TO.C,TP3*%
X104250000Y-100250000D03*
%TD*%
D28*
%TO.C,C5*%
X113362500Y-103500000D03*
X111637500Y-103500000D03*
%TD*%
D31*
%TO.C,J8*%
X127653400Y-68582100D03*
X125153400Y-68582100D03*
%TD*%
D16*
%TO.C,R38*%
X101732500Y-75750000D03*
X103557500Y-75750000D03*
%TD*%
D15*
%TO.C,TP1*%
X95750000Y-101900000D03*
%TD*%
D69*
%TO.C,R28*%
X120952300Y-107300000D03*
X122247700Y-107300000D03*
%TD*%
%TO.C,R1*%
X120352300Y-111500000D03*
X121647700Y-111500000D03*
%TD*%
D31*
%TO.C,J2*%
X96250000Y-106650000D03*
X96250000Y-109150000D03*
%TD*%
D22*
%TO.C,D8*%
X155750000Y-119000000D03*
X154000000Y-119000000D03*
%TD*%
D16*
%TO.C,R34*%
X161975000Y-95650000D03*
X163800000Y-95650000D03*
%TD*%
D70*
%TO.C,C4*%
X128000000Y-110250000D03*
D71*
X130500000Y-110250000D03*
%TD*%
D22*
%TO.C,D9*%
X144012500Y-119000000D03*
X142262500Y-119000000D03*
%TD*%
D25*
%TO.C,JP6*%
X173450000Y-129050000D03*
X174750000Y-129050000D03*
X176050000Y-129050000D03*
%TD*%
%TO.C,JP1*%
X114400000Y-129000000D03*
X115700000Y-129000000D03*
X117000000Y-129000000D03*
%TD*%
D58*
%TO.C,R15*%
X180700000Y-106825000D03*
X180700000Y-108650000D03*
%TD*%
D30*
%TO.C,C36*%
X147890120Y-106859880D03*
X149109880Y-105640120D03*
%TD*%
D72*
%TO.C,U2*%
X107000000Y-98250000D03*
X107000000Y-98750000D03*
X107000000Y-99250000D03*
X107000000Y-99750000D03*
X107000000Y-100250000D03*
X111200000Y-100250000D03*
X111200000Y-99750000D03*
X111200000Y-99250000D03*
X111200000Y-98750000D03*
X111200000Y-98250000D03*
%TD*%
D28*
%TO.C,C10*%
X121362500Y-95500000D03*
X119637500Y-95500000D03*
%TD*%
D22*
%TO.C,D7*%
X167600000Y-119000000D03*
X165850000Y-119000000D03*
%TD*%
M02*
