%TF.GenerationSoftware,KiCad,Pcbnew,10.0.1*%
%TF.CreationDate,2026-08-13T17:57:59+09:00*%
%TF.ProjectId,CMFD-LMSE,434d4644-2d4c-44d5-9345-2e6b69636164,rev?*%
%TF.SameCoordinates,Original*%
%TF.FileFunction,Copper,L1,Top*%
%TF.FilePolarity,Positive*%
%FSLAX46Y46*%
G04 Gerber Fmt 4.6, Leading zero omitted, Abs format (unit mm)*
G04 Created by KiCad (PCBNEW 10.0.1) date 2026-08-13 17:57:59*
%MOMM*%
%LPD*%
G01*
G04 APERTURE LIST*
G04 Aperture macros list*
%AMRoundRect*
0 Rectangle with rounded corners*
0 $1 Rounding radius*
0 $2 $3 $4 $5 $6 $7 $8 $9 X,Y pos of 4 corners*
0 Add a 4 corners polygon primitive as box body*
4,1,4,$2,$3,$4,$5,$6,$7,$8,$9,$2,$3,0*
0 Add four circle primitives for the rounded corners*
1,1,$1+$1,$2,$3*
1,1,$1+$1,$4,$5*
1,1,$1+$1,$6,$7*
1,1,$1+$1,$8,$9*
0 Add four rect primitives between the rounded corners*
20,1,$1+$1,$2,$3,$4,$5,0*
20,1,$1+$1,$4,$5,$6,$7,0*
20,1,$1+$1,$6,$7,$8,$9,0*
20,1,$1+$1,$8,$9,$2,$3,0*%
G04 Aperture macros list end*
%TA.AperFunction,EtchedComponent*%
%ADD10C,0.000000*%
%TD*%
%TA.AperFunction,SMDPad,CuDef*%
%ADD11RoundRect,0.237500X0.250000X0.237500X-0.250000X0.237500X-0.250000X-0.237500X0.250000X-0.237500X0*%
%TD*%
%TA.AperFunction,SMDPad,CuDef*%
%ADD12R,1.676400X0.508000*%
%TD*%
%TA.AperFunction,ComponentPad*%
%ADD13C,1.700000*%
%TD*%
%TA.AperFunction,SMDPad,CuDef*%
%ADD14R,1.500000X1.500000*%
%TD*%
%TA.AperFunction,SMDPad,CuDef*%
%ADD15RoundRect,0.237500X-0.250000X-0.237500X0.250000X-0.237500X0.250000X0.237500X-0.250000X0.237500X0*%
%TD*%
%TA.AperFunction,ComponentPad*%
%ADD16C,1.701800*%
%TD*%
%TA.AperFunction,SMDPad,CuDef*%
%ADD17RoundRect,0.250000X0.412500X0.650000X-0.412500X0.650000X-0.412500X-0.650000X0.412500X-0.650000X0*%
%TD*%
%TA.AperFunction,ComponentPad*%
%ADD18R,1.700000X1.700000*%
%TD*%
%TA.AperFunction,SMDPad,CuDef*%
%ADD19R,0.660000X0.320000*%
%TD*%
%TA.AperFunction,SMDPad,CuDef*%
%ADD20R,0.508000X0.965200*%
%TD*%
%TA.AperFunction,SMDPad,CuDef*%
%ADD21RoundRect,0.237500X0.237500X-0.300000X0.237500X0.300000X-0.237500X0.300000X-0.237500X-0.300000X0*%
%TD*%
%TA.AperFunction,SMDPad,CuDef*%
%ADD22RoundRect,0.237500X0.287500X0.237500X-0.287500X0.237500X-0.287500X-0.237500X0.287500X-0.237500X0*%
%TD*%
%TA.AperFunction,SMDPad,CuDef*%
%ADD23RoundRect,0.237500X-0.300000X-0.237500X0.300000X-0.237500X0.300000X0.237500X-0.300000X0.237500X0*%
%TD*%
%TA.AperFunction,SMDPad,CuDef*%
%ADD24R,0.812800X0.939800*%
%TD*%
%TA.AperFunction,SMDPad,CuDef*%
%ADD25R,1.000000X1.500000*%
%TD*%
%TA.AperFunction,SMDPad,CuDef*%
%ADD26R,1.397000X0.889000*%
%TD*%
%TA.AperFunction,SMDPad,CuDef*%
%ADD27R,0.863600X0.762000*%
%TD*%
%TA.AperFunction,SMDPad,CuDef*%
%ADD28RoundRect,0.237500X0.300000X0.237500X-0.300000X0.237500X-0.300000X-0.237500X0.300000X-0.237500X0*%
%TD*%
%TA.AperFunction,SMDPad,CuDef*%
%ADD29RoundRect,0.237500X0.380070X-0.044194X-0.044194X0.380070X-0.380070X0.044194X0.044194X-0.380070X0*%
%TD*%
%TA.AperFunction,SMDPad,CuDef*%
%ADD30RoundRect,0.237500X-0.044194X-0.380070X0.380070X0.044194X0.044194X0.380070X-0.380070X-0.044194X0*%
%TD*%
%TA.AperFunction,ComponentPad*%
%ADD31C,1.651000*%
%TD*%
%TA.AperFunction,SMDPad,CuDef*%
%ADD32RoundRect,0.250000X-0.412500X-0.650000X0.412500X-0.650000X0.412500X0.650000X-0.412500X0.650000X0*%
%TD*%
%TA.AperFunction,ComponentPad*%
%ADD33R,1.800000X1.800000*%
%TD*%
%TA.AperFunction,ComponentPad*%
%ADD34C,1.800000*%
%TD*%
%TA.AperFunction,SMDPad,CuDef*%
%ADD35R,1.244600X1.066800*%
%TD*%
%TA.AperFunction,SMDPad,CuDef*%
%ADD36RoundRect,0.108750X-0.401250X0.326250X-0.401250X-0.326250X0.401250X-0.326250X0.401250X0.326250X0*%
%TD*%
%TA.AperFunction,SMDPad,CuDef*%
%ADD37R,2.921000X1.397000*%
%TD*%
%TA.AperFunction,SMDPad,CuDef*%
%ADD38R,1.117600X0.965200*%
%TD*%
%TA.AperFunction,SMDPad,CuDef*%
%ADD39RoundRect,0.237500X-0.237500X0.300000X-0.237500X-0.300000X0.237500X-0.300000X0.237500X0.300000X0*%
%TD*%
%TA.AperFunction,SMDPad,CuDef*%
%ADD40RoundRect,0.250000X0.350000X0.450000X-0.350000X0.450000X-0.350000X-0.450000X0.350000X-0.450000X0*%
%TD*%
%TA.AperFunction,SMDPad,CuDef*%
%ADD41R,1.500000X1.000000*%
%TD*%
%TA.AperFunction,SMDPad,CuDef*%
%ADD42R,1.350000X0.400000*%
%TD*%
%TA.AperFunction,SMDPad,CuDef*%
%ADD43R,1.600000X2.100000*%
%TD*%
%TA.AperFunction,SMDPad,CuDef*%
%ADD44R,1.900000X1.800000*%
%TD*%
%TA.AperFunction,SMDPad,CuDef*%
%ADD45R,1.900000X1.900000*%
%TD*%
%TA.AperFunction,SMDPad,CuDef*%
%ADD46RoundRect,0.237500X-0.237500X0.287500X-0.237500X-0.287500X0.237500X-0.287500X0.237500X0.287500X0*%
%TD*%
%TA.AperFunction,ComponentPad*%
%ADD47C,5.500000*%
%TD*%
%TA.AperFunction,SMDPad,CuDef*%
%ADD48R,0.812800X0.254000*%
%TD*%
%TA.AperFunction,SMDPad,CuDef*%
%ADD49R,1.092200X0.304800*%
%TD*%
%TA.AperFunction,SMDPad,CuDef*%
%ADD50R,0.508000X0.254000*%
%TD*%
%TA.AperFunction,SMDPad,CuDef*%
%ADD51R,0.711200X0.254000*%
%TD*%
%TA.AperFunction,SMDPad,CuDef*%
%ADD52R,0.254000X0.711200*%
%TD*%
%TA.AperFunction,SMDPad,CuDef*%
%ADD53R,0.304800X1.092200*%
%TD*%
%TA.AperFunction,SMDPad,CuDef*%
%ADD54R,0.254000X0.406400*%
%TD*%
%TA.AperFunction,SMDPad,CuDef*%
%ADD55RoundRect,0.108750X0.401250X-0.326250X0.401250X0.326250X-0.401250X0.326250X-0.401250X-0.326250X0*%
%TD*%
%TA.AperFunction,SMDPad,CuDef*%
%ADD56R,0.482600X1.676400*%
%TD*%
%TA.AperFunction,SMDPad,CuDef*%
%ADD57R,3.200400X2.413000*%
%TD*%
%TA.AperFunction,SMDPad,CuDef*%
%ADD58RoundRect,0.237500X-0.237500X0.250000X-0.237500X-0.250000X0.237500X-0.250000X0.237500X0.250000X0*%
%TD*%
%TA.AperFunction,SMDPad,CuDef*%
%ADD59RoundRect,0.075000X-0.662500X-0.075000X0.662500X-0.075000X0.662500X0.075000X-0.662500X0.075000X0*%
%TD*%
%TA.AperFunction,SMDPad,CuDef*%
%ADD60RoundRect,0.075000X-0.075000X-0.662500X0.075000X-0.662500X0.075000X0.662500X-0.075000X0.662500X0*%
%TD*%
%TA.AperFunction,SMDPad,CuDef*%
%ADD61RoundRect,0.250000X-0.450000X0.350000X-0.450000X-0.350000X0.450000X-0.350000X0.450000X0.350000X0*%
%TD*%
%TA.AperFunction,ComponentPad*%
%ADD62RoundRect,0.250001X1.149999X-1.149999X1.149999X1.149999X-1.149999X1.149999X-1.149999X-1.149999X0*%
%TD*%
%TA.AperFunction,ComponentPad*%
%ADD63C,2.800000*%
%TD*%
%TA.AperFunction,ComponentPad*%
%ADD64C,1.400000*%
%TD*%
%TA.AperFunction,ComponentPad*%
%ADD65RoundRect,0.770000X0.980000X-0.980000X0.980000X0.980000X-0.980000X0.980000X-0.980000X-0.980000X0*%
%TD*%
%TA.AperFunction,ComponentPad*%
%ADD66C,3.500000*%
%TD*%
%TA.AperFunction,SMDPad,CuDef*%
%ADD67R,1.498600X3.302000*%
%TD*%
%TA.AperFunction,SMDPad,CuDef*%
%ADD68R,1.016000X1.016000*%
%TD*%
%TA.AperFunction,SMDPad,CuDef*%
%ADD69R,0.609600X0.838200*%
%TD*%
%TA.AperFunction,ComponentPad*%
%ADD70RoundRect,0.250000X-0.550000X-0.550000X0.550000X-0.550000X0.550000X0.550000X-0.550000X0.550000X0*%
%TD*%
%TA.AperFunction,ComponentPad*%
%ADD71C,1.600000*%
%TD*%
%TA.AperFunction,SMDPad,CuDef*%
%ADD72RoundRect,0.087500X-0.662500X-0.087500X0.662500X-0.087500X0.662500X0.087500X-0.662500X0.087500X0*%
%TD*%
%TA.AperFunction,ViaPad*%
%ADD73C,0.600000*%
%TD*%
%TA.AperFunction,Conductor*%
%ADD74C,0.300000*%
%TD*%
%TA.AperFunction,Conductor*%
%ADD75C,0.400000*%
%TD*%
%TA.AperFunction,Conductor*%
%ADD76C,0.200000*%
%TD*%
%TA.AperFunction,Conductor*%
%ADD77C,1.000000*%
%TD*%
%TA.AperFunction,Conductor*%
%ADD78C,1.500000*%
%TD*%
%TA.AperFunction,Conductor*%
%ADD79C,0.700000*%
%TD*%
%TA.AperFunction,Conductor*%
%ADD80C,0.600000*%
%TD*%
%TA.AperFunction,Conductor*%
%ADD81C,0.320000*%
%TD*%
%TA.AperFunction,Conductor*%
%ADD82C,2.200000*%
%TD*%
%TA.AperFunction,Conductor*%
%ADD83C,0.250000*%
%TD*%
%TA.AperFunction,Conductor*%
%ADD84C,1.100000*%
%TD*%
%TA.AperFunction,Conductor*%
%ADD85C,1.300000*%
%TD*%
%TA.AperFunction,Conductor*%
%ADD86C,1.400000*%
%TD*%
%TA.AperFunction,Conductor*%
%ADD87C,0.500000*%
%TD*%
%TA.AperFunction,Conductor*%
%ADD88C,2.000000*%
%TD*%
G04 APERTURE END LIST*
D10*
%TA.AperFunction,EtchedComponent*%
%TO.C,U1*%
G36*
X116796000Y-106927000D02*
G01*
X116212000Y-106927000D01*
X116212000Y-104973000D01*
X116796000Y-104973000D01*
X116796000Y-106927000D01*
G37*
%TD.AperFunction*%
%TA.AperFunction,EtchedComponent*%
G36*
X118796000Y-106927000D02*
G01*
X118212000Y-106927000D01*
X118212000Y-104973000D01*
X118796000Y-104973000D01*
X118796000Y-106927000D01*
G37*
%TD.AperFunction*%
%TD*%
D11*
%TO.P,R22,1*%
%TO.N,Net-(D11-A)*%
X117025000Y-119050000D03*
%TO.P,R22,2*%
%TO.N,Net-(GPIO1-Pin_1)*%
X115200000Y-119050000D03*
%TD*%
D12*
%TO.P,U6,1,TXD_1*%
%TO.N,/CAN/CAN_TX*%
X111118900Y-83655000D03*
%TO.P,U6,2,VSS_2*%
%TO.N,GND*%
X111118900Y-82385000D03*
%TO.P,U6,3,VDD_3*%
%TO.N,SYS_5V*%
X111118900Y-81115000D03*
%TO.P,U6,4,RXD_4*%
%TO.N,/CAN/CAN_RX*%
X111118900Y-79845000D03*
%TO.P,U6,5,VIO_5*%
%TO.N,+3.3V*%
X106496100Y-79845000D03*
%TO.P,U6,6,CANL_6*%
%TO.N,Net-(J6-Pin_2)*%
X106496100Y-81115000D03*
%TO.P,U6,7,CANH_7*%
%TO.N,Net-(J4-Pin_1)*%
X106496100Y-82385000D03*
%TO.P,U6,8,STBY_8*%
%TO.N,Net-(U6-STBY)*%
X106496100Y-83655000D03*
%TD*%
D13*
%TO.P,NRST,1,1_1*%
%TO.N,GND*%
X191140000Y-85080000D03*
X191140000Y-74920000D03*
%TO.P,NRST,2,2_2*%
%TO.N,/MCU/NRST*%
X186060000Y-85080000D03*
X186060000Y-74920000D03*
%TD*%
D14*
%TO.P,TP2,1,1_1*%
%TO.N,/PowerAndUSB/D-*%
X104000000Y-88500000D03*
%TD*%
D13*
%TO.P,SW3,*%
%TO.N,*%
X172800000Y-65750000D03*
X181200000Y-65750000D03*
%TO.P,SW3,1,B_1*%
%TO.N,Net-(SW3-B)*%
X177000000Y-65750000D03*
%TO.P,SW3,2,C_2*%
%TO.N,+3.3V*%
X175000000Y-65750000D03*
%TO.P,SW3,3,A_3*%
%TO.N,GND*%
X179000000Y-65750000D03*
%TD*%
D15*
%TO.P,R35,1*%
%TO.N,Net-(SW3-B)*%
X175895000Y-71000000D03*
%TO.P,R35,2*%
%TO.N,BOOT0*%
X177720000Y-71000000D03*
%TD*%
%TO.P,R33,1*%
%TO.N,+3.3V*%
X156925000Y-95650000D03*
%TO.P,R33,2*%
%TO.N,Net-(D14-A)*%
X158750000Y-95650000D03*
%TD*%
D16*
%TO.P,GPIO3,1,Pin_1_1*%
%TO.N,Net-(GPIO3-Pin_1)*%
X136900000Y-124050000D03*
%TO.P,GPIO3,2,Pin_2_2*%
%TO.N,Net-(GPIO3-Pin_2)*%
X139400000Y-124050000D03*
%TO.P,GPIO3,3,Pin_3_3*%
%TO.N,GND*%
X141900000Y-124050000D03*
%TD*%
D11*
%TO.P,R6,1*%
%TO.N,/MCU/GPIO_2*%
X125000000Y-119000000D03*
%TO.P,R6,2*%
%TO.N,Net-(GPIO2-Pin_1)*%
X123175000Y-119000000D03*
%TD*%
D17*
%TO.P,C1,1*%
%TO.N,VIN*%
X116162500Y-114000000D03*
%TO.P,C1,2*%
%TO.N,GND*%
X113037500Y-114000000D03*
%TD*%
D11*
%TO.P,R19,1*%
%TO.N,Net-(D8-A)*%
X152000000Y-119000000D03*
%TO.P,R19,2*%
%TO.N,Net-(GPIO4-Pin_1)*%
X150175000Y-119000000D03*
%TD*%
D18*
%TO.P,J4,1,Pin_1_1*%
%TO.N,Net-(J4-Pin_1)*%
X109557500Y-75750000D03*
D13*
%TO.P,J4,2,Pin_2_2*%
%TO.N,Net-(J4-Pin_2)*%
X107017500Y-75750000D03*
%TD*%
D19*
%TO.P,U4,1,GND_1*%
%TO.N,GND*%
X124670000Y-100800000D03*
%TO.P,U4,2,VOUT_2*%
%TO.N,SYS_5V*%
X124670000Y-100300000D03*
%TO.P,U4,3,VIN1_3*%
%TO.N,/PowerAndUSB/VIN_5V*%
X124670000Y-99800000D03*
%TO.P,U4,4,PR1_4*%
%TO.N,Net-(U4-PR1)*%
X124670000Y-99300000D03*
%TO.P,U4,5,MODE_5*%
%TO.N,/PowerAndUSB/VIN_5V*%
X123200000Y-99300000D03*
%TO.P,U4,6,VIN2_6*%
%TO.N,/PowerAndUSB/USB_5V*%
X123200000Y-99800000D03*
%TO.P,U4,7,VOUT__1_7*%
%TO.N,SYS_5V*%
X123200000Y-100300000D03*
%TO.P,U4,8,ST_8*%
%TO.N,Net-(U4-ST)*%
X123200000Y-100800000D03*
%TD*%
D20*
%TO.P,XTAL2,1,1_1*%
%TO.N,OSC_IN*%
X135357000Y-105250000D03*
%TO.P,XTAL2,2,2_2*%
%TO.N,GND*%
X135357000Y-107002600D03*
%TO.P,XTAL2,3,3_3*%
%TO.N,OSC_OUT*%
X136500000Y-107002600D03*
%TO.P,XTAL2,4,4_4*%
%TO.N,GND*%
X136500000Y-105250000D03*
%TD*%
D21*
%TO.P,C13,1*%
%TO.N,+3.3V*%
X104307500Y-79862500D03*
%TO.P,C13,2*%
%TO.N,GND*%
X104307500Y-78137500D03*
%TD*%
D11*
%TO.P,R37,1*%
%TO.N,+3.3V*%
X174200000Y-95550000D03*
%TO.P,R37,2*%
%TO.N,Net-(D16-A)*%
X172375000Y-95550000D03*
%TD*%
D22*
%TO.P,D10,1,K_1*%
%TO.N,GND*%
X132650000Y-119000000D03*
%TO.P,D10,2,A_2*%
%TO.N,Net-(D10-A)*%
X130900000Y-119000000D03*
%TD*%
D23*
%TO.P,C45,1*%
%TO.N,Net-(C45-Pad1)*%
X141387500Y-91500000D03*
%TO.P,C45,2*%
%TO.N,GND*%
X143112500Y-91500000D03*
%TD*%
D24*
%TO.P,R30,1*%
%TO.N,/PowerAndUSB/VIN_5V*%
X117751400Y-102000000D03*
%TO.P,R30,2*%
%TO.N,Net-(U4-PR1)*%
X119250000Y-102000000D03*
%TD*%
D11*
%TO.P,R3,1*%
%TO.N,Net-(J5-Pin_4)*%
X153500000Y-96750000D03*
%TO.P,R3,2*%
%TO.N,/MCU/PA13-JTMS-SWDIO*%
X151675000Y-96750000D03*
%TD*%
D25*
%TO.P,JP2,1,A_1*%
%TO.N,+BATT*%
X126300000Y-128900000D03*
%TO.P,JP2,2,C_2*%
%TO.N,Net-(GPIO2-Pin_2)*%
X127600000Y-128900000D03*
%TO.P,JP2,3,B_3*%
%TO.N,+3.3V*%
X128900000Y-128900000D03*
%TD*%
%TO.P,JP3,1,A_1*%
%TO.N,+BATT*%
X138100000Y-129000000D03*
%TO.P,JP3,2,C_2*%
%TO.N,Net-(GPIO3-Pin_2)*%
X139400000Y-129000000D03*
%TO.P,JP3,3,B_3*%
%TO.N,+3.3V*%
X140700000Y-129000000D03*
%TD*%
D26*
%TO.P,D1,1*%
%TO.N,VIN*%
X108149300Y-108850000D03*
D27*
%TO.P,D1,2*%
%TO.N,Net-(D13-ANODE)*%
X106384000Y-108850000D03*
%TD*%
D28*
%TO.P,C38,1*%
%TO.N,+3.3V*%
X139750000Y-91500000D03*
%TO.P,C38,2*%
%TO.N,GND*%
X138025000Y-91500000D03*
%TD*%
D29*
%TO.P,C37,1*%
%TO.N,+3.3V*%
X148500000Y-96000000D03*
%TO.P,C37,2*%
%TO.N,GND*%
X147280240Y-94780240D03*
%TD*%
D23*
%TO.P,C2,1*%
%TO.N,VIN*%
X118487500Y-114250000D03*
%TO.P,C2,2*%
%TO.N,GND*%
X120212500Y-114250000D03*
%TD*%
D15*
%TO.P,R23,1*%
%TO.N,+BATT*%
X106875000Y-135900000D03*
%TO.P,R23,2*%
%TO.N,Net-(D12-A)*%
X108700000Y-135900000D03*
%TD*%
D30*
%TO.P,C34,1*%
%TO.N,+3.3V*%
X136390120Y-96859880D03*
%TO.P,C34,2*%
%TO.N,GND*%
X137609880Y-95640120D03*
%TD*%
D31*
%TO.P,J9,1,Pin_1_1*%
%TO.N,/MCU/GPIO_LM_4*%
X136806800Y-68582100D03*
%TO.P,J9,2,Pin_2_2*%
%TO.N,GND*%
X134306800Y-68582100D03*
%TD*%
D28*
%TO.P,C8,1*%
%TO.N,+3.3V*%
X110000000Y-95750000D03*
%TO.P,C8,2*%
%TO.N,GND*%
X108275000Y-95750000D03*
%TD*%
D31*
%TO.P,J7,1,Pin_1_1*%
%TO.N,/MCU/GPIO_LM_2*%
X118500000Y-68582100D03*
%TO.P,J7,2,Pin_2_2*%
%TO.N,GND*%
X116000000Y-68582100D03*
%TD*%
D32*
%TO.P,C7,1*%
%TO.N,/PowerAndUSB/USB_5V*%
X108437500Y-90000000D03*
%TO.P,C7,2*%
%TO.N,GND*%
X111562500Y-90000000D03*
%TD*%
D33*
%TO.P,D14,1,K_1*%
%TO.N,/CAN/CAN_TX*%
X156210000Y-100250000D03*
D34*
%TO.P,D14,2,A_2*%
%TO.N,Net-(D14-A)*%
X158750000Y-100250000D03*
%TD*%
D11*
%TO.P,R10,1*%
%TO.N,/MCU/GPIO_6*%
X171862500Y-118950000D03*
%TO.P,R10,2*%
%TO.N,Net-(GPIO6-Pin_1)*%
X170037500Y-118950000D03*
%TD*%
D22*
%TO.P,D6,1,K_1*%
%TO.N,GND*%
X179450000Y-118950000D03*
%TO.P,D6,2,A_2*%
%TO.N,Net-(D6-A)*%
X177700000Y-118950000D03*
%TD*%
D35*
%TO.P,X1,1,1_1*%
%TO.N,OSC32_IN*%
X132750000Y-96250000D03*
%TO.P,X1,2,2_2*%
%TO.N,OSC32_OUT*%
X132750000Y-99094800D03*
%TD*%
D36*
%TO.P,RV2,1*%
%TO.N,/PowerAndUSB/D+*%
X104550000Y-95720000D03*
%TO.P,RV2,2*%
%TO.N,GND*%
X104550000Y-97280000D03*
%TD*%
%TO.P,RV1,1*%
%TO.N,/PowerAndUSB/D-*%
X101750000Y-95750000D03*
%TO.P,RV1,2*%
%TO.N,GND*%
X101750000Y-97310000D03*
%TD*%
D11*
%TO.P,R21,1*%
%TO.N,Net-(D10-A)*%
X128887500Y-119000000D03*
%TO.P,R21,2*%
%TO.N,Net-(GPIO2-Pin_1)*%
X127062500Y-119000000D03*
%TD*%
%TO.P,R16,1*%
%TO.N,Net-(D5-A)*%
X187525000Y-118950000D03*
%TO.P,R16,2*%
%TO.N,Net-(GPIO7-Pin_1)*%
X185700000Y-118950000D03*
%TD*%
D32*
%TO.P,C9,1*%
%TO.N,/PowerAndUSB/USB_5V*%
X113937500Y-90000000D03*
%TO.P,C9,2*%
%TO.N,GND*%
X117062500Y-90000000D03*
%TD*%
D37*
%TO.P,D13,1,CATHODE_1*%
%TO.N,VIN*%
X103403500Y-108850000D03*
D38*
%TO.P,D13,2,ANODE_2*%
%TO.N,Net-(D13-ANODE)*%
X100800000Y-108850000D03*
%TD*%
D39*
%TO.P,C41,1*%
%TO.N,+3.3V*%
X138250000Y-105250000D03*
%TO.P,C41,2*%
%TO.N,GND*%
X138250000Y-106975002D03*
%TD*%
D11*
%TO.P,R8,1*%
%TO.N,/MCU/GPIO_4*%
X148250000Y-119000000D03*
%TO.P,R8,2*%
%TO.N,Net-(GPIO4-Pin_1)*%
X146425000Y-119000000D03*
%TD*%
D40*
%TO.P,R31,1*%
%TO.N,Net-(U4-PR1)*%
X119501400Y-99750000D03*
%TO.P,R31,2*%
%TO.N,GND*%
X117501400Y-99750000D03*
%TD*%
D31*
%TO.P,J10,1,Pin_1_1*%
%TO.N,/MCU/GPIO_LM_5*%
X145960200Y-68582100D03*
%TO.P,J10,2,Pin_2_2*%
%TO.N,GND*%
X143460200Y-68582100D03*
%TD*%
D41*
%TO.P,JP8,1,A_1*%
%TO.N,+BATT*%
X191100000Y-109100000D03*
%TO.P,JP8,2,C_2*%
%TO.N,Net-(GPIO8-Pin_2)*%
X191100000Y-107800000D03*
%TO.P,JP8,3,B_3*%
%TO.N,+3.3V*%
X191100000Y-106500000D03*
%TD*%
D23*
%TO.P,C11,1*%
%TO.N,+3.3V*%
X129387500Y-87000000D03*
%TO.P,C11,2*%
%TO.N,GND*%
X131112500Y-87000000D03*
%TD*%
D22*
%TO.P,D12,1,K_1*%
%TO.N,GND*%
X112750000Y-135900000D03*
%TO.P,D12,2,A_2*%
%TO.N,Net-(D12-A)*%
X111000000Y-135900000D03*
%TD*%
D42*
%TO.P,J3,1,1_1*%
%TO.N,Net-(F2-Pad1)*%
X98675000Y-92800000D03*
%TO.P,J3,2,2_2*%
%TO.N,/PowerAndUSB/D-*%
X98675000Y-93450000D03*
%TO.P,J3,3,3_3*%
%TO.N,/PowerAndUSB/D+*%
X98675000Y-94100000D03*
%TO.P,J3,4,4_4*%
%TO.N,/PowerAndUSB/VOTGID*%
X98675000Y-94750000D03*
%TO.P,J3,5,5_5*%
%TO.N,GND*%
X98675000Y-95400000D03*
D43*
%TO.P,J3,SH1,SHIELD_SH1*%
X98550000Y-91000000D03*
D44*
%TO.P,J3,SH2,SHIELD__1_SH2*%
X96000000Y-90100000D03*
D45*
%TO.P,J3,SH3,SHIELD__2_SH3*%
X96000000Y-92900000D03*
%TO.P,J3,SH4,SHIELD__3_SH4*%
X96000000Y-95300000D03*
D44*
%TO.P,J3,SH5,SHIELD__4_SH5*%
X96000000Y-98100000D03*
D43*
%TO.P,J3,SH6,SHIELD__5_SH6*%
X98550000Y-97200000D03*
%TD*%
D28*
%TO.P,C28,1*%
%TO.N,OSC_OUT*%
X136500000Y-109000000D03*
%TO.P,C28,2*%
%TO.N,GND*%
X134775000Y-109000000D03*
%TD*%
D14*
%TO.P,TP4,1,1_1*%
%TO.N,Net-(U4-ST)*%
X117250000Y-95250000D03*
%TD*%
D33*
%TO.P,D18,1,K_1*%
%TO.N,GND*%
X169250000Y-100250000D03*
D34*
%TO.P,D18,2,A_2*%
%TO.N,Net-(D18-A)*%
X166710000Y-100250000D03*
%TD*%
D46*
%TO.P,D3,1,K_1*%
%TO.N,GND*%
X180650000Y-91175000D03*
%TO.P,D3,2,A_2*%
%TO.N,Net-(D3-A)*%
X180650000Y-92925000D03*
%TD*%
D28*
%TO.P,C35,1*%
%TO.N,+3.3V*%
X148612500Y-92250000D03*
%TO.P,C35,2*%
%TO.N,GND*%
X146887500Y-92250000D03*
%TD*%
D15*
%TO.P,R2,1*%
%TO.N,/MCU/PA14-JTCK-SWCLK*%
X151675000Y-95000000D03*
%TO.P,R2,2*%
%TO.N,Net-(J5-Pin_2)*%
X153500000Y-95000000D03*
%TD*%
D11*
%TO.P,R18,1*%
%TO.N,Net-(D7-A)*%
X163925000Y-119000000D03*
%TO.P,R18,2*%
%TO.N,Net-(GPIO5-Pin_1)*%
X162100000Y-119000000D03*
%TD*%
D16*
%TO.P,GPIO6,1,Pin_1_1*%
%TO.N,Net-(GPIO6-Pin_1)*%
X172250000Y-124050000D03*
%TO.P,GPIO6,2,Pin_2_2*%
%TO.N,Net-(GPIO6-Pin_2)*%
X174750000Y-124050000D03*
%TO.P,GPIO6,3,Pin_3_3*%
%TO.N,GND*%
X177250000Y-124050000D03*
%TD*%
%TO.P,GPIO1,1,Pin_1_1*%
%TO.N,Net-(GPIO1-Pin_1)*%
X113200000Y-124050000D03*
%TO.P,GPIO1,2,Pin_2_2*%
%TO.N,Net-(GPIO1-Pin_2)*%
X115700000Y-124050000D03*
%TO.P,GPIO1,3,Pin_3_3*%
%TO.N,GND*%
X118200000Y-124050000D03*
%TD*%
D47*
%TO.P,H4,1,1_1*%
%TO.N,unconnected-(H4-Pad1)*%
X189500000Y-136500000D03*
%TD*%
D23*
%TO.P,C31,1*%
%TO.N,/MCU/NRST*%
X176525000Y-93250000D03*
%TO.P,C31,2*%
%TO.N,GND*%
X178250000Y-93250000D03*
%TD*%
D17*
%TO.P,C6,1*%
%TO.N,/PowerAndUSB/VIN_5V*%
X114100000Y-106750000D03*
%TO.P,C6,2*%
%TO.N,GND*%
X110975000Y-106750000D03*
%TD*%
D22*
%TO.P,D5,1,K_1*%
%TO.N,GND*%
X191175000Y-118950000D03*
%TO.P,D5,2,A_2*%
%TO.N,Net-(D5-A)*%
X189425000Y-118950000D03*
%TD*%
D39*
%TO.P,C42,1*%
%TO.N,GND*%
X130500000Y-93500000D03*
%TO.P,C42,2*%
%TO.N,OSC32_IN*%
X130500000Y-95225000D03*
%TD*%
%TO.P,C44,1*%
%TO.N,Net-(C44-Pad1)*%
X145250000Y-107750000D03*
%TO.P,C44,2*%
%TO.N,GND*%
X145250000Y-109475000D03*
%TD*%
D22*
%TO.P,D11,1,K_1*%
%TO.N,GND*%
X120900000Y-119050000D03*
%TO.P,D11,2,A_2*%
%TO.N,Net-(D11-A)*%
X119150000Y-119050000D03*
%TD*%
D16*
%TO.P,GPIO7,1,Pin_1_1*%
%TO.N,Net-(GPIO7-Pin_1)*%
X184150000Y-123900000D03*
%TO.P,GPIO7,2,Pin_2_2*%
%TO.N,Net-(GPIO7-Pin_2)*%
X186650000Y-123900000D03*
%TO.P,GPIO7,3,Pin_3_3*%
%TO.N,GND*%
X189150000Y-123900000D03*
%TD*%
%TO.P,GPIO5,1,Pin_1_1*%
%TO.N,Net-(GPIO5-Pin_1)*%
X160450000Y-124050000D03*
%TO.P,GPIO5,2,Pin_2_2*%
%TO.N,Net-(GPIO5-Pin_2)*%
X162950000Y-124050000D03*
%TO.P,GPIO5,3,Pin_3_3*%
%TO.N,GND*%
X165450000Y-124050000D03*
%TD*%
D11*
%TO.P,R5,1*%
%TO.N,/MCU/GPIO_1*%
X113175000Y-119050000D03*
%TO.P,R5,2*%
%TO.N,Net-(GPIO1-Pin_1)*%
X111350000Y-119050000D03*
%TD*%
D47*
%TO.P,H1,1,1_1*%
%TO.N,unconnected-(H1-Pad1)*%
X96500000Y-66500000D03*
%TD*%
D15*
%TO.P,R27,1*%
%TO.N,Net-(U1-FB)*%
X120837500Y-105300000D03*
%TO.P,R27,2*%
%TO.N,GND*%
X122662500Y-105300000D03*
%TD*%
D48*
%TO.P,U1,1,FB_1*%
%TO.N,Net-(U1-FB)*%
X118898000Y-108750000D03*
D49*
%TO.P,U1,2,VCC_2*%
%TO.N,unconnected-(U1-VCC-Pad2)*%
X118758000Y-108100001D03*
%TO.P,U1,3,AGND_3*%
%TO.N,GND*%
X118758000Y-107450000D03*
D50*
%TO.P,U1,4,SW_4*%
%TO.N,unconnected-(U1-SW-Pad4)*%
X119050000Y-106800000D03*
%TO.P,U1,5,SW_5*%
%TO.N,unconnected-(U1-SW-Pad5)*%
X119050000Y-105949999D03*
%TO.P,U1,6,SW_6*%
%TO.N,unconnected-(U1-SW-Pad6)*%
X119050000Y-105100000D03*
%TO.P,U1,7,OUT_7*%
%TO.N,/PowerAndUSB/VIN_5V*%
X115958000Y-105100000D03*
%TO.P,U1,8,OUT_8*%
X115958000Y-105949999D03*
%TO.P,U1,9,OUT_9*%
X115958000Y-106800000D03*
D49*
%TO.P,U1,10,NC_10*%
%TO.N,unconnected-(U1-NC-Pad10)*%
X116250000Y-107450000D03*
%TO.P,U1,11,BST_11*%
%TO.N,unconnected-(U1-BST-Pad11)*%
X116250000Y-108100001D03*
D51*
%TO.P,U1,12,PGND_12*%
%TO.N,GND*%
X116060000Y-108750000D03*
D52*
%TO.P,U1,13,PGND_13*%
X116254000Y-109644000D03*
%TO.P,U1,14,PGND_14*%
X116753999Y-109644000D03*
D53*
%TO.P,U1,15,NC_15*%
%TO.N,unconnected-(U1-NC-Pad15)*%
X117254000Y-109454000D03*
%TO.P,U1,16,IN_16*%
%TO.N,VIN*%
X117754000Y-109454000D03*
D52*
%TO.P,U1,17,EN_17*%
%TO.N,Net-(U1-EN)*%
X118254001Y-109644000D03*
%TO.P,U1,18,AAM_18*%
%TO.N,Net-(U1-AAM)*%
X118754000Y-109644000D03*
D54*
%TO.P,U1,19,NC_19*%
%TO.N,unconnected-(U1-NC-Pad19)*%
X117754000Y-107775000D03*
%TO.P,U1,20,NC_20*%
%TO.N,unconnected-(U1-NC-Pad20)*%
X117254000Y-107775000D03*
%TD*%
D11*
%TO.P,R11,1*%
%TO.N,/MCU/GPIO_7*%
X183750000Y-118950000D03*
%TO.P,R11,2*%
%TO.N,Net-(GPIO7-Pin_1)*%
X181925000Y-118950000D03*
%TD*%
D47*
%TO.P,H3,1,1_1*%
%TO.N,unconnected-(H3-Pad1)*%
X96650000Y-136250000D03*
%TD*%
D31*
%TO.P,J12,1,Pin_1_1*%
%TO.N,/MCU/GPIO_LM_7*%
X164267000Y-68582100D03*
%TO.P,J12,2,Pin_2_2*%
%TO.N,GND*%
X161767000Y-68582100D03*
%TD*%
D28*
%TO.P,C40,1*%
%TO.N,+3.3V*%
X131000000Y-104250000D03*
%TO.P,C40,2*%
%TO.N,GND*%
X129274998Y-104250000D03*
%TD*%
D31*
%TO.P,J11,1,Pin_1_1*%
%TO.N,/MCU/GPIO_LM_6*%
X155113600Y-68582100D03*
%TO.P,J11,2,Pin_2_2*%
%TO.N,GND*%
X152613600Y-68582100D03*
%TD*%
D55*
%TO.P,RV3,1*%
%TO.N,GND*%
X101750000Y-101060000D03*
%TO.P,RV3,2*%
%TO.N,/PowerAndUSB/VOTGID*%
X101750000Y-99500000D03*
%TD*%
D56*
%TO.P,U5,1,VO_1*%
%TO.N,+3.3V*%
X127250000Y-88064400D03*
%TO.P,U5,2,VO_S_2*%
X125980000Y-88064400D03*
%TO.P,U5,3,GND_3*%
%TO.N,GND*%
X124710000Y-88064400D03*
%TO.P,U5,4,N.C._4*%
%TO.N,unconnected-(U5-N.C.-Pad4)*%
X123440000Y-88064400D03*
%TO.P,U5,5,EN_5*%
%TO.N,SYS_5V*%
X123440000Y-93500000D03*
%TO.P,U5,6,N.C._6*%
%TO.N,unconnected-(U5-N.C.-Pad6)*%
X124710000Y-93500000D03*
%TO.P,U5,7,N.C._7*%
%TO.N,unconnected-(U5-N.C.-Pad7)*%
X125980000Y-93500000D03*
%TO.P,U5,8,VCC_8*%
%TO.N,SYS_5V*%
X127250000Y-93500000D03*
D57*
%TO.P,U5,EPAD,EPAD_EPAD*%
%TO.N,GND*%
X125345000Y-90782200D03*
%TD*%
D11*
%TO.P,R40,1*%
%TO.N,Net-(U7-PA15(JTDI))*%
X168892500Y-95550000D03*
%TO.P,R40,2*%
%TO.N,Net-(D18-A)*%
X167067500Y-95550000D03*
%TD*%
D18*
%TO.P,J5,1,Pin_1_1*%
%TO.N,+3.3V*%
X146830000Y-87500000D03*
D13*
%TO.P,J5,2,Pin_2_2*%
%TO.N,Net-(J5-Pin_2)*%
X144290000Y-87500000D03*
%TO.P,J5,3,Pin_3_3*%
%TO.N,GND*%
X141750000Y-87500000D03*
%TO.P,J5,4,Pin_4_4*%
%TO.N,Net-(J5-Pin_4)*%
X139210000Y-87500000D03*
%TO.P,J5,5,Pin_5_5*%
%TO.N,/MCU/NRST*%
X136670000Y-87500000D03*
%TD*%
D46*
%TO.P,D4,1,K_1*%
%TO.N,GND*%
X180700000Y-103150000D03*
%TO.P,D4,2,A_2*%
%TO.N,Net-(D4-A)*%
X180700000Y-104900000D03*
%TD*%
D58*
%TO.P,R14,1*%
%TO.N,Net-(D3-A)*%
X180650000Y-95012500D03*
%TO.P,R14,2*%
%TO.N,Net-(GPIO9-Pin_1)*%
X180650000Y-96837500D03*
%TD*%
D16*
%TO.P,GPIO9,1,Pin_1_1*%
%TO.N,Net-(GPIO9-Pin_1)*%
X186000000Y-98583400D03*
%TO.P,GPIO9,2,Pin_2_2*%
%TO.N,Net-(GPIO9-Pin_2)*%
X186000000Y-96083400D03*
%TO.P,GPIO9,3,Pin_3_3*%
%TO.N,GND*%
X186000000Y-93583400D03*
%TD*%
%TO.P,GPIO4,1,Pin_1_1*%
%TO.N,Net-(GPIO4-Pin_1)*%
X148650000Y-124050000D03*
%TO.P,GPIO4,2,Pin_2_2*%
%TO.N,Net-(GPIO4-Pin_2)*%
X151150000Y-124050000D03*
%TO.P,GPIO4,3,Pin_3_3*%
%TO.N,GND*%
X153650000Y-124050000D03*
%TD*%
D59*
%TO.P,U7,1,VBAT_1*%
%TO.N,+3.3V*%
X138750000Y-97750000D03*
%TO.P,U7,2,PC13_2*%
%TO.N,unconnected-(U7-PC13-Pad2)*%
X138750000Y-98250000D03*
%TO.P,U7,3,PC14_3*%
%TO.N,OSC32_IN*%
X138750000Y-98750000D03*
%TO.P,U7,4,PC15_4*%
%TO.N,OSC32_OUT*%
X138750000Y-99250000D03*
%TO.P,U7,5,PH0_5*%
%TO.N,OSC_IN*%
X138750000Y-99750000D03*
%TO.P,U7,6,PH1_6*%
%TO.N,OSC_OUT*%
X138750000Y-100250000D03*
%TO.P,U7,7,NRST_7*%
%TO.N,/MCU/NRST*%
X138750000Y-100750000D03*
%TO.P,U7,8,VSSA_8*%
%TO.N,GND*%
X138750000Y-101250000D03*
%TO.P,U7,9,VDDA_9*%
%TO.N,+3.3V*%
X138750000Y-101750000D03*
%TO.P,U7,10,PA0_10*%
%TO.N,unconnected-(U7-PA0-Pad10)*%
X138750000Y-102250000D03*
%TO.P,U7,11,PA1_11*%
%TO.N,/MCU/USART1_RX*%
X138750000Y-102750000D03*
%TO.P,U7,12,PA2_12*%
%TO.N,/MCU/USART1_TX*%
X138750000Y-103250000D03*
D60*
%TO.P,U7,13,PA3_13*%
%TO.N,/MCU/GPIO_1*%
X140162500Y-104662500D03*
%TO.P,U7,14,PA4_14*%
%TO.N,/MCU/GPIO_2*%
X140662500Y-104662500D03*
%TO.P,U7,15,PA5_15*%
%TO.N,/MCU/GPIO_3*%
X141162500Y-104662500D03*
%TO.P,U7,16,PA6_16*%
%TO.N,/MCU/GPIO_4*%
X141662500Y-104662500D03*
%TO.P,U7,17,PA7_17*%
%TO.N,/MCU/GPIO_5*%
X142162500Y-104662500D03*
%TO.P,U7,18,PB0_18*%
%TO.N,/MCU/GPIO_6*%
X142662500Y-104662500D03*
%TO.P,U7,19,PB1_19*%
%TO.N,/MCU/GPIO_7*%
X143162500Y-104662500D03*
%TO.P,U7,20,PB2_20*%
%TO.N,/MCU/GPIO_8*%
X143662500Y-104662500D03*
%TO.P,U7,21,PB10_21*%
%TO.N,/MCU/GPIO_9*%
X144162500Y-104662500D03*
%TO.P,U7,22,VCAP_22*%
%TO.N,Net-(C44-Pad1)*%
X144662500Y-104662500D03*
%TO.P,U7,23,VSS_23*%
%TO.N,GND*%
X145162500Y-104662500D03*
%TO.P,U7,24,VDD_24*%
%TO.N,+3.3V*%
X145662500Y-104662500D03*
D59*
%TO.P,U7,25,PB12_25*%
%TO.N,/CAN/CAN_RX*%
X147075000Y-103250000D03*
%TO.P,U7,26,PB13_26*%
%TO.N,/CAN/CAN_TX*%
X147075000Y-102750000D03*
%TO.P,U7,27,PB14_27*%
%TO.N,/MCU/GPIO_LM_1*%
X147075000Y-102250000D03*
%TO.P,U7,28,PB15_28*%
%TO.N,/MCU/GPIO_LM_2*%
X147075000Y-101750000D03*
%TO.P,U7,29,PA8_29*%
%TO.N,/MCU/GPIO_LM_3*%
X147075000Y-101250000D03*
%TO.P,U7,30,PA9_30*%
%TO.N,/MCU/GPIO_LM_4*%
X147075000Y-100750000D03*
%TO.P,U7,31,PA10_31*%
%TO.N,/MCU/GPIO_LM_5*%
X147075000Y-100250000D03*
%TO.P,U7,32,PA11_32*%
%TO.N,/MCU/GPIO_LM_6*%
X147075000Y-99750000D03*
%TO.P,U7,33,PA12_33*%
%TO.N,/MCU/GPIO_LM_7*%
X147075000Y-99250000D03*
%TO.P,U7,34,PA13(JTMS_34*%
%TO.N,/MCU/PA13-JTMS-SWDIO*%
X147075000Y-98750000D03*
%TO.P,U7,35,VSS_35*%
%TO.N,GND*%
X147075000Y-98250000D03*
%TO.P,U7,36,VDD_36*%
%TO.N,+3.3V*%
X147075000Y-97750000D03*
D60*
%TO.P,U7,37,PA14(JTCK_37*%
%TO.N,/MCU/PA14-JTCK-SWCLK*%
X145662500Y-96337500D03*
%TO.P,U7,38,PA15(JTDI)_38*%
%TO.N,Net-(U7-PA15(JTDI))*%
X145162500Y-96337500D03*
%TO.P,U7,39,PB3(JTDO_39*%
%TO.N,unconnected-(U7-PB3(JTDO-Pad39)*%
X144662500Y-96337500D03*
%TO.P,U7,40,PB4(NJTRST)_40*%
%TO.N,unconnected-(U7-PB4(NJTRST)-Pad40)*%
X144162500Y-96337500D03*
%TO.P,U7,41,PB5_41*%
%TO.N,unconnected-(U7-PB5-Pad41)*%
X143662500Y-96337500D03*
%TO.P,U7,42,PB6_42*%
%TO.N,unconnected-(U7-PB6-Pad42)*%
X143162500Y-96337500D03*
%TO.P,U7,43,PB7_43*%
%TO.N,unconnected-(U7-PB7-Pad43)*%
X142662500Y-96337500D03*
%TO.P,U7,44,BOOT0_44*%
%TO.N,BOOT0*%
X142162500Y-96337500D03*
%TO.P,U7,45,PB8_45*%
%TO.N,unconnected-(U7-PB8-Pad45)*%
X141662500Y-96337500D03*
%TO.P,U7,46,VCAP_46*%
%TO.N,Net-(C45-Pad1)*%
X141162500Y-96337500D03*
%TO.P,U7,47,VSS_47*%
%TO.N,GND*%
X140662500Y-96337500D03*
%TO.P,U7,48,VDD_48*%
%TO.N,+3.3V*%
X140162500Y-96337500D03*
%TD*%
D39*
%TO.P,C43,1*%
%TO.N,GND*%
X130500000Y-97137500D03*
%TO.P,C43,2*%
%TO.N,OSC32_OUT*%
X130500000Y-98862500D03*
%TD*%
D33*
%TO.P,D17,1,K_1*%
%TO.N,/CAN/CAN_RX*%
X161460000Y-100250000D03*
D34*
%TO.P,D17,2,A_2*%
%TO.N,Net-(D17-A)*%
X164000000Y-100250000D03*
%TD*%
D58*
%TO.P,R13,1*%
%TO.N,/MCU/GPIO_9*%
X180700000Y-99200000D03*
%TO.P,R13,2*%
%TO.N,Net-(GPIO9-Pin_1)*%
X180700000Y-101025000D03*
%TD*%
D16*
%TO.P,GPIO2,1,Pin_1_1*%
%TO.N,Net-(GPIO2-Pin_1)*%
X125100000Y-124100000D03*
%TO.P,GPIO2,2,Pin_2_2*%
%TO.N,Net-(GPIO2-Pin_2)*%
X127600000Y-124100000D03*
%TO.P,GPIO2,3,Pin_3_3*%
%TO.N,GND*%
X130100000Y-124100000D03*
%TD*%
D61*
%TO.P,R39,1*%
%TO.N,Net-(U6-STBY)*%
X104307500Y-83750000D03*
%TO.P,R39,2*%
%TO.N,GND*%
X104307500Y-85750000D03*
%TD*%
D11*
%TO.P,R20,1*%
%TO.N,Net-(D9-A)*%
X140450000Y-119000000D03*
%TO.P,R20,2*%
%TO.N,Net-(GPIO3-Pin_1)*%
X138625000Y-119000000D03*
%TD*%
D33*
%TO.P,D16,1,K_1*%
%TO.N,GND*%
X174500000Y-100250000D03*
D34*
%TO.P,D16,2,A_2*%
%TO.N,Net-(D16-A)*%
X171960000Y-100250000D03*
%TD*%
D41*
%TO.P,JP9,1,A_1*%
%TO.N,+BATT*%
X190950000Y-97400000D03*
%TO.P,JP9,2,C_2*%
%TO.N,Net-(GPIO9-Pin_2)*%
X190950000Y-96100000D03*
%TO.P,JP9,3,B_3*%
%TO.N,+3.3V*%
X190950000Y-94800000D03*
%TD*%
D24*
%TO.P,R32,1*%
%TO.N,Net-(U4-ST)*%
X126750700Y-99000000D03*
%TO.P,R32,2*%
%TO.N,/PowerAndUSB/VIN_5V*%
X128249300Y-99000000D03*
%TD*%
D39*
%TO.P,C30,1*%
%TO.N,OSC_IN*%
X133750000Y-105275000D03*
%TO.P,C30,2*%
%TO.N,GND*%
X133750000Y-107000000D03*
%TD*%
D25*
%TO.P,JP5,1,A_1*%
%TO.N,+BATT*%
X161650000Y-128950000D03*
%TO.P,JP5,2,C_2*%
%TO.N,Net-(GPIO5-Pin_2)*%
X162950000Y-128950000D03*
%TO.P,JP5,3,B_3*%
%TO.N,+3.3V*%
X164250000Y-128950000D03*
%TD*%
D62*
%TO.P,J6,1,Pin_1_1*%
%TO.N,Net-(J4-Pin_1)*%
X98000000Y-84750000D03*
D63*
%TO.P,J6,2,Pin_2_2*%
%TO.N,Net-(J6-Pin_2)*%
X98000000Y-79750000D03*
%TD*%
D11*
%TO.P,R17,1*%
%TO.N,Net-(D6-A)*%
X175725000Y-118950000D03*
%TO.P,R17,2*%
%TO.N,Net-(GPIO6-Pin_1)*%
X173900000Y-118950000D03*
%TD*%
D16*
%TO.P,GPIO8,1,Pin_1_1*%
%TO.N,Net-(GPIO8-Pin_1)*%
X185900000Y-110300000D03*
%TO.P,GPIO8,2,Pin_2_2*%
%TO.N,Net-(GPIO8-Pin_2)*%
X185900000Y-107800000D03*
%TO.P,GPIO8,3,Pin_3_3*%
%TO.N,GND*%
X185900000Y-105300000D03*
%TD*%
D23*
%TO.P,C12,1*%
%TO.N,SYS_5V*%
X114750000Y-81250000D03*
%TO.P,C12,2*%
%TO.N,GND*%
X116475000Y-81250000D03*
%TD*%
D47*
%TO.P,H2,1,1_1*%
%TO.N,unconnected-(H2-Pad1)*%
X189500000Y-66500000D03*
%TD*%
D31*
%TO.P,J1,1,Pin_1_1*%
%TO.N,/MCU/GPIO_LM_1*%
X109346600Y-68582100D03*
%TO.P,J1,2,Pin_2_2*%
%TO.N,GND*%
X106846600Y-68582100D03*
%TD*%
D64*
%TO.P,IN1,*%
%TO.N,*%
X97000000Y-125700000D03*
X97000000Y-114700000D03*
D65*
%TO.P,IN1,1,Pin_1_1*%
%TO.N,GND*%
X107000000Y-117700000D03*
D66*
%TO.P,IN1,2,Pin_2_2*%
%TO.N,+BATT*%
X107000000Y-122700000D03*
%TD*%
D67*
%TO.P,F2,1,1_1*%
%TO.N,Net-(F2-Pad1)*%
X101750000Y-92000000D03*
%TO.P,F2,2,2_2*%
%TO.N,/PowerAndUSB/USB_5V*%
X105941000Y-92000000D03*
%TD*%
D11*
%TO.P,R9,1*%
%TO.N,/MCU/GPIO_5*%
X160262500Y-119000000D03*
%TO.P,R9,2*%
%TO.N,Net-(GPIO5-Pin_1)*%
X158437500Y-119000000D03*
%TD*%
%TO.P,R7,1*%
%TO.N,/MCU/GPIO_3*%
X136850000Y-119000000D03*
%TO.P,R7,2*%
%TO.N,Net-(GPIO3-Pin_1)*%
X135025000Y-119000000D03*
%TD*%
D68*
%TO.P,L1,1,1_1*%
%TO.N,Net-(D13-ANODE)*%
X102682000Y-105650000D03*
%TO.P,L1,2,2_2*%
%TO.N,/PowerAndUSB/VIN+*%
X100650000Y-105650000D03*
%TD*%
D58*
%TO.P,R12,1*%
%TO.N,/MCU/GPIO_8*%
X180700000Y-110662500D03*
%TO.P,R12,2*%
%TO.N,Net-(GPIO8-Pin_1)*%
X180700000Y-112487500D03*
%TD*%
D15*
%TO.P,R29,1*%
%TO.N,/PowerAndUSB/USB_5V*%
X108337500Y-93750000D03*
%TO.P,R29,2*%
%TO.N,GND*%
X110162500Y-93750000D03*
%TD*%
D25*
%TO.P,JP7,1,A_1*%
%TO.N,+BATT*%
X185350000Y-128750000D03*
%TO.P,JP7,2,C_2*%
%TO.N,Net-(GPIO7-Pin_2)*%
X186650000Y-128750000D03*
%TO.P,JP7,3,B_3*%
%TO.N,+3.3V*%
X187950000Y-128750000D03*
%TD*%
%TO.P,JP4,1,A_1*%
%TO.N,+BATT*%
X149850000Y-128850000D03*
%TO.P,JP4,2,C_2*%
%TO.N,Net-(GPIO4-Pin_2)*%
X151150000Y-128850000D03*
%TO.P,JP4,3,B_3*%
%TO.N,+3.3V*%
X152450000Y-128850000D03*
%TD*%
D69*
%TO.P,R26,1*%
%TO.N,GND*%
X121897700Y-109650000D03*
%TO.P,R26,2*%
%TO.N,Net-(U1-AAM)*%
X120602300Y-109650000D03*
%TD*%
D14*
%TO.P,TP3,1,1_1*%
%TO.N,/PowerAndUSB/D+*%
X104250000Y-100250000D03*
%TD*%
D28*
%TO.P,C5,1*%
%TO.N,/PowerAndUSB/VIN_5V*%
X113362500Y-103500000D03*
%TO.P,C5,2*%
%TO.N,GND*%
X111637500Y-103500000D03*
%TD*%
D31*
%TO.P,J8,1,Pin_1_1*%
%TO.N,/MCU/GPIO_LM_3*%
X127653400Y-68582100D03*
%TO.P,J8,2,Pin_2_2*%
%TO.N,GND*%
X125153400Y-68582100D03*
%TD*%
D15*
%TO.P,R38,1*%
%TO.N,Net-(J6-Pin_2)*%
X101732500Y-75750000D03*
%TO.P,R38,2*%
%TO.N,Net-(J4-Pin_2)*%
X103557500Y-75750000D03*
%TD*%
D14*
%TO.P,TP1,1,1_1*%
%TO.N,Net-(F2-Pad1)*%
X95750000Y-101900000D03*
%TD*%
D69*
%TO.P,R28,1*%
%TO.N,Net-(U1-FB)*%
X120952300Y-107300000D03*
%TO.P,R28,2*%
%TO.N,/PowerAndUSB/VIN_5V*%
X122247700Y-107300000D03*
%TD*%
%TO.P,R1,1*%
%TO.N,VIN*%
X120352300Y-111500000D03*
%TO.P,R1,2*%
%TO.N,Net-(U1-EN)*%
X121647700Y-111500000D03*
%TD*%
D31*
%TO.P,J2,1,Pin_1_1*%
%TO.N,GND*%
X96250000Y-106650000D03*
%TO.P,J2,2,Pin_2_2*%
%TO.N,/PowerAndUSB/VIN+*%
X96250000Y-109150000D03*
%TD*%
D22*
%TO.P,D8,1,K_1*%
%TO.N,GND*%
X155750000Y-119000000D03*
%TO.P,D8,2,A_2*%
%TO.N,Net-(D8-A)*%
X154000000Y-119000000D03*
%TD*%
D15*
%TO.P,R34,1*%
%TO.N,+3.3V*%
X161975000Y-95650000D03*
%TO.P,R34,2*%
%TO.N,Net-(D17-A)*%
X163800000Y-95650000D03*
%TD*%
D70*
%TO.P,C4,1*%
%TO.N,VIN*%
X128000000Y-110250000D03*
D71*
%TO.P,C4,2*%
%TO.N,GND*%
X130500000Y-110250000D03*
%TD*%
D22*
%TO.P,D9,1,K_1*%
%TO.N,GND*%
X144012500Y-119000000D03*
%TO.P,D9,2,A_2*%
%TO.N,Net-(D9-A)*%
X142262500Y-119000000D03*
%TD*%
D25*
%TO.P,JP6,1,A_1*%
%TO.N,+BATT*%
X173450000Y-129050000D03*
%TO.P,JP6,2,C_2*%
%TO.N,Net-(GPIO6-Pin_2)*%
X174750000Y-129050000D03*
%TO.P,JP6,3,B_3*%
%TO.N,+3.3V*%
X176050000Y-129050000D03*
%TD*%
%TO.P,JP1,1,A_1*%
%TO.N,+BATT*%
X114400000Y-129000000D03*
%TO.P,JP1,2,C_2*%
%TO.N,Net-(GPIO1-Pin_2)*%
X115700000Y-129000000D03*
%TO.P,JP1,3,B_3*%
%TO.N,+3.3V*%
X117000000Y-129000000D03*
%TD*%
D58*
%TO.P,R15,1*%
%TO.N,Net-(D4-A)*%
X180700000Y-106825000D03*
%TO.P,R15,2*%
%TO.N,Net-(GPIO8-Pin_1)*%
X180700000Y-108650000D03*
%TD*%
D30*
%TO.P,C36,1*%
%TO.N,+3.3V*%
X147890120Y-106859880D03*
%TO.P,C36,2*%
%TO.N,GND*%
X149109880Y-105640120D03*
%TD*%
D72*
%TO.P,U2,1,UD+_1*%
%TO.N,/PowerAndUSB/D+*%
X107000000Y-98250000D03*
%TO.P,U2,2,UD-_2*%
%TO.N,/PowerAndUSB/D-*%
X107000000Y-98750000D03*
%TO.P,U2,3,GND_3*%
%TO.N,GND*%
X107000000Y-99250000D03*
%TO.P,U2,4,~{RTS}_4*%
%TO.N,unconnected-(U2-~{RTS}-Pad4)*%
X107000000Y-99750000D03*
%TO.P,U2,5,~{CTS}_5*%
%TO.N,unconnected-(U2-~{CTS}-Pad5)*%
X107000000Y-100250000D03*
%TO.P,U2,6,TNOW_6*%
%TO.N,unconnected-(U2-TNOW-Pad6)*%
X111200000Y-100250000D03*
%TO.P,U2,7,VCC_7*%
%TO.N,+3.3V*%
X111200000Y-99750000D03*
%TO.P,U2,8,TXD_8*%
%TO.N,/MCU/USART1_TX*%
X111200000Y-99250000D03*
%TO.P,U2,9,RXD_9*%
%TO.N,/MCU/USART1_RX*%
X111200000Y-98750000D03*
%TO.P,U2,10,V3_10*%
%TO.N,+3.3V*%
X111200000Y-98250000D03*
%TD*%
D28*
%TO.P,C10,1*%
%TO.N,SYS_5V*%
X121362500Y-95500000D03*
%TO.P,C10,2*%
%TO.N,GND*%
X119637500Y-95500000D03*
%TD*%
D22*
%TO.P,D7,1,K_1*%
%TO.N,GND*%
X167600000Y-119000000D03*
%TO.P,D7,2,A_2*%
%TO.N,Net-(D7-A)*%
X165850000Y-119000000D03*
%TD*%
D73*
%TO.N,/CAN/CAN_TX*%
X149590380Y-102740380D03*
X153750000Y-102750000D03*
%TO.N,GND*%
X94300000Y-89950000D03*
X99250000Y-89000000D03*
X110250000Y-105000000D03*
X133250000Y-111250000D03*
X134750000Y-110000000D03*
X122250000Y-86500000D03*
X112500000Y-115750000D03*
X109500000Y-102250000D03*
X94200000Y-95050000D03*
X146492464Y-107139387D03*
X117062500Y-91500000D03*
X117500000Y-105000000D03*
X182250000Y-94000000D03*
X147750000Y-105250000D03*
X120750000Y-102000000D03*
X180000000Y-70000000D03*
X111250000Y-105000000D03*
X100250000Y-97250000D03*
X145750000Y-98250000D03*
X133750000Y-108000000D03*
X104307500Y-87000000D03*
X134000000Y-112000000D03*
X110500000Y-103500000D03*
X138469760Y-96500000D03*
X114900000Y-135900000D03*
X114000000Y-108750000D03*
X124355100Y-86500000D03*
X130199997Y-105250000D03*
X110500000Y-102250000D03*
X111250000Y-94500000D03*
X146250000Y-109475000D03*
X111000000Y-109500000D03*
X117600000Y-106739264D03*
X147250000Y-96000000D03*
X129500000Y-93000000D03*
X101000000Y-102250000D03*
X124200000Y-90160000D03*
X94000000Y-97750000D03*
X94025000Y-92475000D03*
X124200000Y-91400000D03*
X145750000Y-92250000D03*
X116500000Y-137500000D03*
X143750000Y-90250000D03*
X129500000Y-96750000D03*
X138000000Y-90500000D03*
X138250000Y-108000000D03*
X104250000Y-98250000D03*
X112000000Y-92750000D03*
X137250000Y-105250000D03*
X140750000Y-101750000D03*
X93800000Y-93750000D03*
X115000000Y-109750000D03*
X113000000Y-109750000D03*
X178250000Y-94500000D03*
X115000000Y-108750000D03*
X130500000Y-88500000D03*
X117750000Y-81250000D03*
X126600000Y-91400000D03*
X111500000Y-102250000D03*
X117500000Y-105750000D03*
X98750000Y-98750000D03*
X101750000Y-98250000D03*
X93800000Y-91500000D03*
X116251400Y-99750000D03*
X107000000Y-95250000D03*
X105750000Y-99250000D03*
X112000000Y-109750000D03*
X114000000Y-109750000D03*
X124000000Y-105750000D03*
X117750000Y-138750000D03*
X110250000Y-109000000D03*
X119250000Y-96750000D03*
X125360000Y-90200000D03*
X113278750Y-82971250D03*
X93800000Y-89000000D03*
X125400000Y-91400000D03*
X105750000Y-78500000D03*
X112250000Y-105000000D03*
X123250000Y-86500000D03*
X93800000Y-96500000D03*
X120750000Y-115750000D03*
X121900000Y-108450000D03*
X99750000Y-98750000D03*
X141750000Y-98000000D03*
X126600000Y-90200000D03*
%TO.N,SYS_5V*%
X125700000Y-102000000D03*
X120700000Y-87250000D03*
X113646050Y-82103950D03*
X121150000Y-100650000D03*
X114250000Y-82750000D03*
%TO.N,/CAN/CAN_RX*%
X157750000Y-104750000D03*
X150500000Y-103750000D03*
%TO.N,+3.3V*%
X121500000Y-120250000D03*
X162000000Y-94750000D03*
X139500000Y-92750000D03*
X102750000Y-79862500D03*
X147003835Y-107754613D03*
X145250000Y-120250000D03*
X135000000Y-96250000D03*
X183500000Y-102000000D03*
X129387500Y-89000000D03*
X130125000Y-89875000D03*
X174000000Y-70250000D03*
X174250000Y-94250000D03*
X184000000Y-90000000D03*
X131000000Y-105250000D03*
X111500000Y-97500000D03*
X138250000Y-104000000D03*
X133500000Y-120250000D03*
X129387500Y-88000000D03*
X180750000Y-120250000D03*
X149000000Y-89250000D03*
X168750000Y-120250000D03*
X157000000Y-120250000D03*
X156925000Y-94500000D03*
%TO.N,/MCU/NRST*%
X143500000Y-100000000D03*
X145500000Y-91250000D03*
X176500000Y-91250000D03*
X143500000Y-94500000D03*
%TO.N,/PowerAndUSB/D-*%
X101250000Y-88500000D03*
X101750000Y-94750000D03*
X100500000Y-94500000D03*
X106000000Y-94750000D03*
%TO.N,BOOT0*%
X144500000Y-91000000D03*
X176500000Y-90250000D03*
%TO.N,/MCU/GPIO_2*%
X125500000Y-115750000D03*
X139750000Y-115750000D03*
%TO.N,VIN*%
X108250000Y-110425000D03*
X109500000Y-110425000D03*
%TO.N,/PowerAndUSB/VIN_5V*%
X127502983Y-97508949D03*
X123200000Y-98250000D03*
X115250000Y-98250000D03*
X125500000Y-104000000D03*
X126750000Y-104250000D03*
X117750000Y-104000000D03*
X115250000Y-104000000D03*
%TO.N,Net-(U4-PR1)*%
X124749694Y-97513128D03*
X120833273Y-97285355D03*
%TO.N,/PowerAndUSB/USB_5V*%
X107500000Y-92000000D03*
X117200000Y-97500000D03*
X112750000Y-92000000D03*
X123250000Y-96750000D03*
%TO.N,Net-(U4-ST)*%
X127250000Y-96750000D03*
X118750000Y-94250000D03*
X124768329Y-96713343D03*
%TO.N,Net-(J5-Pin_4)*%
X139750000Y-84750000D03*
X154000000Y-85000000D03*
%TO.N,/MCU/PA13-JTMS-SWDIO*%
X151250000Y-98250000D03*
X148607771Y-98465542D03*
%TO.N,+BATT*%
X171175000Y-132325000D03*
X135925000Y-130575000D03*
X124175000Y-128825000D03*
X124175000Y-130325000D03*
X171175000Y-130575000D03*
X171175000Y-134075000D03*
X188500000Y-98500000D03*
X147675000Y-129075000D03*
X147675000Y-132325000D03*
X105750000Y-135500000D03*
X188250000Y-110750000D03*
X159425000Y-134075000D03*
X124175000Y-132075000D03*
X159425000Y-130575000D03*
X135925000Y-129075000D03*
X171175000Y-129075000D03*
X159425000Y-129075000D03*
X124175000Y-133825000D03*
X181500000Y-130750000D03*
X112250000Y-132250000D03*
X181500000Y-129500000D03*
X188250000Y-109500000D03*
X112250000Y-130500000D03*
X159425000Y-132325000D03*
X188500000Y-100000000D03*
X112250000Y-129000000D03*
X112250000Y-134000000D03*
X135925000Y-132325000D03*
X147675000Y-130575000D03*
X135925000Y-134075000D03*
X147675000Y-134075000D03*
%TO.N,/MCU/GPIO_LM_4*%
X135000000Y-77000000D03*
X148500000Y-100750000D03*
%TO.N,/MCU/GPIO_LM_2*%
X130750000Y-77750000D03*
X148500000Y-101750000D03*
%TO.N,/MCU/GPIO_6*%
X170750000Y-116250000D03*
X144000000Y-116250000D03*
%TO.N,/PowerAndUSB/D+*%
X100500000Y-95500000D03*
X106750000Y-96500000D03*
X103250000Y-95500000D03*
%TO.N,/MCU/GPIO_4*%
X147500000Y-117750000D03*
X141662500Y-116750000D03*
%TO.N,/MCU/GPIO_LM_5*%
X144500000Y-100000000D03*
X140000000Y-77750000D03*
%TO.N,Net-(F2-Pad1)*%
X97500000Y-93750000D03*
X97500000Y-101000000D03*
%TO.N,/PowerAndUSB/VOTGID*%
X98250000Y-99500000D03*
X100500000Y-99500000D03*
%TO.N,/MCU/PA14-JTCK-SWCLK*%
X146000000Y-94500000D03*
X151250000Y-94000000D03*
%TO.N,Net-(J5-Pin_2)*%
X152000000Y-86000000D03*
%TO.N,/MCU/GPIO_1*%
X124500000Y-115000000D03*
X139250000Y-115000000D03*
%TO.N,Net-(U1-EN)*%
X118800000Y-110600000D03*
X121200000Y-110600000D03*
%TO.N,/MCU/GPIO_7*%
X144750000Y-115500000D03*
X183250000Y-115750000D03*
%TO.N,/MCU/GPIO_LM_7*%
X154250000Y-99250000D03*
X145750000Y-99250000D03*
%TO.N,/MCU/GPIO_LM_6*%
X152250000Y-99750000D03*
X149100000Y-100220851D03*
%TO.N,Net-(U7-PA15(JTDI))*%
X145750000Y-93250000D03*
X168250000Y-93250000D03*
%TO.N,/MCU/USART1_RX*%
X136927300Y-102500000D03*
X114500000Y-102500000D03*
%TO.N,/MCU/USART1_TX*%
X113750000Y-102000000D03*
X136927300Y-103500000D03*
%TO.N,/MCU/GPIO_3*%
X137250000Y-116350000D03*
X140400000Y-116350000D03*
%TO.N,/MCU/GPIO_5*%
X160000000Y-117750000D03*
X142750000Y-116750000D03*
%TO.N,/MCU/GPIO_8*%
X179500000Y-114500000D03*
X145750000Y-114900000D03*
%TO.N,/MCU/GPIO_9*%
X146500000Y-114250000D03*
X178750000Y-114000000D03*
%TO.N,/MCU/GPIO_LM_1*%
X130250000Y-101500000D03*
X127250000Y-78500000D03*
X128750000Y-91250000D03*
X145500000Y-102250000D03*
%TO.N,/MCU/GPIO_LM_3*%
X131500000Y-77000000D03*
X145250000Y-101000000D03*
%TO.N,/PowerAndUSB/VIN+*%
X99750000Y-104000000D03*
X101250000Y-104000000D03*
X99750000Y-106750000D03*
%TD*%
%TO.N,Net-(D11-A)*%
D74*
X117025000Y-119050000D02*
X119150000Y-119050000D01*
%TO.N,Net-(GPIO1-Pin_1)*%
X111500000Y-119075000D02*
X111500000Y-122250000D01*
X115200000Y-121550000D02*
X114250000Y-122500000D01*
X111500000Y-122250000D02*
X111750000Y-122500000D01*
X115200000Y-119050000D02*
X115200000Y-121550000D01*
X112000000Y-122750000D02*
X113425000Y-124175000D01*
X111750000Y-122500000D02*
X112000000Y-122750000D01*
X114250000Y-122500000D02*
X111750000Y-122500000D01*
%TO.N,/CAN/CAN_TX*%
X147095000Y-80345000D02*
X149750000Y-83000000D01*
X153750000Y-102750000D02*
X155000000Y-102750000D01*
D75*
X116828750Y-83671250D02*
X116845000Y-83655000D01*
D74*
X156210000Y-101540000D02*
X156210000Y-100250000D01*
X147075000Y-102750000D02*
X148500000Y-102750000D01*
X149750000Y-83000000D02*
X149750000Y-101750000D01*
D75*
X111118900Y-83655000D02*
X111135150Y-83671250D01*
D74*
X148500000Y-102750000D02*
X148750000Y-102750000D01*
X116845000Y-83655000D02*
X120155000Y-80345000D01*
X148750000Y-102750000D02*
X149580760Y-102750000D01*
X149580760Y-102750000D02*
X149590380Y-102740380D01*
X155000000Y-102750000D02*
X156210000Y-101540000D01*
D75*
X111135150Y-83671250D02*
X116828750Y-83671250D01*
D74*
X120155000Y-80345000D02*
X147095000Y-80345000D01*
X149750000Y-101750000D02*
X148750000Y-102750000D01*
%TO.N,GND*%
D76*
X135357000Y-107002600D02*
X135357000Y-108418000D01*
X100250000Y-97250000D02*
X100250000Y-96250000D01*
D77*
X123250000Y-86500000D02*
X122250000Y-86500000D01*
D76*
X134750000Y-110000000D02*
X134750000Y-109025000D01*
D75*
X183591600Y-91175000D02*
X186000000Y-93583400D01*
D74*
X107500000Y-95750000D02*
X107000000Y-95250000D01*
D78*
X114900000Y-135900000D02*
X116500000Y-137500000D01*
D75*
X183750000Y-103150000D02*
X185900000Y-105300000D01*
X104307500Y-78137500D02*
X105387500Y-78137500D01*
X120900000Y-119050000D02*
X118200000Y-121750000D01*
D74*
X111000000Y-93750000D02*
X111250000Y-94000000D01*
D79*
X119637500Y-95500000D02*
X119637500Y-96362500D01*
D75*
X130100000Y-124100000D02*
X130100000Y-121900000D01*
D80*
X94450000Y-92900000D02*
X96000000Y-92900000D01*
D74*
X111250000Y-94000000D02*
X111250000Y-94500000D01*
X108275000Y-95750000D02*
X107500000Y-95750000D01*
D77*
X120212500Y-115212500D02*
X120750000Y-115750000D01*
D80*
X94025000Y-92475000D02*
X93800000Y-92250000D01*
D79*
X130500000Y-87612500D02*
X131112500Y-87000000D01*
X98550000Y-91000000D02*
X98550000Y-89700000D01*
D80*
X94300000Y-89950000D02*
X93800000Y-89450000D01*
D75*
X180000000Y-66750000D02*
X180000000Y-70000000D01*
D79*
X119637500Y-96362500D02*
X119250000Y-96750000D01*
D75*
X111118900Y-82385000D02*
X112692500Y-82385000D01*
X189150000Y-123900000D02*
X189150000Y-120975000D01*
D77*
X111637500Y-103500000D02*
X110500000Y-103500000D01*
D80*
X101750000Y-101750000D02*
X101750000Y-101060000D01*
D75*
X117500000Y-106639264D02*
X117600000Y-106739264D01*
D80*
X96000000Y-98100000D02*
X94350000Y-98100000D01*
X115002401Y-108752401D02*
X116060000Y-108752401D01*
D75*
X186000000Y-93583400D02*
X182666600Y-93583400D01*
X180700000Y-103150000D02*
X183750000Y-103150000D01*
D80*
X94000000Y-97750000D02*
X93800000Y-97550000D01*
D75*
X105387500Y-78137500D02*
X105750000Y-78500000D01*
X177250000Y-124050000D02*
X177250000Y-121150000D01*
D80*
X93800000Y-93750000D02*
X93800000Y-94650000D01*
D74*
X130500000Y-93500000D02*
X130000000Y-93500000D01*
D78*
X117750000Y-138750000D02*
X118250000Y-139250000D01*
D75*
X141900000Y-121350000D02*
X141900000Y-124050000D01*
D78*
X114900000Y-135900000D02*
X112750000Y-135900000D01*
D75*
X120700000Y-119050000D02*
X120900000Y-119050000D01*
D74*
X145750000Y-98250000D02*
X147075000Y-98250000D01*
D80*
X93800000Y-92250000D02*
X93800000Y-91500000D01*
D78*
X116500000Y-137500000D02*
X117750000Y-138750000D01*
D80*
X94450000Y-95300000D02*
X94200000Y-95050000D01*
D79*
X124670000Y-101330000D02*
X124000000Y-102000000D01*
D74*
X140250000Y-101250000D02*
X140750000Y-101750000D01*
D76*
X133750000Y-107000000D02*
X133750000Y-108000000D01*
D80*
X117501400Y-99750000D02*
X116251400Y-99750000D01*
D75*
X180650000Y-91175000D02*
X183591600Y-91175000D01*
D80*
X146887500Y-92250000D02*
X145750000Y-92250000D01*
X104550000Y-97280000D02*
X104550000Y-97950000D01*
D74*
X130000000Y-93500000D02*
X129500000Y-93000000D01*
D77*
X120212500Y-114250000D02*
X120212500Y-115212500D01*
D79*
X124000000Y-102000000D02*
X120750000Y-102000000D01*
D75*
X179000000Y-65750000D02*
X180000000Y-66750000D01*
D80*
X149109880Y-105640120D02*
X148140120Y-105640120D01*
D76*
X123550000Y-105300000D02*
X124000000Y-105750000D01*
D79*
X98550000Y-89700000D02*
X99250000Y-89000000D01*
D75*
X182666600Y-93583400D02*
X182250000Y-94000000D01*
D74*
X146500000Y-107131851D02*
X146500000Y-107106738D01*
X141250000Y-98000000D02*
X140662500Y-97412500D01*
D75*
X147280240Y-95969760D02*
X147280240Y-94780240D01*
D74*
X110162500Y-93750000D02*
X111000000Y-93750000D01*
D80*
X98750000Y-98750000D02*
X99750000Y-98750000D01*
X94025000Y-92475000D02*
X94450000Y-92900000D01*
X96000000Y-90100000D02*
X94450000Y-90100000D01*
X121900000Y-108850000D02*
X121897700Y-108852300D01*
D77*
X113037500Y-114000000D02*
X113037500Y-115212500D01*
D75*
X104307500Y-85750000D02*
X104307500Y-87000000D01*
D80*
X143112500Y-90637500D02*
X143112500Y-91500000D01*
D75*
X177250000Y-121150000D02*
X179450000Y-118950000D01*
D80*
X93800000Y-97550000D02*
X93800000Y-96500000D01*
D74*
X138250000Y-106975002D02*
X138250000Y-108000000D01*
D75*
X144012500Y-119000000D02*
X144012500Y-119237500D01*
D76*
X129750000Y-105250000D02*
X129274998Y-104774998D01*
D74*
X145162500Y-105769238D02*
X145162500Y-104662500D01*
X129887500Y-97137500D02*
X129500000Y-96750000D01*
D80*
X148140120Y-105640120D02*
X147750000Y-105250000D01*
X94450000Y-90100000D02*
X94300000Y-89950000D01*
D75*
X118200000Y-121750000D02*
X118200000Y-124050000D01*
D80*
X138025000Y-91500000D02*
X138025000Y-90525000D01*
D75*
X117062500Y-91500000D02*
X117062500Y-90000000D01*
D80*
X93800000Y-89450000D02*
X93800000Y-89000000D01*
D75*
X113278750Y-82971250D02*
X113307500Y-83000000D01*
D77*
X110975000Y-106750000D02*
X110975000Y-108225000D01*
D80*
X143500000Y-90250000D02*
X143112500Y-90637500D01*
D76*
X130199997Y-105250000D02*
X129750000Y-105250000D01*
D75*
X130100000Y-121900000D02*
X132650000Y-119350000D01*
D80*
X121900000Y-108450000D02*
X121900000Y-108850000D01*
X94350000Y-98100000D02*
X94000000Y-97750000D01*
D74*
X138750000Y-101250000D02*
X140250000Y-101250000D01*
D76*
X124670000Y-100800000D02*
X124670000Y-101330000D01*
D77*
X124710000Y-88064400D02*
X124710000Y-86854900D01*
D75*
X153650000Y-124050000D02*
X153650000Y-121100000D01*
X111562500Y-90000000D02*
X111562500Y-92312500D01*
X146250000Y-109475000D02*
X145250000Y-109475000D01*
X117500000Y-105000000D02*
X117500000Y-106639264D01*
D76*
X129274998Y-104774998D02*
X129274998Y-104250000D01*
D75*
X189150000Y-120975000D02*
X191175000Y-118950000D01*
D76*
X178250000Y-93250000D02*
X178250000Y-94500000D01*
X118310736Y-107450000D02*
X118758000Y-107450000D01*
D80*
X96000000Y-95300000D02*
X94450000Y-95300000D01*
D74*
X141750000Y-98000000D02*
X141250000Y-98000000D01*
D79*
X116475000Y-81250000D02*
X117750000Y-81250000D01*
D80*
X101000000Y-102250000D02*
X101250000Y-102250000D01*
D76*
X134750000Y-109025000D02*
X134775000Y-109000000D01*
D80*
X104550000Y-97950000D02*
X104250000Y-98250000D01*
D77*
X113037500Y-115212500D02*
X112500000Y-115750000D01*
X124710000Y-86854900D02*
X124355100Y-86500000D01*
D76*
X136500000Y-105250000D02*
X137250000Y-105250000D01*
D75*
X153650000Y-121100000D02*
X155750000Y-119000000D01*
D80*
X121897700Y-108852300D02*
X121897700Y-109650000D01*
D75*
X165450000Y-124050000D02*
X165450000Y-121150000D01*
D80*
X101750000Y-97310000D02*
X101750000Y-98250000D01*
D76*
X117600000Y-106739264D02*
X118310736Y-107450000D01*
D74*
X146492464Y-107139387D02*
X146500000Y-107131851D01*
D80*
X98550000Y-98550000D02*
X98550000Y-97200000D01*
D77*
X110975000Y-108225000D02*
X111000000Y-108250000D01*
D74*
X137609880Y-95640120D02*
X138469760Y-96500000D01*
D81*
X107000000Y-99250000D02*
X105750000Y-99250000D01*
D76*
X135357000Y-108418000D02*
X134775000Y-109000000D01*
D74*
X140662500Y-97412500D02*
X140662500Y-96337500D01*
D75*
X147250000Y-96000000D02*
X147280240Y-95969760D01*
X112692500Y-82385000D02*
X113278750Y-82971250D01*
X132650000Y-119350000D02*
X132650000Y-119000000D01*
D74*
X146500000Y-107106738D02*
X145162500Y-105769238D01*
D76*
X99400000Y-95400000D02*
X100250000Y-96250000D01*
D77*
X124355100Y-86500000D02*
X123250000Y-86500000D01*
D74*
X138469760Y-96500000D02*
X138500000Y-96500000D01*
D80*
X115000000Y-108750000D02*
X115002401Y-108752401D01*
D76*
X122662500Y-105300000D02*
X123550000Y-105300000D01*
D80*
X98550000Y-98550000D02*
X98750000Y-98750000D01*
D75*
X111562500Y-92312500D02*
X112000000Y-92750000D01*
D80*
X101250000Y-102250000D02*
X101750000Y-101750000D01*
X93800000Y-94650000D02*
X94200000Y-95050000D01*
D74*
X130500000Y-97137500D02*
X129887500Y-97137500D01*
D80*
X143750000Y-90250000D02*
X143500000Y-90250000D01*
D75*
X144012500Y-119237500D02*
X141900000Y-121350000D01*
D79*
X130500000Y-88500000D02*
X130500000Y-87612500D01*
D75*
X165450000Y-121150000D02*
X167600000Y-119000000D01*
D80*
X138025000Y-90525000D02*
X138000000Y-90500000D01*
D76*
X98675000Y-95400000D02*
X99400000Y-95400000D01*
%TO.N,SYS_5V*%
D80*
X125700000Y-102000000D02*
X125700000Y-100865686D01*
X125700000Y-100865686D02*
X125542893Y-100708579D01*
D79*
X112657100Y-81115000D02*
X113646050Y-82103950D01*
X120700000Y-94837500D02*
X121362500Y-95500000D01*
X125690000Y-95810000D02*
X123440000Y-95810000D01*
D74*
X124670000Y-100300000D02*
X125134314Y-100300000D01*
D80*
X121150000Y-98100000D02*
X121150000Y-100650000D01*
X122250000Y-97000000D02*
X121150000Y-98100000D01*
X123440000Y-93500000D02*
X123440000Y-95810000D01*
D79*
X127250000Y-94250000D02*
X125690000Y-95810000D01*
X114250000Y-82707900D02*
X114250000Y-82750000D01*
D80*
X121800000Y-100300000D02*
X121150000Y-99650000D01*
D79*
X114250000Y-82750000D02*
X114250000Y-82921250D01*
D80*
X125700000Y-102000000D02*
X125650000Y-102000000D01*
D79*
X112792100Y-81250000D02*
X114750000Y-81250000D01*
X114615000Y-81115000D02*
X114750000Y-81250000D01*
X112657100Y-81115000D02*
X112792100Y-81250000D01*
X113646050Y-82103950D02*
X114250000Y-82707900D01*
X127250000Y-93500000D02*
X127250000Y-94250000D01*
D80*
X123440000Y-95810000D02*
X123130000Y-95500000D01*
D74*
X125134314Y-100300000D02*
X125450000Y-100615686D01*
D80*
X121150000Y-99650000D02*
X121150000Y-98900000D01*
X122550000Y-100300000D02*
X121800000Y-100300000D01*
D74*
X121150000Y-98900000D02*
X121150000Y-98100000D01*
D79*
X120700000Y-87250000D02*
X120700000Y-94837500D01*
D80*
X122250000Y-95500000D02*
X122250000Y-97000000D01*
X123130000Y-95500000D02*
X122250000Y-95500000D01*
D79*
X111118900Y-81115000D02*
X112657100Y-81115000D01*
D74*
X123200000Y-100300000D02*
X122550000Y-100300000D01*
D79*
X122250000Y-95500000D02*
X121362500Y-95500000D01*
%TO.N,/CAN/CAN_RX*%
D74*
X147345000Y-79845000D02*
X150250000Y-82750000D01*
X161460000Y-102790000D02*
X161460000Y-100250000D01*
X157750000Y-104750000D02*
X159500000Y-104750000D01*
X159500000Y-104750000D02*
X161460000Y-102790000D01*
X147345000Y-79845000D02*
X111118900Y-79845000D01*
X150250000Y-103000000D02*
X149500000Y-103750000D01*
X150250000Y-82750000D02*
X150250000Y-103000000D01*
X148500000Y-103750000D02*
X148000000Y-103250000D01*
X149250000Y-103750000D02*
X148500000Y-103750000D01*
X149500000Y-103750000D02*
X149250000Y-103750000D01*
X150500000Y-103750000D02*
X149250000Y-103750000D01*
X148000000Y-103250000D02*
X147075000Y-103250000D01*
%TO.N,+3.3V*%
X121500000Y-128250000D02*
X120750000Y-129000000D01*
X147000000Y-107750000D02*
X147890120Y-106859880D01*
D80*
X147890120Y-106859880D02*
X146748990Y-105718750D01*
X131000000Y-104250000D02*
X131000000Y-105250000D01*
D74*
X143750000Y-129000000D02*
X140700000Y-129000000D01*
D75*
X191100000Y-103100000D02*
X191100000Y-106500000D01*
D79*
X127500000Y-87000000D02*
X129387500Y-87000000D01*
D75*
X181127208Y-131650000D02*
X186850000Y-131650000D01*
D80*
X111500000Y-96250000D02*
X111500000Y-97500000D01*
D81*
X110250000Y-99750000D02*
X109750000Y-99250000D01*
D80*
X111500000Y-96250000D02*
X109750000Y-98000000D01*
D74*
X133500000Y-128000000D02*
X133500000Y-120250000D01*
X138750000Y-97750000D02*
X137280240Y-97750000D01*
X149250000Y-92887500D02*
X149250000Y-95250000D01*
X138250000Y-105234380D02*
X138250000Y-105250000D01*
D75*
X184000000Y-90000000D02*
X189250000Y-90000000D01*
D79*
X127250000Y-87250000D02*
X127500000Y-87000000D01*
D74*
X147000000Y-107750778D02*
X147000000Y-107750000D01*
X140162500Y-91912500D02*
X139750000Y-91500000D01*
D79*
X125980000Y-87270000D02*
X126250000Y-87000000D01*
D74*
X145662500Y-105412500D02*
X146000000Y-105750000D01*
X135780240Y-96250000D02*
X136390120Y-96859880D01*
X140000000Y-102159380D02*
X139590620Y-101750000D01*
D75*
X174000000Y-66750000D02*
X174000000Y-70250000D01*
X180750000Y-128250000D02*
X180750000Y-120250000D01*
D74*
X139590620Y-101750000D02*
X138750000Y-101750000D01*
D81*
X111200000Y-98250000D02*
X112750000Y-98250000D01*
D74*
X156150000Y-128850000D02*
X152450000Y-128850000D01*
X147003835Y-107754613D02*
X147000000Y-107750778D01*
D75*
X168050000Y-128950000D02*
X168750000Y-128250000D01*
D74*
X140000000Y-102159380D02*
X140000000Y-103500000D01*
D75*
X106478600Y-79862500D02*
X106496100Y-79845000D01*
D80*
X110000000Y-95750000D02*
X111000000Y-95750000D01*
D75*
X179950000Y-129050000D02*
X180750000Y-128250000D01*
X189250000Y-90000000D02*
X190950000Y-91700000D01*
D74*
X139984380Y-103500000D02*
X138250000Y-105234380D01*
X128900000Y-128900000D02*
X132600000Y-128900000D01*
D75*
X174250000Y-95500000D02*
X174200000Y-95550000D01*
X104307500Y-79862500D02*
X106478600Y-79862500D01*
D80*
X111000000Y-95750000D02*
X111500000Y-96250000D01*
D75*
X175000000Y-65750000D02*
X174000000Y-66750000D01*
X190000000Y-102000000D02*
X191100000Y-103100000D01*
D80*
X109750000Y-98000000D02*
X109750000Y-99250000D01*
D81*
X112000000Y-97500000D02*
X111500000Y-97500000D01*
D79*
X129387500Y-89137500D02*
X130125000Y-89875000D01*
D74*
X138250000Y-104000000D02*
X138250000Y-105250000D01*
D80*
X146748990Y-105718750D02*
X146031250Y-105718750D01*
D74*
X140162500Y-96337500D02*
X140162500Y-91912500D01*
X139500000Y-92750000D02*
X139500000Y-91750000D01*
D79*
X125980000Y-88064400D02*
X125980000Y-87270000D01*
D74*
X145250000Y-127500000D02*
X143750000Y-129000000D01*
D80*
X148500000Y-97500000D02*
X148250000Y-97750000D01*
D74*
X148612500Y-92250000D02*
X149250000Y-92887500D01*
D75*
X176050000Y-129050000D02*
X178000000Y-129050000D01*
D74*
X140000000Y-103500000D02*
X139984380Y-103500000D01*
X135000000Y-96250000D02*
X135780240Y-96250000D01*
D80*
X148500000Y-96000000D02*
X148500000Y-97500000D01*
D74*
X132600000Y-128900000D02*
X133500000Y-128000000D01*
D75*
X164250000Y-128950000D02*
X168050000Y-128950000D01*
D74*
X157000000Y-128000000D02*
X156150000Y-128850000D01*
D79*
X129387500Y-88000000D02*
X129387500Y-89000000D01*
D74*
X121500000Y-120250000D02*
X121500000Y-128250000D01*
X137280240Y-97750000D02*
X136390120Y-96859880D01*
X157000000Y-120250000D02*
X157000000Y-128000000D01*
D75*
X103921100Y-79862500D02*
X103938600Y-79845000D01*
D79*
X127250000Y-88064400D02*
X127250000Y-87250000D01*
D75*
X156925000Y-94500000D02*
X156925000Y-95650000D01*
D74*
X145250000Y-120250000D02*
X145250000Y-127500000D01*
X139500000Y-91750000D02*
X139750000Y-91500000D01*
D79*
X129387500Y-89000000D02*
X129387500Y-89137500D01*
D75*
X179950000Y-130472792D02*
X181127208Y-131650000D01*
D79*
X129387500Y-87000000D02*
X129387500Y-88000000D01*
D75*
X183500000Y-102000000D02*
X190000000Y-102000000D01*
D81*
X111200000Y-99750000D02*
X110250000Y-99750000D01*
D79*
X126250000Y-87000000D02*
X127500000Y-87000000D01*
D75*
X179950000Y-129050000D02*
X179950000Y-130472792D01*
X190950000Y-91700000D02*
X190950000Y-94800000D01*
D74*
X120750000Y-129000000D02*
X117000000Y-129000000D01*
D81*
X112750000Y-98250000D02*
X112000000Y-97500000D01*
D74*
X148612500Y-92250000D02*
X148612500Y-89637500D01*
X147075000Y-97750000D02*
X148250000Y-97750000D01*
D75*
X168750000Y-128250000D02*
X168750000Y-120250000D01*
X187950000Y-130550000D02*
X187950000Y-128750000D01*
D74*
X148612500Y-89637500D02*
X149000000Y-89250000D01*
D75*
X174250000Y-94250000D02*
X174250000Y-95500000D01*
X161975000Y-94775000D02*
X161975000Y-95650000D01*
D74*
X149250000Y-95250000D02*
X148500000Y-96000000D01*
D75*
X186850000Y-131650000D02*
X187950000Y-130550000D01*
X178000000Y-129050000D02*
X179950000Y-129050000D01*
X162000000Y-94750000D02*
X161975000Y-94775000D01*
X102750000Y-79862500D02*
X103921100Y-79862500D01*
%TO.N,Net-(J6-Pin_2)*%
X106496100Y-81115000D02*
X99365000Y-81115000D01*
X99365000Y-81115000D02*
X98000000Y-79750000D01*
X98000000Y-79750000D02*
X98000000Y-77250000D01*
X99500000Y-75750000D02*
X101732500Y-75750000D01*
X98000000Y-77250000D02*
X99500000Y-75750000D01*
%TO.N,Net-(J4-Pin_1)*%
X98000000Y-84750000D02*
X100365000Y-82385000D01*
D74*
X107080300Y-82385000D02*
X106496100Y-82385000D01*
D75*
X100365000Y-82385000D02*
X106496100Y-82385000D01*
D74*
X108865000Y-82385000D02*
X109557500Y-81692500D01*
X106496100Y-82385000D02*
X108865000Y-82385000D01*
X109557500Y-81692500D02*
X109557500Y-75750000D01*
%TO.N,Net-(U6-STBY)*%
D75*
X106496100Y-83655000D02*
X104402500Y-83655000D01*
X104402500Y-83655000D02*
X104307500Y-83750000D01*
%TO.N,/MCU/NRST*%
X186060000Y-85080000D02*
X186060000Y-74920000D01*
D74*
X145500000Y-90250000D02*
X144500000Y-89250000D01*
X145500000Y-91250000D02*
X145500000Y-90250000D01*
D75*
X186060000Y-85080000D02*
X184857919Y-85080000D01*
D74*
X143500000Y-100000000D02*
X142750000Y-100750000D01*
X176500000Y-91250000D02*
X176500000Y-93225000D01*
X176500000Y-93225000D02*
X176525000Y-93250000D01*
X144500000Y-89250000D02*
X138420000Y-89250000D01*
X145000000Y-93000000D02*
X143500000Y-94500000D01*
X138420000Y-89250000D02*
X136670000Y-87500000D01*
D75*
X178687919Y-91250000D02*
X176500000Y-91250000D01*
D74*
X142750000Y-100750000D02*
X138750000Y-100750000D01*
D75*
X184857919Y-85080000D02*
X178687919Y-91250000D01*
D74*
X145000000Y-91750000D02*
X145000000Y-93000000D01*
X145500000Y-91250000D02*
X145000000Y-91750000D01*
%TO.N,/PowerAndUSB/D-*%
X101250000Y-88500000D02*
X104000000Y-88500000D01*
X106199568Y-98750000D02*
X107000000Y-98750000D01*
X101750000Y-94750000D02*
X101750000Y-95750000D01*
X99450000Y-93450000D02*
X98350000Y-93450000D01*
X105950000Y-94800000D02*
X105950000Y-98500432D01*
X106000000Y-94750000D02*
X105950000Y-94800000D01*
X98350000Y-93450000D02*
X98400000Y-93500000D01*
X100500000Y-94500000D02*
X99450000Y-93450000D01*
X105950000Y-98500432D02*
X106199568Y-98750000D01*
%TO.N,Net-(SW3-B)*%
D75*
X177000000Y-70000000D02*
X177000000Y-65750000D01*
X176000000Y-71000000D02*
X177000000Y-70000000D01*
X175895000Y-71000000D02*
X176000000Y-71000000D01*
%TO.N,BOOT0*%
D74*
X177000000Y-90250000D02*
X177720000Y-89530000D01*
X176500000Y-90250000D02*
X177000000Y-90250000D01*
X177720000Y-71000000D02*
X177720000Y-89530000D01*
X144500000Y-91000000D02*
X144500000Y-92580761D01*
X142162500Y-94918261D02*
X142162500Y-96337500D01*
X144500000Y-92580761D02*
X142162500Y-94918261D01*
%TO.N,Net-(D14-A)*%
X158750000Y-95650000D02*
X158750000Y-100250000D01*
%TO.N,Net-(GPIO3-Pin_1)*%
X138000000Y-121500000D02*
X138625000Y-120875000D01*
X135000000Y-122337500D02*
X135837500Y-121500000D01*
X138625000Y-120875000D02*
X138625000Y-119000000D01*
X135000000Y-119162500D02*
X135000000Y-122337500D01*
X135000000Y-122337500D02*
X136925000Y-124262500D01*
X135837500Y-121500000D02*
X138000000Y-121500000D01*
%TO.N,Net-(GPIO3-Pin_2)*%
D82*
X139400000Y-124050000D02*
X139400000Y-127050000D01*
D77*
X139400000Y-129000000D02*
X139400000Y-127500000D01*
%TO.N,/MCU/GPIO_2*%
D76*
X139750000Y-115750000D02*
X140662500Y-114837500D01*
X125250000Y-115750000D02*
X125500000Y-115750000D01*
X125000000Y-116000000D02*
X125250000Y-115750000D01*
X140662500Y-114837500D02*
X140662500Y-104662500D01*
X125000000Y-119000000D02*
X125000000Y-116000000D01*
%TO.N,Net-(GPIO2-Pin_1)*%
D74*
X123250000Y-119075000D02*
X123250000Y-122250000D01*
X126250000Y-121412500D02*
X127062500Y-120600000D01*
X127062500Y-120600000D02*
X127062500Y-119000000D01*
X124087500Y-121412500D02*
X126250000Y-121412500D01*
X123250000Y-122250000D02*
X125175000Y-124175000D01*
X123250000Y-122250000D02*
X124087500Y-121412500D01*
%TO.N,VIN*%
D77*
X115000000Y-111781250D02*
X117218750Y-111781250D01*
X117750000Y-111781250D02*
X120071050Y-111781250D01*
X107750000Y-110425000D02*
X108250000Y-110425000D01*
X108200000Y-108799300D02*
X108149300Y-108850000D01*
D76*
X117754000Y-111777250D02*
X117750000Y-111781250D01*
X117754000Y-109454000D02*
X117754000Y-111777250D01*
D77*
X109500000Y-110425000D02*
X110856250Y-111781250D01*
X104978500Y-110425000D02*
X105750000Y-110425000D01*
X118487500Y-113050000D02*
X118487500Y-114250000D01*
X110856250Y-111781250D02*
X115000000Y-111781250D01*
X116162500Y-112943750D02*
X115000000Y-111781250D01*
X117218750Y-111781250D02*
X118487500Y-113050000D01*
X120071050Y-111781250D02*
X120207900Y-111644400D01*
X105750000Y-110425000D02*
X107750000Y-110425000D01*
X108250000Y-110425000D02*
X109100000Y-110425000D01*
X108149300Y-109474300D02*
X109100000Y-110425000D01*
X108149300Y-108850000D02*
X108149300Y-109474300D01*
X109100000Y-110425000D02*
X109500000Y-110425000D01*
X103403500Y-108850000D02*
X104978500Y-110425000D01*
X120207900Y-111644400D02*
X120207900Y-111500000D01*
X117218750Y-111781250D02*
X117750000Y-111781250D01*
X116162500Y-114000000D02*
X116162500Y-112943750D01*
%TO.N,Net-(D8-A)*%
D75*
X152000000Y-119000000D02*
X154000000Y-119000000D01*
%TO.N,Net-(GPIO4-Pin_1)*%
D74*
X149175000Y-122575000D02*
X150175000Y-121575000D01*
X146425000Y-121825000D02*
X147175000Y-122575000D01*
X150175000Y-121575000D02*
X150175000Y-119000000D01*
X146425000Y-119000000D02*
X146425000Y-121825000D01*
X147175000Y-122575000D02*
X149175000Y-122575000D01*
X147175000Y-122575000D02*
X148650000Y-124050000D01*
%TO.N,Net-(J4-Pin_2)*%
X103557500Y-75750000D02*
X107017500Y-75750000D01*
%TO.N,/PowerAndUSB/VIN_5V*%
X125500000Y-106500000D02*
X125500000Y-104000000D01*
D75*
X115250000Y-103750000D02*
X115250000Y-98250000D01*
D74*
X122247700Y-107300000D02*
X124700000Y-107300000D01*
D80*
X125908579Y-99908579D02*
X127000000Y-101000000D01*
X127000000Y-102500000D02*
X125500000Y-104000000D01*
D74*
X125482842Y-99800000D02*
X124670000Y-99800000D01*
D75*
X115450001Y-105949999D02*
X115812000Y-105949999D01*
X115450000Y-105100000D02*
X115812000Y-105100000D01*
D80*
X114500000Y-104750000D02*
X114250000Y-104750000D01*
X127000000Y-101000000D02*
X127000000Y-102500000D01*
D74*
X124700000Y-107300000D02*
X125500000Y-106500000D01*
X128249300Y-98000700D02*
X128249300Y-99000000D01*
X125591421Y-99908579D02*
X125482842Y-99800000D01*
D75*
X114650000Y-106750000D02*
X115450001Y-105949999D01*
D83*
X128249300Y-102750700D02*
X128249300Y-99000000D01*
D75*
X117750000Y-104000000D02*
X117750000Y-102001400D01*
D80*
X114100000Y-105150000D02*
X114100000Y-106750000D01*
X114500000Y-104750000D02*
X114100000Y-105150000D01*
D75*
X117750000Y-102001400D02*
X117751400Y-102000000D01*
D74*
X127502983Y-97508949D02*
X127757549Y-97508949D01*
D75*
X123200000Y-98250000D02*
X123200000Y-99290000D01*
D80*
X114250000Y-104750000D02*
X113500000Y-104000000D01*
D75*
X115250000Y-104000000D02*
X115250000Y-103750000D01*
X114100000Y-106750000D02*
X115762000Y-106750000D01*
D80*
X115250000Y-104000000D02*
X114500000Y-104750000D01*
X125591421Y-99908579D02*
X125908579Y-99908579D01*
D83*
X126750000Y-104250000D02*
X128249300Y-102750700D01*
D74*
X127757549Y-97508949D02*
X128249300Y-98000700D01*
D75*
X114100000Y-106450000D02*
X115450000Y-105100000D01*
X114100000Y-106750000D02*
X114650000Y-106750000D01*
%TO.N,Net-(U4-PR1)*%
D74*
X120833273Y-97285355D02*
X120714645Y-97285355D01*
D76*
X124750000Y-97513434D02*
X124750000Y-99220000D01*
D74*
X119250000Y-100001400D02*
X119501400Y-99750000D01*
X120250000Y-101000000D02*
X119250000Y-101000000D01*
D76*
X124749694Y-97513128D02*
X124750000Y-97513434D01*
D74*
X119250000Y-101250000D02*
X119250000Y-100001400D01*
X120714645Y-97285355D02*
X120500000Y-97500000D01*
X119250000Y-102000000D02*
X119250000Y-101250000D01*
D76*
X120563049Y-97436951D02*
X120500000Y-97436951D01*
X120714645Y-97285355D02*
X120563049Y-97436951D01*
D74*
X120500000Y-100750000D02*
X120250000Y-101000000D01*
X120500000Y-97500000D02*
X120500000Y-100750000D01*
D76*
X124750000Y-99220000D02*
X124670000Y-99300000D01*
%TO.N,/PowerAndUSB/USB_5V*%
D75*
X106587500Y-92000000D02*
X108337500Y-93750000D01*
X122400000Y-99650000D02*
X122520000Y-99650000D01*
X123250000Y-97210050D02*
X122000000Y-98460050D01*
X112750000Y-92000000D02*
X112750000Y-93050000D01*
X122000000Y-98460050D02*
X122000000Y-99250000D01*
X112750000Y-93050000D02*
X117200000Y-97500000D01*
D83*
X123200000Y-99800000D02*
X122863173Y-99800000D01*
D75*
X106437500Y-92000000D02*
X108437500Y-90000000D01*
X123250000Y-96750000D02*
X123250000Y-97210050D01*
D83*
X122788173Y-99725000D02*
X122595000Y-99725000D01*
D75*
X105941000Y-92000000D02*
X105941000Y-92103500D01*
X105941000Y-92000000D02*
X106587500Y-92000000D01*
X113937500Y-91312500D02*
X113937500Y-90000000D01*
D83*
X122595000Y-99725000D02*
X122520000Y-99650000D01*
D75*
X105941000Y-92000000D02*
X107500000Y-92000000D01*
X105941000Y-92000000D02*
X106437500Y-92000000D01*
X113250000Y-92000000D02*
X113937500Y-91312500D01*
D83*
X122863173Y-99800000D02*
X122788173Y-99725000D01*
D75*
X112750000Y-92000000D02*
X113250000Y-92000000D01*
X122000000Y-99250000D02*
X122400000Y-99650000D01*
%TO.N,Net-(U4-ST)*%
D76*
X123750000Y-98890000D02*
X123780000Y-98890000D01*
X123750000Y-97500000D02*
X123750000Y-98890000D01*
X118750000Y-94250000D02*
X118250000Y-94250000D01*
X126750700Y-97249300D02*
X126750700Y-99000000D01*
X124731672Y-96750000D02*
X124500000Y-96750000D01*
X123780000Y-98890000D02*
X123780000Y-100710000D01*
X123750000Y-100710000D02*
X123750000Y-100780000D01*
X124768329Y-96713343D02*
X124731672Y-96750000D01*
X118250000Y-94250000D02*
X117250000Y-95250000D01*
X127250000Y-96750000D02*
X126750700Y-97249300D01*
X123780000Y-100710000D02*
X123750000Y-100710000D01*
X123750000Y-100780000D02*
X123730000Y-100800000D01*
X123730000Y-100800000D02*
X123200000Y-100800000D01*
X124500000Y-96750000D02*
X123750000Y-97500000D01*
%TO.N,OSC_IN*%
X135357000Y-105250000D02*
X135357000Y-101143000D01*
X135357000Y-101143000D02*
X136750000Y-99750000D01*
X133750000Y-105275000D02*
X135332000Y-105275000D01*
X136750000Y-99750000D02*
X138750000Y-99750000D01*
X135332000Y-105275000D02*
X135357000Y-105250000D01*
%TO.N,OSC_OUT*%
X135946000Y-106448600D02*
X136500000Y-107002600D01*
X136500000Y-109000000D02*
X136500000Y-107002600D01*
X138750000Y-100250000D02*
X137000000Y-100250000D01*
X137000000Y-100250000D02*
X135946000Y-101304000D01*
X135946000Y-101304000D02*
X135946000Y-106448600D01*
%TO.N,Net-(D16-A)*%
D74*
X172375000Y-99835000D02*
X171960000Y-100250000D01*
X172375000Y-95550000D02*
X172375000Y-99835000D01*
%TO.N,Net-(D10-A)*%
X128887500Y-119000000D02*
X130900000Y-119000000D01*
%TO.N,Net-(C45-Pad1)*%
X141162500Y-91725000D02*
X141387500Y-91500000D01*
X141162500Y-96337500D02*
X141162500Y-91725000D01*
%TO.N,Net-(J5-Pin_4)*%
D76*
X154287500Y-95962500D02*
X154287500Y-85287500D01*
X154287500Y-85287500D02*
X154000000Y-85000000D01*
X139210000Y-85290000D02*
X139210000Y-87500000D01*
X153500000Y-96750000D02*
X154287500Y-95962500D01*
X139750000Y-84750000D02*
X139210000Y-85290000D01*
%TO.N,/MCU/PA13-JTMS-SWDIO*%
X151675000Y-96750000D02*
X151675000Y-97825000D01*
X151675000Y-97825000D02*
X151250000Y-98250000D01*
X148323313Y-98750000D02*
X148607771Y-98465542D01*
X147075000Y-98750000D02*
X148323313Y-98750000D01*
%TO.N,+BATT*%
D77*
X124175000Y-128825000D02*
X126225000Y-128825000D01*
D84*
X161575000Y-129075000D02*
X161575000Y-131675000D01*
D77*
X126300000Y-132950000D02*
X125425000Y-133825000D01*
D85*
X172675000Y-134075000D02*
X171175000Y-134075000D01*
D77*
X137425000Y-132325000D02*
X135925000Y-132325000D01*
D80*
X105750000Y-135500000D02*
X106150000Y-135900000D01*
D86*
X126300000Y-131200000D02*
X126300000Y-132950000D01*
D80*
X106150000Y-135900000D02*
X106875000Y-135900000D01*
D77*
X149825000Y-129925000D02*
X149825000Y-129075000D01*
X138075000Y-131675000D02*
X137425000Y-132325000D01*
D79*
X190950000Y-97400000D02*
X189850000Y-98500000D01*
X190250000Y-100000000D02*
X188500000Y-100000000D01*
D85*
X114400000Y-133350000D02*
X113750000Y-134000000D01*
D77*
X126300000Y-129950000D02*
X126300000Y-131200000D01*
X126300000Y-129950000D02*
X126300000Y-128900000D01*
X114400000Y-129850000D02*
X114400000Y-129000000D01*
D85*
X161575000Y-133425000D02*
X160925000Y-134075000D01*
D77*
X113750000Y-132250000D02*
X112250000Y-132250000D01*
D79*
X189850000Y-98500000D02*
X188500000Y-98500000D01*
D77*
X161575000Y-131675000D02*
X160925000Y-132325000D01*
X137425000Y-130575000D02*
X138075000Y-129925000D01*
X147675000Y-130575000D02*
X149175000Y-130575000D01*
D79*
X191100000Y-109100000D02*
X190700000Y-109500000D01*
D85*
X173325000Y-133425000D02*
X172675000Y-134075000D01*
D77*
X126300000Y-131200000D02*
X125425000Y-132075000D01*
X182250000Y-128750000D02*
X181500000Y-129500000D01*
X138075000Y-129075000D02*
X137175000Y-129075000D01*
D79*
X190250000Y-110750000D02*
X188250000Y-110750000D01*
X190700000Y-109500000D02*
X188250000Y-109500000D01*
D77*
X149825000Y-129075000D02*
X148925000Y-129075000D01*
D79*
X190950000Y-97400000D02*
X190950000Y-99300000D01*
D77*
X114400000Y-131600000D02*
X113750000Y-132250000D01*
X126225000Y-128825000D02*
X126300000Y-128900000D01*
X161575000Y-129925000D02*
X161575000Y-129075000D01*
X173325000Y-131675000D02*
X172675000Y-132325000D01*
D85*
X149825000Y-131675000D02*
X149825000Y-133425000D01*
X114400000Y-131600000D02*
X114400000Y-133350000D01*
D77*
X135925000Y-130575000D02*
X137425000Y-130575000D01*
X171175000Y-130575000D02*
X172675000Y-130575000D01*
D86*
X138075000Y-131675000D02*
X138075000Y-133425000D01*
D77*
X172675000Y-132325000D02*
X171175000Y-132325000D01*
D85*
X173325000Y-129075000D02*
X173325000Y-131675000D01*
D77*
X125425000Y-132075000D02*
X124175000Y-132075000D01*
X125425000Y-133825000D02*
X124175000Y-133825000D01*
D85*
X137425000Y-134075000D02*
X135925000Y-134075000D01*
D79*
X190700000Y-110300000D02*
X190250000Y-110750000D01*
D77*
X138075000Y-129925000D02*
X138075000Y-129075000D01*
D85*
X149825000Y-133425000D02*
X149175000Y-134075000D01*
D77*
X113750000Y-130500000D02*
X114400000Y-129850000D01*
X149825000Y-131675000D02*
X149175000Y-132325000D01*
X171175000Y-129075000D02*
X172425000Y-129075000D01*
D85*
X149175000Y-134075000D02*
X147675000Y-134075000D01*
X173325000Y-131675000D02*
X173325000Y-133425000D01*
D77*
X135925000Y-129075000D02*
X137175000Y-129075000D01*
X114400000Y-129000000D02*
X113500000Y-129000000D01*
X112250000Y-130500000D02*
X113750000Y-130500000D01*
X161575000Y-129075000D02*
X160675000Y-129075000D01*
X124175000Y-130325000D02*
X125925000Y-130325000D01*
D85*
X138075000Y-133425000D02*
X137425000Y-134075000D01*
D77*
X114400000Y-129000000D02*
X114400000Y-131600000D01*
X147675000Y-129075000D02*
X148925000Y-129075000D01*
X173325000Y-129075000D02*
X172425000Y-129075000D01*
X149175000Y-132325000D02*
X147675000Y-132325000D01*
X185350000Y-128750000D02*
X185350000Y-129650000D01*
D85*
X160925000Y-134075000D02*
X159425000Y-134075000D01*
X161575000Y-131675000D02*
X161575000Y-133425000D01*
D77*
X112250000Y-129000000D02*
X113500000Y-129000000D01*
X160925000Y-132325000D02*
X159425000Y-132325000D01*
X149175000Y-130575000D02*
X149825000Y-129925000D01*
X159425000Y-129075000D02*
X160675000Y-129075000D01*
X160925000Y-130575000D02*
X161575000Y-129925000D01*
D84*
X149825000Y-129075000D02*
X149825000Y-131675000D01*
D77*
X159425000Y-130575000D02*
X160925000Y-130575000D01*
X173325000Y-129925000D02*
X173325000Y-129075000D01*
X184250000Y-130750000D02*
X181500000Y-130750000D01*
D79*
X190700000Y-109500000D02*
X190700000Y-110300000D01*
D77*
X185350000Y-128750000D02*
X182250000Y-128750000D01*
D84*
X138075000Y-129075000D02*
X138075000Y-131675000D01*
D77*
X172675000Y-130575000D02*
X173325000Y-129925000D01*
X185350000Y-129650000D02*
X184250000Y-130750000D01*
X125925000Y-130325000D02*
X126300000Y-129950000D01*
D85*
X113750000Y-134000000D02*
X112250000Y-134000000D01*
D79*
X190950000Y-99300000D02*
X190250000Y-100000000D01*
%TO.N,Net-(GPIO2-Pin_2)*%
D82*
X127600000Y-124100000D02*
X127600000Y-126950000D01*
D77*
X127600000Y-128900000D02*
X127600000Y-127700000D01*
%TO.N,Net-(D13-ANODE)*%
X101202492Y-107384800D02*
X100800000Y-107787292D01*
X102365200Y-107384800D02*
X101202492Y-107384800D01*
X104032000Y-107000000D02*
X105112500Y-107000000D01*
X103391000Y-106359000D02*
X102365200Y-107384800D01*
X102682000Y-105650000D02*
X103391000Y-106359000D01*
X100800000Y-107787292D02*
X100800000Y-108850000D01*
X103391000Y-106359000D02*
X104032000Y-107000000D01*
X105112500Y-107000000D02*
X106366600Y-108254100D01*
X106366600Y-108254100D02*
X106366600Y-108850000D01*
%TO.N,Net-(D12-A)*%
D78*
X108700000Y-135900000D02*
X111000000Y-135900000D01*
%TO.N,/MCU/GPIO_LM_4*%
D76*
X136806800Y-75193200D02*
X135000000Y-77000000D01*
X147075000Y-100750000D02*
X148500000Y-100750000D01*
X136806800Y-68582100D02*
X136806800Y-75193200D01*
%TO.N,/MCU/GPIO_LM_2*%
X120750000Y-77750000D02*
X118500000Y-75500000D01*
X118500000Y-75500000D02*
X118500000Y-68582100D01*
X147075000Y-101750000D02*
X148500000Y-101750000D01*
X130750000Y-77750000D02*
X120750000Y-77750000D01*
%TO.N,/MCU/GPIO_6*%
X171250000Y-116250000D02*
X171862500Y-116862500D01*
X142662500Y-115412500D02*
X143500000Y-116250000D01*
X171862500Y-116862500D02*
X171862500Y-118950000D01*
X143500000Y-116250000D02*
X144000000Y-116250000D01*
X142662500Y-104662500D02*
X142662500Y-115412500D01*
X170750000Y-116250000D02*
X171250000Y-116250000D01*
%TO.N,Net-(GPIO6-Pin_1)*%
D75*
X170037500Y-118950000D02*
X170037500Y-121837500D01*
X170850000Y-122650000D02*
X172250000Y-124050000D01*
X173900000Y-121350000D02*
X172600000Y-122650000D01*
X173900000Y-118950000D02*
X173900000Y-121350000D01*
X172600000Y-122650000D02*
X170850000Y-122650000D01*
X170037500Y-121837500D02*
X170850000Y-122650000D01*
%TO.N,Net-(D6-A)*%
X175725000Y-118950000D02*
X177700000Y-118950000D01*
%TO.N,OSC32_IN*%
D76*
X135250000Y-98750000D02*
X132750000Y-96250000D01*
X131725000Y-95225000D02*
X132750000Y-96250000D01*
X138750000Y-98750000D02*
X135250000Y-98750000D01*
X130500000Y-95225000D02*
X131725000Y-95225000D01*
%TO.N,OSC32_OUT*%
X132750000Y-99094800D02*
X132905200Y-99250000D01*
X130500000Y-98862500D02*
X132517700Y-98862500D01*
X132905200Y-99250000D02*
X138750000Y-99250000D01*
X132517700Y-98862500D02*
X132750000Y-99094800D01*
%TO.N,/PowerAndUSB/D+*%
X106750000Y-98000000D02*
X107000000Y-98250000D01*
X103250000Y-95500000D02*
X103250000Y-99250000D01*
X103250000Y-95500000D02*
X104500000Y-95500000D01*
X98350000Y-94100000D02*
X99100000Y-94100000D01*
X103250000Y-99250000D02*
X104250000Y-100250000D01*
D83*
X99875000Y-94546752D02*
X99875000Y-94875000D01*
D76*
X106750000Y-96500000D02*
X106750000Y-98000000D01*
D83*
X98675000Y-94100000D02*
X99428248Y-94100000D01*
D76*
X104500000Y-95500000D02*
X104550000Y-95550000D01*
D83*
X99428248Y-94100000D02*
X99875000Y-94546752D01*
X99875000Y-94875000D02*
X100500000Y-95500000D01*
%TO.N,Net-(D5-A)*%
D75*
X187525000Y-118950000D02*
X189425000Y-118950000D01*
%TO.N,Net-(GPIO7-Pin_1)*%
X181925000Y-118950000D02*
X181925000Y-121675000D01*
X181925000Y-121675000D02*
X182500000Y-122250000D01*
X184000000Y-122250000D02*
X182500000Y-122250000D01*
X185700000Y-118950000D02*
X185700000Y-120550000D01*
X182500000Y-122250000D02*
X184150000Y-123900000D01*
X185700000Y-120550000D02*
X184000000Y-122250000D01*
%TO.N,/MCU/GPIO_4*%
D76*
X141662500Y-116750000D02*
X141662500Y-104662500D01*
X147500000Y-117750000D02*
X148000000Y-117750000D01*
X148000000Y-117750000D02*
X148250000Y-118000000D01*
X148250000Y-118000000D02*
X148250000Y-119000000D01*
%TO.N,/MCU/GPIO_LM_5*%
X140000000Y-77750000D02*
X145960200Y-71789800D01*
X145750000Y-100000000D02*
X144500000Y-100000000D01*
X146000000Y-100250000D02*
X145750000Y-100000000D01*
X145960200Y-71789800D02*
X145960200Y-68582100D01*
X147075000Y-100250000D02*
X146000000Y-100250000D01*
%TO.N,Net-(GPIO8-Pin_2)*%
D77*
X191100000Y-107800000D02*
X190050000Y-107800000D01*
D82*
X185900000Y-107800000D02*
X189150000Y-107800000D01*
%TO.N,Net-(F2-Pad1)*%
D87*
X98350000Y-92800000D02*
X100000000Y-92800000D01*
D80*
X100550000Y-92250000D02*
X100000000Y-92800000D01*
D75*
X95750000Y-101900000D02*
X96600000Y-101900000D01*
X97500000Y-92900000D02*
X97500000Y-93750000D01*
D80*
X101750000Y-92250000D02*
X100550000Y-92250000D01*
D75*
X98675000Y-92800000D02*
X97600000Y-92800000D01*
X97600000Y-92800000D02*
X97500000Y-92900000D01*
X96600000Y-101900000D02*
X97500000Y-101000000D01*
%TO.N,/PowerAndUSB/VOTGID*%
D76*
X100500000Y-99500000D02*
X101750000Y-99500000D01*
X97250000Y-98500000D02*
X97250000Y-95300000D01*
X97250000Y-95300000D02*
X97800000Y-94750000D01*
X97800000Y-94750000D02*
X98675000Y-94750000D01*
X98250000Y-99500000D02*
X97250000Y-98500000D01*
%TO.N,Net-(D18-A)*%
D74*
X167067500Y-95550000D02*
X167067500Y-99892500D01*
X167067500Y-99892500D02*
X166710000Y-100250000D01*
%TO.N,Net-(D3-A)*%
D75*
X180650000Y-95012500D02*
X180650000Y-92925000D01*
%TO.N,/MCU/PA14-JTCK-SWCLK*%
D76*
X151587500Y-94750000D02*
X151587500Y-94337500D01*
X151587500Y-94337500D02*
X151250000Y-94000000D01*
X145662500Y-96337500D02*
X145662500Y-94837500D01*
X145662500Y-94837500D02*
X146000000Y-94500000D01*
%TO.N,Net-(J5-Pin_2)*%
X153750000Y-94750000D02*
X153500000Y-95000000D01*
X152750000Y-85250000D02*
X153250000Y-85250000D01*
X152000000Y-86000000D02*
X152750000Y-85250000D01*
X153750000Y-85750000D02*
X153750000Y-94750000D01*
X153250000Y-85250000D02*
X153750000Y-85750000D01*
%TO.N,Net-(D7-A)*%
D75*
X163925000Y-119000000D02*
X165850000Y-119000000D01*
%TO.N,Net-(GPIO5-Pin_1)*%
X162100000Y-119000000D02*
X162100000Y-121650000D01*
X158437500Y-122037500D02*
X158900000Y-122500000D01*
X158437500Y-119000000D02*
X158437500Y-122037500D01*
X158900000Y-122500000D02*
X160450000Y-124050000D01*
X162100000Y-121650000D02*
X161250000Y-122500000D01*
X161250000Y-122500000D02*
X158900000Y-122500000D01*
%TO.N,Net-(GPIO6-Pin_2)*%
D82*
X174750000Y-124050000D02*
X174750000Y-127100000D01*
D77*
X174750000Y-129050000D02*
X174750000Y-127900000D01*
%TO.N,Net-(GPIO1-Pin_2)*%
D82*
X115700000Y-124050000D02*
X115700000Y-126800000D01*
D77*
X115700000Y-129000000D02*
X115700000Y-126800000D01*
%TO.N,Net-(C44-Pad1)*%
D74*
X144662500Y-107162500D02*
X145250000Y-107750000D01*
X144662500Y-104662500D02*
X144662500Y-107162500D01*
%TO.N,Net-(GPIO7-Pin_2)*%
D77*
X186650000Y-128750000D02*
X186650000Y-127600000D01*
D82*
X186650000Y-123900000D02*
X186650000Y-126800000D01*
%TO.N,Net-(GPIO5-Pin_2)*%
X162950000Y-124050000D02*
X162950000Y-127000000D01*
D77*
X162950000Y-128950000D02*
X162950000Y-127700000D01*
%TO.N,/MCU/GPIO_1*%
D76*
X113175000Y-118575000D02*
X114750000Y-117000000D01*
X139250000Y-115000000D02*
X140162500Y-114087500D01*
X113175000Y-119050000D02*
X113175000Y-118575000D01*
X124500000Y-115000000D02*
X122500000Y-117000000D01*
X122500000Y-117000000D02*
X114750000Y-117000000D01*
X140162500Y-114087500D02*
X140162500Y-104662500D01*
%TO.N,Net-(U1-FB)*%
X120250000Y-107000000D02*
X120550000Y-107300000D01*
X120250000Y-106500000D02*
X120250000Y-107000000D01*
X119750000Y-107000000D02*
X119750000Y-108500000D01*
X120250000Y-106500000D02*
X119750000Y-107000000D01*
X118898000Y-108750000D02*
X119500000Y-108750000D01*
X120550000Y-107300000D02*
X120952300Y-107300000D01*
X120837500Y-105300000D02*
X120250000Y-105887500D01*
X120250000Y-105887500D02*
X120250000Y-106500000D01*
X119750000Y-108500000D02*
X119500000Y-108750000D01*
%TO.N,Net-(U1-EN)*%
D75*
X121647700Y-111500000D02*
X121647700Y-111047700D01*
D76*
X118254001Y-109644000D02*
X118254001Y-110054001D01*
D75*
X121647700Y-111047700D02*
X121200000Y-110600000D01*
D76*
X118254001Y-110054001D02*
X118800000Y-110600000D01*
%TO.N,Net-(U1-AAM)*%
X119044000Y-109644000D02*
X119050000Y-109650000D01*
X118754000Y-109644000D02*
X119044000Y-109644000D01*
X119050000Y-109650000D02*
X120602300Y-109650000D01*
%TO.N,/MCU/GPIO_7*%
X144750000Y-115500000D02*
X144000000Y-115500000D01*
X144000000Y-115500000D02*
X143162500Y-114662500D01*
X183250000Y-115750000D02*
X183750000Y-116250000D01*
X183750000Y-116250000D02*
X183750000Y-118950000D01*
X143162500Y-114662500D02*
X143162500Y-104662500D01*
%TO.N,/MCU/GPIO_LM_7*%
X164267000Y-68582100D02*
X155513600Y-77335500D01*
X155513600Y-97986400D02*
X154250000Y-99250000D01*
X155513600Y-77335500D02*
X155513600Y-97986400D01*
X147075000Y-99250000D02*
X145750000Y-99250000D01*
%TO.N,/MCU/GPIO_LM_6*%
X148629149Y-99750000D02*
X147075000Y-99750000D01*
X155113600Y-96886400D02*
X152250000Y-99750000D01*
X149100000Y-100220851D02*
X148629149Y-99750000D01*
X155113600Y-68582100D02*
X155113600Y-96886400D01*
%TO.N,Net-(U7-PA15(JTDI))*%
D74*
X145162500Y-93837500D02*
X145750000Y-93250000D01*
X145162500Y-96337500D02*
X145162500Y-93837500D01*
X168892500Y-93892500D02*
X168250000Y-93250000D01*
X168892500Y-95550000D02*
X168892500Y-93892500D01*
%TO.N,Net-(D4-A)*%
D75*
X180700000Y-106825000D02*
X180700000Y-104900000D01*
%TO.N,Net-(GPIO9-Pin_1)*%
X182587500Y-96837500D02*
X184541700Y-98791700D01*
X180650000Y-96837500D02*
X182587500Y-96837500D01*
X184541700Y-98791700D02*
X184541700Y-100041700D01*
X184541700Y-100041700D02*
X186000000Y-98583400D01*
X183558400Y-101025000D02*
X184541700Y-100041700D01*
X180700000Y-101025000D02*
X183558400Y-101025000D01*
%TO.N,Net-(GPIO9-Pin_2)*%
D82*
X186000000Y-96083400D02*
X188983400Y-96083400D01*
D88*
X188983400Y-96083400D02*
X189000000Y-96100000D01*
D77*
X190950000Y-96100000D02*
X189600000Y-96100000D01*
%TO.N,Net-(GPIO4-Pin_2)*%
X151150000Y-128850000D02*
X151150000Y-127700000D01*
D82*
X151150000Y-124050000D02*
X151150000Y-126900000D01*
%TO.N,/MCU/USART1_RX*%
D74*
X137177300Y-102750000D02*
X136927300Y-102500000D01*
X111200000Y-98750000D02*
X113250000Y-98750000D01*
X138750000Y-102750000D02*
X137177300Y-102750000D01*
X114500000Y-102500000D02*
X114500000Y-102550000D01*
X113250000Y-98750000D02*
X114500000Y-100000000D01*
X114500000Y-100000000D02*
X114500000Y-102500000D01*
%TO.N,/MCU/USART1_TX*%
X137000000Y-103500000D02*
X137250000Y-103250000D01*
X113750000Y-100000000D02*
X113750000Y-102000000D01*
X113000000Y-99250000D02*
X113750000Y-100000000D01*
X136927300Y-103500000D02*
X137000000Y-103500000D01*
X111200000Y-99250000D02*
X113000000Y-99250000D01*
X137250000Y-103250000D02*
X138750000Y-103250000D01*
%TO.N,/MCU/GPIO_3*%
D76*
X137250000Y-116350000D02*
X137150000Y-116350000D01*
X141162500Y-115587500D02*
X141162500Y-104662500D01*
X137150000Y-116350000D02*
X136850000Y-116650000D01*
X140400000Y-116350000D02*
X141162500Y-115587500D01*
X136850000Y-116650000D02*
X136850000Y-119000000D01*
%TO.N,/MCU/GPIO_5*%
X142162500Y-116412500D02*
X142162500Y-104662500D01*
X160000000Y-117750000D02*
X160262500Y-118012500D01*
X142500000Y-116750000D02*
X142162500Y-116412500D01*
X142750000Y-116750000D02*
X142500000Y-116750000D01*
X160262500Y-118012500D02*
X160262500Y-119000000D01*
%TO.N,/MCU/GPIO_8*%
X144150000Y-114900000D02*
X143662500Y-114412500D01*
X179500000Y-111250000D02*
X179500000Y-114500000D01*
X145750000Y-114900000D02*
X145600000Y-114750000D01*
X145750000Y-114900000D02*
X144150000Y-114900000D01*
X180087500Y-110662500D02*
X179500000Y-111250000D01*
X180700000Y-110662500D02*
X180087500Y-110662500D01*
X143662500Y-114412500D02*
X143662500Y-104662500D01*
%TO.N,/MCU/GPIO_9*%
X146500000Y-114250000D02*
X144750000Y-114250000D01*
X179800000Y-99200000D02*
X180700000Y-99200000D01*
X178750000Y-100250000D02*
X179800000Y-99200000D01*
X144750000Y-114250000D02*
X144162500Y-113662500D01*
X144162500Y-113662500D02*
X144162500Y-104662500D01*
X178750000Y-114000000D02*
X178750000Y-100250000D01*
%TO.N,/MCU/GPIO_LM_1*%
X147075000Y-102250000D02*
X145500000Y-102250000D01*
X129350000Y-100600000D02*
X129350000Y-97500000D01*
X128750000Y-96900000D02*
X128750000Y-91250000D01*
X130250000Y-101500000D02*
X129350000Y-100600000D01*
X129350000Y-97500000D02*
X128750000Y-96900000D01*
X127250000Y-78500000D02*
X116500000Y-78500000D01*
X116500000Y-78500000D02*
X109346600Y-71346600D01*
X109346600Y-71346600D02*
X109346600Y-68582100D01*
%TO.N,/MCU/GPIO_LM_3*%
X147075000Y-101250000D02*
X145500000Y-101250000D01*
X127653400Y-75653400D02*
X129000000Y-77000000D01*
X145500000Y-101250000D02*
X145250000Y-101000000D01*
X129000000Y-77000000D02*
X131500000Y-77000000D01*
X127653400Y-68582100D02*
X127653400Y-75653400D01*
%TO.N,Net-(D17-A)*%
D75*
X163800000Y-95650000D02*
X163800000Y-100050000D01*
X163800000Y-100050000D02*
X164000000Y-100250000D01*
%TO.N,Net-(D9-A)*%
D74*
X140450000Y-119000000D02*
X142262500Y-119000000D01*
%TO.N,Net-(GPIO8-Pin_1)*%
D75*
X184100000Y-112100000D02*
X185900000Y-110300000D01*
X184100000Y-112100000D02*
X184250000Y-111950000D01*
X183712500Y-112487500D02*
X184100000Y-112100000D01*
X183150000Y-108650000D02*
X180700000Y-108650000D01*
X184250000Y-111950000D02*
X184250000Y-109750000D01*
X184250000Y-109750000D02*
X183150000Y-108650000D01*
X180700000Y-112487500D02*
X183712500Y-112487500D01*
%TO.N,/PowerAndUSB/VIN+*%
D80*
X100650000Y-105850000D02*
X99750000Y-106750000D01*
X100650000Y-105650000D02*
X100650000Y-104600000D01*
X100050000Y-104000000D02*
X100650000Y-104600000D01*
X99750000Y-104000000D02*
X100050000Y-104000000D01*
X100650000Y-104600000D02*
X101250000Y-104000000D01*
X100650000Y-105650000D02*
X100650000Y-105850000D01*
%TD*%
%TA.AperFunction,Conductor*%
%TO.N,GND*%
G36*
X112443039Y-101769685D02*
G01*
X112488794Y-101822489D01*
X112500000Y-101874000D01*
X112500000Y-102520770D01*
X112480315Y-102587809D01*
X112427511Y-102633564D01*
X112358353Y-102643508D01*
X112310903Y-102626309D01*
X112251305Y-102589548D01*
X112251300Y-102589546D01*
X112087652Y-102535319D01*
X111986654Y-102525000D01*
X111887500Y-102525000D01*
X111887500Y-104474999D01*
X111986640Y-104474999D01*
X111986654Y-104474998D01*
X112087652Y-104464680D01*
X112251300Y-104410453D01*
X112251307Y-104410450D01*
X112310902Y-104373691D01*
X112378294Y-104355250D01*
X112444958Y-104376172D01*
X112489728Y-104429813D01*
X112500000Y-104479229D01*
X112500000Y-104500000D01*
X113463681Y-105463681D01*
X113478384Y-105490608D01*
X113494977Y-105516427D01*
X113495868Y-105522627D01*
X113497166Y-105525004D01*
X113500000Y-105551362D01*
X113500000Y-105615876D01*
X113480315Y-105682915D01*
X113449634Y-105715646D01*
X113365350Y-105777850D01*
X113284707Y-105887117D01*
X113284706Y-105887119D01*
X113239853Y-106015298D01*
X113239853Y-106015300D01*
X113237000Y-106045730D01*
X113237000Y-107454269D01*
X113239853Y-107484699D01*
X113239853Y-107484701D01*
X113284706Y-107612880D01*
X113284707Y-107612882D01*
X113363116Y-107719124D01*
X113365350Y-107722150D01*
X113449635Y-107784355D01*
X113491884Y-107840000D01*
X113500000Y-107884123D01*
X113500000Y-108500000D01*
X115080400Y-108500000D01*
X115147439Y-108519685D01*
X115193194Y-108572489D01*
X115204121Y-108622721D01*
X115204400Y-108623000D01*
X116878972Y-108623000D01*
X116888723Y-108625863D01*
X116898806Y-108624597D01*
X116915600Y-108632631D01*
X116915600Y-108621098D01*
X116935285Y-108554059D01*
X116988089Y-108508304D01*
X117038352Y-108497104D01*
X117350831Y-108493967D01*
X117359535Y-108496428D01*
X117368479Y-108495050D01*
X117392631Y-108505786D01*
X117418062Y-108512977D01*
X117424055Y-108519754D01*
X117432325Y-108523431D01*
X117446838Y-108545520D01*
X117464344Y-108565318D01*
X117466736Y-108575806D01*
X117470691Y-108581825D01*
X117476067Y-108616707D01*
X117476223Y-108632147D01*
X117457216Y-108699382D01*
X117404877Y-108745668D01*
X117352229Y-108757400D01*
X117086775Y-108757400D01*
X117063791Y-108761972D01*
X117000511Y-108756309D01*
X117001710Y-108764647D01*
X116997455Y-108775751D01*
X116997307Y-108784052D01*
X116982075Y-108815890D01*
X116978066Y-108821890D01*
X116924454Y-108866695D01*
X116874963Y-108877000D01*
X115204400Y-108877000D01*
X115204400Y-108924844D01*
X115210801Y-108984372D01*
X115210803Y-108984379D01*
X115261045Y-109119086D01*
X115261049Y-109119093D01*
X115347209Y-109234187D01*
X115347212Y-109234190D01*
X115462306Y-109320350D01*
X115462315Y-109320355D01*
X115546332Y-109351691D01*
X115602266Y-109393562D01*
X115626684Y-109459026D01*
X115627000Y-109467873D01*
X115627000Y-109517000D01*
X116130000Y-109517000D01*
X116138685Y-109519550D01*
X116147647Y-109518262D01*
X116171687Y-109529240D01*
X116197039Y-109536685D01*
X116202966Y-109543525D01*
X116211203Y-109547287D01*
X116225492Y-109569521D01*
X116242794Y-109589489D01*
X116245081Y-109600003D01*
X116248977Y-109606065D01*
X116254000Y-109641000D01*
X116254000Y-109644000D01*
X116257000Y-109644000D01*
X116324039Y-109663685D01*
X116369794Y-109716489D01*
X116381000Y-109768000D01*
X116381000Y-110499600D01*
X116428828Y-110499600D01*
X116428841Y-110499599D01*
X116490742Y-110492943D01*
X116517256Y-110492943D01*
X116579157Y-110499599D01*
X116579171Y-110499600D01*
X116626999Y-110499600D01*
X116626999Y-109768000D01*
X116629549Y-109759314D01*
X116628261Y-109750353D01*
X116639239Y-109726312D01*
X116646684Y-109700961D01*
X116653524Y-109695033D01*
X116657286Y-109686797D01*
X116679520Y-109672507D01*
X116699488Y-109655206D01*
X116710002Y-109652918D01*
X116716064Y-109649023D01*
X116750999Y-109644000D01*
X116756999Y-109644000D01*
X116824038Y-109663685D01*
X116869793Y-109716489D01*
X116880999Y-109768000D01*
X116880999Y-110499600D01*
X116928827Y-110499600D01*
X116928843Y-110499599D01*
X116988371Y-110493198D01*
X116988378Y-110493196D01*
X117123085Y-110442954D01*
X117123092Y-110442950D01*
X117238186Y-110356790D01*
X117238187Y-110356789D01*
X117270578Y-110313521D01*
X117326511Y-110271649D01*
X117396203Y-110266665D01*
X117457526Y-110300150D01*
X117491011Y-110361473D01*
X117493839Y-110386586D01*
X117498742Y-110874755D01*
X117479731Y-110941988D01*
X117427390Y-110988271D01*
X117374748Y-111000000D01*
X116500000Y-111000000D01*
X111301362Y-111000000D01*
X111234323Y-110980315D01*
X111213681Y-110963681D01*
X110297444Y-110047444D01*
X115627000Y-110047444D01*
X115633401Y-110106972D01*
X115633403Y-110106979D01*
X115683645Y-110241686D01*
X115683649Y-110241693D01*
X115769809Y-110356787D01*
X115769812Y-110356790D01*
X115884906Y-110442950D01*
X115884913Y-110442954D01*
X116019620Y-110493196D01*
X116019627Y-110493198D01*
X116079155Y-110499599D01*
X116079172Y-110499600D01*
X116127000Y-110499600D01*
X116127000Y-109771000D01*
X115627000Y-109771000D01*
X115627000Y-110047444D01*
X110297444Y-110047444D01*
X109786319Y-109536319D01*
X109752834Y-109474996D01*
X109750000Y-109448638D01*
X109750000Y-107946624D01*
X109769685Y-107879585D01*
X109822489Y-107833830D01*
X109891647Y-107823886D01*
X109955203Y-107852911D01*
X109965075Y-107863237D01*
X109965076Y-107863237D01*
X110094154Y-107992315D01*
X110243375Y-108084356D01*
X110243380Y-108084358D01*
X110409802Y-108139505D01*
X110409809Y-108139506D01*
X110512519Y-108149999D01*
X110724999Y-108149999D01*
X111225000Y-108149999D01*
X111437472Y-108149999D01*
X111437486Y-108149998D01*
X111540197Y-108139505D01*
X111706619Y-108084358D01*
X111706624Y-108084356D01*
X111855845Y-107992315D01*
X111979815Y-107868345D01*
X112071856Y-107719124D01*
X112071858Y-107719119D01*
X112127005Y-107552697D01*
X112127006Y-107552690D01*
X112137499Y-107449986D01*
X112137500Y-107449973D01*
X112137500Y-107000000D01*
X111225000Y-107000000D01*
X111225000Y-108149999D01*
X110724999Y-108149999D01*
X110725000Y-108149998D01*
X110725000Y-106500000D01*
X111225000Y-106500000D01*
X112137499Y-106500000D01*
X112137499Y-106050028D01*
X112137498Y-106050013D01*
X112127005Y-105947302D01*
X112071858Y-105780880D01*
X112071856Y-105780875D01*
X111979815Y-105631654D01*
X111855845Y-105507684D01*
X111706624Y-105415643D01*
X111706619Y-105415641D01*
X111540197Y-105360494D01*
X111540190Y-105360493D01*
X111437486Y-105350000D01*
X111225000Y-105350000D01*
X111225000Y-106500000D01*
X110725000Y-106500000D01*
X110725000Y-105350000D01*
X110512529Y-105350000D01*
X110512512Y-105350001D01*
X110409802Y-105360494D01*
X110243380Y-105415641D01*
X110243375Y-105415643D01*
X110094154Y-105507684D01*
X109965076Y-105636763D01*
X109963851Y-105635538D01*
X109914237Y-105670665D01*
X109844438Y-105673800D01*
X109784024Y-105638700D01*
X109752177Y-105576511D01*
X109750000Y-105553375D01*
X109750000Y-103786654D01*
X110600001Y-103786654D01*
X110610319Y-103887652D01*
X110664546Y-104051300D01*
X110664551Y-104051311D01*
X110755052Y-104198034D01*
X110755055Y-104198038D01*
X110876961Y-104319944D01*
X110876965Y-104319947D01*
X111023688Y-104410448D01*
X111023699Y-104410453D01*
X111187347Y-104464680D01*
X111288351Y-104474999D01*
X111387500Y-104474998D01*
X111387500Y-103750000D01*
X110600001Y-103750000D01*
X110600001Y-103786654D01*
X109750000Y-103786654D01*
X109750000Y-103213345D01*
X110600000Y-103213345D01*
X110600000Y-103250000D01*
X111387500Y-103250000D01*
X111387500Y-102524999D01*
X111288360Y-102525000D01*
X111288344Y-102525001D01*
X111187347Y-102535319D01*
X111023699Y-102589546D01*
X111023688Y-102589551D01*
X110876965Y-102680052D01*
X110876961Y-102680055D01*
X110755055Y-102801961D01*
X110755052Y-102801965D01*
X110664551Y-102948688D01*
X110664546Y-102948699D01*
X110610319Y-103112347D01*
X110600000Y-103213345D01*
X109750000Y-103213345D01*
X109750000Y-103000000D01*
X109500000Y-102750000D01*
X109124000Y-102750000D01*
X109056961Y-102730315D01*
X109011206Y-102677511D01*
X109000000Y-102626000D01*
X109000000Y-101874000D01*
X109019685Y-101806961D01*
X109072489Y-101761206D01*
X109124000Y-101750000D01*
X112376000Y-101750000D01*
X112443039Y-101769685D01*
G37*
%TD.AperFunction*%
%TD*%
M02*
