M48
; DRILL file KiCad 10.0.1 date 2026-08-15T15:49:31
; FORMAT={-:-/ absolute / inch / decimal}
; #@! TF.CreationDate,2026-08-15T15:49:31+09:00
; #@! TF.GenerationSoftware,Kicad,Pcbnew,10.0.1
; #@! TF.FileFunction,Plated,1,4,PTH
FMAT,2
INCH
; #@! TA.AperFunction,Plated,PTH,ViaDrill
T1C0.0118
; #@! TA.AperFunction,Plated,PTH,ComponentDrill
T2C0.0315
; #@! TA.AperFunction,Plated,PTH,ComponentDrill
T3C0.0354
; #@! TA.AperFunction,Plated,PTH,ComponentDrill
T4C0.0394
; #@! TA.AperFunction,Plated,PTH,ComponentDrill
T5C0.0430
; #@! TA.AperFunction,Plated,PTH,ComponentDrill
T6C0.0470
; #@! TA.AperFunction,Plated,PTH,ComponentDrill
T7C0.0512
; #@! TA.AperFunction,Plated,PTH,ComponentDrill
T8C0.0748
; #@! TA.AperFunction,Plated,PTH,ComponentDrill
T9C0.1260
%
G90
G05
T1
X3.6929Y-3.5039
X3.6929Y-3.6024
X3.6929Y-3.6909
X3.6929Y-3.7992
X3.7008Y-3.8484
X3.7018Y-3.6407
X3.7087Y-3.7421
X3.7126Y-3.5413
X3.8386Y-3.6909
X3.8386Y-3.9764
X3.8681Y-3.9173
X3.8878Y-3.8878
X3.9075Y-3.5039
X3.9272Y-3.8878
X3.9272Y-4.0945
X3.9272Y-4.2028
X3.9469Y-3.8287
X3.9567Y-3.7205
X3.9567Y-3.7598
X3.9567Y-3.9173
X3.9764Y-4.0256
X3.9862Y-3.4843
X3.9862Y-4.0945
X4.0059Y-3.7303
X4.0059Y-3.8681
X4.0453Y-3.1442
X4.065Y-3.7598
X4.1043Y-3.8681
X4.1066Y-3.4252
X4.1634Y-3.0906
X4.1634Y-3.9075
X4.1634Y-5.3346
X4.1732Y-3.7303
X4.2028Y-3.7992
X4.2126Y-3.75
X4.2323Y-3.622
X4.2618Y-4.3474
X4.311Y-4.0256
X4.311Y-4.3474
X4.3406Y-4.1339
X4.3406Y-4.2913
X4.3504Y-4.0256
X4.3504Y-4.0748
X4.3701Y-4.311
X4.3799Y-3.7205
X4.3799Y-4.1339
X4.3898Y-3.8386
X4.3898Y-4.0256
X4.4094Y-3.6516
X4.4094Y-4.3209
X4.4193Y-4.1339
X4.4193Y-5.0787
X4.4193Y-5.1378
X4.4193Y-5.2067
X4.4193Y-5.2756
X4.4291Y-4.5571
X4.439Y-3.622
X4.4488Y-4.3209
X4.4598Y-3.2666
X4.4743Y-3.2324
X4.4783Y-4.0157
X4.4882Y-4.2815
X4.4882Y-4.3209
X4.498Y-3.2579
X4.5079Y-4.0354
X4.5236Y-5.3504
X4.5276Y-4.2815
X4.5276Y-4.3209
X4.5374Y-3.8681
X4.5374Y-4.0945
X4.5768Y-3.9272
X4.5866Y-5.4134
X4.6088Y-3.6024
X4.6142Y-3.8386
X4.626Y-4.1339
X4.626Y-4.1634
X4.6299Y-4.2023
X4.6358Y-3.1988
X4.6358Y-4.0945
X4.6358Y-5.4626
X4.6752Y-3.7106
X4.6772Y-4.3543
X4.6949Y-3.8091
X4.752Y-3.435
X4.7539Y-4.0157
X4.7539Y-4.5571
X4.7572Y-3.8301
X4.7697Y-3.9626
X4.7717Y-4.3543
X4.7835Y-4.7343
X4.7992Y-4.2697
X4.813Y-3.4055
X4.8504Y-3.8681
X4.8524Y-3.4055
X4.8524Y-3.8091
X4.8819Y-4.1634
X4.8888Y-5.0719
X4.8888Y-5.1309
X4.8888Y-5.1998
X4.8888Y-5.2687
X4.8898Y-3.5496
X4.8898Y-3.5984
X4.8959Y-3.4055
X4.9016Y-4.5276
X4.9114Y-3.8391
X4.9121Y-3.8076
X4.9354Y-3.5512
X4.937Y-3.5984
X4.9409Y-4.0945
X4.9409Y-4.5571
X4.9488Y-4.0157
X4.9843Y-3.5512
X4.9843Y-3.5984
X4.9902Y-4.1043
X5.0098Y-3.0906
X5.0098Y-3.8091
X5.0198Y-3.8389
X5.0689Y-3.5925
X5.094Y-3.4646
X5.094Y-3.5039
X5.0984Y-3.6614
X5.0984Y-3.8091
X5.123Y-3.5384
X5.126Y-4.1437
X5.128Y-3.9961
X5.1378Y-3.4843
X5.1476Y-3.061
X5.1575Y-4.1437
X5.1772Y-3.0315
X5.2461Y-4.3799
X5.2559Y-4.7343
X5.2657Y-4.252
X5.2756Y-4.4094
X5.3051Y-4.3307
X5.315Y-3.0315
X5.315Y-3.7894
X5.3514Y-5.0817
X5.3514Y-5.1407
X5.3514Y-5.2096
X5.3514Y-5.2785
X5.3908Y-4.0354
X5.3908Y-4.0748
X5.4035Y-4.1437
X5.4035Y-4.5807
X5.4331Y-3.563
X5.4429Y-4.0945
X5.4429Y-4.252
X5.4516Y-3.7992
X5.4823Y-4.5276
X5.4921Y-3.6516
X5.502Y-3.3366
X5.502Y-4.5571
X5.5118Y-3.061
X5.5276Y-4.5807
X5.5413Y-4.0059
X5.5773Y-4.5965
X5.5807Y-3.8583
X5.6201Y-4.5965
X5.6496Y-3.7205
X5.6496Y-3.937
X5.6594Y-3.5531
X5.6693Y-4.5768
X5.689Y-3.5827
X5.689Y-3.937
X5.6988Y-4.5472
X5.7185Y-3.9764
X5.7185Y-4.7343
X5.7283Y-3.5925
X5.7283Y-4.0256
X5.7382Y-3.6319
X5.7382Y-3.6713
X5.7382Y-3.8681
X5.7382Y-3.9075
X5.7382Y-4.5236
X5.748Y-3.7205
X5.7579Y-4.31
X5.7674Y-4.2181
X5.7677Y-4.498
X5.7876Y-4.2423
X5.7972Y-3.7795
X5.8071Y-4.6358
X5.814Y-5.0817
X5.814Y-5.1407
X5.814Y-5.2096
X5.814Y-5.2785
X5.8169Y-4.1437
X5.8465Y-3.9665
X5.8465Y-4.0059
X5.8507Y-3.8766
X5.8661Y-3.5138
X5.8701Y-3.9457
X5.8894Y-4.0449
X5.9252Y-4.0846
X5.9547Y-3.7008
X5.9547Y-3.8681
X5.9843Y-3.3858
X5.9941Y-3.9272
X6.0531Y-4.0453
X6.063Y-3.3465
X6.0728Y-3.9075
X6.1781Y-3.7205
X6.1811Y-4.7343
X6.2106Y-4.124
X6.2766Y-5.0817
X6.2766Y-5.1407
X6.2766Y-5.2096
X6.2766Y-5.2785
X6.2992Y-4.6358
X6.378Y-3.7303
X6.624Y-3.6713
X6.6437Y-4.7343
X6.7224Y-4.5768
X6.7392Y-5.0817
X6.7392Y-5.1407
X6.7392Y-5.2096
X6.7392Y-5.2785
X6.8504Y-2.7657
X6.8602Y-3.7106
X6.9488Y-3.5531
X6.9488Y-3.5925
X7.0177Y-3.7205
X7.0374Y-4.4882
X7.0669Y-4.5079
X7.0866Y-2.7559
X7.1161Y-4.7343
X7.1457Y-5.0984
X7.1457Y-5.1476
X7.1752Y-3.7008
X7.2146Y-4.5571
X7.2244Y-4.0157
X7.2441Y-3.5433
X7.4114Y-4.311
X7.4114Y-4.3602
X7.4213Y-3.878
X7.4213Y-3.937
T2
X5.0394Y-4.3406
X5.1378Y-4.3406
X6.8031Y-2.5886
X6.8898Y-2.5886
X6.9685Y-2.5886
X7.0472Y-2.5886
X7.1339Y-2.5886
X7.3252Y-2.9496
X7.3252Y-3.3496
X7.5252Y-2.9496
X7.5252Y-3.3496
T3
X6.15Y-3.9469
X6.25Y-3.9469
X6.3567Y-3.9469
X6.4567Y-3.9469
X6.5634Y-3.9469
X6.6634Y-3.9469
X6.7701Y-3.9469
X6.8701Y-3.9469
T4
X3.8189Y-4.5157
X3.8189Y-4.9488
X4.2133Y-2.9823
X4.3133Y-2.9823
X5.3807Y-3.4449
X5.4807Y-3.4449
X5.5807Y-3.4449
X5.6807Y-3.4449
X5.7807Y-3.4449
T5
X3.7894Y-4.1988
X3.7894Y-4.2972
X4.2066Y-2.7001
X4.305Y-2.7001
X4.5669Y-2.7001
X4.6654Y-2.7001
X4.9273Y-2.7001
X5.0257Y-2.7001
X5.2877Y-2.7001
X5.3861Y-2.7001
X5.648Y-2.7001
X5.7465Y-2.7001
X6.0084Y-2.7001
X6.1068Y-2.7001
X6.3688Y-2.7001
X6.4672Y-2.7001
T6
X4.4567Y-4.8839
X4.5551Y-4.8839
X4.6535Y-4.8839
X4.9252Y-4.8858
X5.0236Y-4.8858
X5.122Y-4.8858
X5.3898Y-4.8839
X5.4882Y-4.8839
X5.5866Y-4.8839
X5.8524Y-4.8839
X5.9508Y-4.8839
X6.0492Y-4.8839
X6.3169Y-4.8839
X6.4154Y-4.8839
X6.5138Y-4.8839
X6.7815Y-4.8839
X6.8799Y-4.8839
X6.9783Y-4.8839
X7.25Y-4.878
X7.3189Y-4.1457
X7.3189Y-4.2441
X7.3189Y-4.3425
X7.3228Y-3.6844
X7.3228Y-3.7828
X7.3228Y-3.8812
X7.3484Y-4.878
X7.4469Y-4.878
T7
X3.8583Y-3.1398
X3.8583Y-3.3366
T8
X4.2126Y-4.6339
X4.2126Y-4.8307
T9
X3.7992Y-2.6181
X3.8051Y-5.3642
X7.4606Y-2.6181
X7.4606Y-5.374
M30
