%TF.GenerationSoftware,KiCad,Pcbnew,10.0.1*%
%TF.CreationDate,2026-08-15T15:49:31+09:00*%
%TF.ProjectId,CMFD-LMSE,434d4644-2d4c-44d5-9345-2e6b69636164,rev?*%
%TF.SameCoordinates,Original*%
%TF.FileFunction,Copper,L4,Bot*%
%TF.FilePolarity,Positive*%
%FSLAX46Y46*%
G04 Gerber Fmt 4.6, Leading zero omitted, Abs format (unit mm)*
G04 Created by KiCad (PCBNEW 10.0.1) date 2026-08-15 15:49:31*
%MOMM*%
%LPD*%
G01*
G04 APERTURE LIST*
G04 Aperture macros list*
%AMRoundRect*
0 Rectangle with rounded corners*
0 $1 Rounding radius*
0 $2 $3 $4 $5 $6 $7 $8 $9 X,Y pos of 4 corners*
0 Add a 4 corners polygon primitive as box body*
4,1,4,$2,$3,$4,$5,$6,$7,$8,$9,$2,$3,0*
0 Add four circle primitives for the rounded corners*
1,1,$1+$1,$2,$3*
1,1,$1+$1,$4,$5*
1,1,$1+$1,$6,$7*
1,1,$1+$1,$8,$9*
0 Add four rect primitives between the rounded corners*
20,1,$1+$1,$2,$3,$4,$5,0*
20,1,$1+$1,$4,$5,$6,$7,0*
20,1,$1+$1,$6,$7,$8,$9,0*
20,1,$1+$1,$8,$9,$2,$3,0*%
G04 Aperture macros list end*
%TA.AperFunction,ComponentPad*%
%ADD10C,1.700000*%
%TD*%
%TA.AperFunction,ComponentPad*%
%ADD11C,1.701800*%
%TD*%
%TA.AperFunction,ComponentPad*%
%ADD12R,1.700000X1.700000*%
%TD*%
%TA.AperFunction,ComponentPad*%
%ADD13C,1.651000*%
%TD*%
%TA.AperFunction,ComponentPad*%
%ADD14R,1.800000X1.800000*%
%TD*%
%TA.AperFunction,ComponentPad*%
%ADD15C,1.800000*%
%TD*%
%TA.AperFunction,ComponentPad*%
%ADD16C,5.500000*%
%TD*%
%TA.AperFunction,ComponentPad*%
%ADD17RoundRect,0.250001X1.149999X-1.149999X1.149999X1.149999X-1.149999X1.149999X-1.149999X-1.149999X0*%
%TD*%
%TA.AperFunction,ComponentPad*%
%ADD18C,2.800000*%
%TD*%
%TA.AperFunction,ComponentPad*%
%ADD19C,1.400000*%
%TD*%
%TA.AperFunction,ComponentPad*%
%ADD20RoundRect,0.770000X0.980000X-0.980000X0.980000X0.980000X-0.980000X0.980000X-0.980000X-0.980000X0*%
%TD*%
%TA.AperFunction,ComponentPad*%
%ADD21C,3.500000*%
%TD*%
%TA.AperFunction,ComponentPad*%
%ADD22RoundRect,0.250000X-0.550000X-0.550000X0.550000X-0.550000X0.550000X0.550000X-0.550000X0.550000X0*%
%TD*%
%TA.AperFunction,ComponentPad*%
%ADD23C,1.600000*%
%TD*%
%TA.AperFunction,ViaPad*%
%ADD24C,0.600000*%
%TD*%
%TA.AperFunction,Conductor*%
%ADD25C,0.300000*%
%TD*%
%TA.AperFunction,Conductor*%
%ADD26C,1.000000*%
%TD*%
%TA.AperFunction,Conductor*%
%ADD27C,0.600000*%
%TD*%
%TA.AperFunction,Conductor*%
%ADD28C,0.700000*%
%TD*%
%TA.AperFunction,Conductor*%
%ADD29C,0.200000*%
%TD*%
%TA.AperFunction,Conductor*%
%ADD30C,2.000000*%
%TD*%
%TA.AperFunction,Conductor*%
%ADD31C,0.250000*%
%TD*%
%TA.AperFunction,Conductor*%
%ADD32C,0.400000*%
%TD*%
G04 APERTURE END LIST*
D10*
%TO.P,NRST,1,1_1*%
%TO.N,GND*%
X191140000Y-85080000D03*
X191140000Y-74920000D03*
%TO.P,NRST,2,2_2*%
%TO.N,/MCU/NRST*%
X186060000Y-85080000D03*
X186060000Y-74920000D03*
%TD*%
%TO.P,SW3,*%
%TO.N,*%
X172800000Y-65750000D03*
X181200000Y-65750000D03*
%TO.P,SW3,1,B_1*%
%TO.N,Net-(SW3-B)*%
X177000000Y-65750000D03*
%TO.P,SW3,2,C_2*%
%TO.N,+3.3V*%
X175000000Y-65750000D03*
%TO.P,SW3,3,A_3*%
%TO.N,GND*%
X179000000Y-65750000D03*
%TD*%
D11*
%TO.P,GPIO3,1,Pin_1_1*%
%TO.N,Net-(GPIO3-Pin_1)*%
X136900000Y-124050000D03*
%TO.P,GPIO3,2,Pin_2_2*%
%TO.N,Net-(GPIO3-Pin_2)*%
X139400000Y-124050000D03*
%TO.P,GPIO3,3,Pin_3_3*%
%TO.N,GND*%
X141900000Y-124050000D03*
%TD*%
D12*
%TO.P,J4,1,Pin_1_1*%
%TO.N,Net-(J4-Pin_1)*%
X109557500Y-75750000D03*
D10*
%TO.P,J4,2,Pin_2_2*%
%TO.N,Net-(J4-Pin_2)*%
X107017500Y-75750000D03*
%TD*%
D13*
%TO.P,J9,1,Pin_1_1*%
%TO.N,/MCU/GPIO_LM_4*%
X136806800Y-68582100D03*
%TO.P,J9,2,Pin_2_2*%
%TO.N,GND*%
X134306800Y-68582100D03*
%TD*%
%TO.P,J7,1,Pin_1_1*%
%TO.N,/MCU/GPIO_LM_2*%
X118500000Y-68582100D03*
%TO.P,J7,2,Pin_2_2*%
%TO.N,GND*%
X116000000Y-68582100D03*
%TD*%
D14*
%TO.P,D14,1,K_1*%
%TO.N,/CAN/CAN_TX*%
X156210000Y-100250000D03*
D15*
%TO.P,D14,2,A_2*%
%TO.N,Net-(D14-A)*%
X158750000Y-100250000D03*
%TD*%
D13*
%TO.P,J10,1,Pin_1_1*%
%TO.N,/MCU/GPIO_LM_5*%
X145960200Y-68582100D03*
%TO.P,J10,2,Pin_2_2*%
%TO.N,GND*%
X143460200Y-68582100D03*
%TD*%
D14*
%TO.P,D18,1,K_1*%
%TO.N,GND*%
X169250000Y-100250000D03*
D15*
%TO.P,D18,2,A_2*%
%TO.N,Net-(D18-A)*%
X166710000Y-100250000D03*
%TD*%
D11*
%TO.P,GPIO6,1,Pin_1_1*%
%TO.N,Net-(GPIO6-Pin_1)*%
X172250000Y-124050000D03*
%TO.P,GPIO6,2,Pin_2_2*%
%TO.N,Net-(GPIO6-Pin_2)*%
X174750000Y-124050000D03*
%TO.P,GPIO6,3,Pin_3_3*%
%TO.N,GND*%
X177250000Y-124050000D03*
%TD*%
%TO.P,GPIO1,1,Pin_1_1*%
%TO.N,Net-(GPIO1-Pin_1)*%
X113200000Y-124050000D03*
%TO.P,GPIO1,2,Pin_2_2*%
%TO.N,Net-(GPIO1-Pin_2)*%
X115700000Y-124050000D03*
%TO.P,GPIO1,3,Pin_3_3*%
%TO.N,GND*%
X118200000Y-124050000D03*
%TD*%
D16*
%TO.P,H4,1,1_1*%
%TO.N,unconnected-(H4-Pad1)*%
X189500000Y-136500000D03*
%TD*%
D11*
%TO.P,GPIO7,1,Pin_1_1*%
%TO.N,Net-(GPIO7-Pin_1)*%
X184150000Y-123900000D03*
%TO.P,GPIO7,2,Pin_2_2*%
%TO.N,Net-(GPIO7-Pin_2)*%
X186650000Y-123900000D03*
%TO.P,GPIO7,3,Pin_3_3*%
%TO.N,GND*%
X189150000Y-123900000D03*
%TD*%
%TO.P,GPIO5,1,Pin_1_1*%
%TO.N,Net-(GPIO5-Pin_1)*%
X160450000Y-124050000D03*
%TO.P,GPIO5,2,Pin_2_2*%
%TO.N,Net-(GPIO5-Pin_2)*%
X162950000Y-124050000D03*
%TO.P,GPIO5,3,Pin_3_3*%
%TO.N,GND*%
X165450000Y-124050000D03*
%TD*%
D16*
%TO.P,H1,1,1_1*%
%TO.N,unconnected-(H1-Pad1)*%
X96500000Y-66500000D03*
%TD*%
%TO.P,H3,1,1_1*%
%TO.N,unconnected-(H3-Pad1)*%
X96650000Y-136250000D03*
%TD*%
D13*
%TO.P,J12,1,Pin_1_1*%
%TO.N,/MCU/GPIO_LM_7*%
X164267000Y-68582100D03*
%TO.P,J12,2,Pin_2_2*%
%TO.N,GND*%
X161767000Y-68582100D03*
%TD*%
%TO.P,J11,1,Pin_1_1*%
%TO.N,/MCU/GPIO_LM_6*%
X155113600Y-68582100D03*
%TO.P,J11,2,Pin_2_2*%
%TO.N,GND*%
X152613600Y-68582100D03*
%TD*%
D12*
%TO.P,J5,1,Pin_1_1*%
%TO.N,+3.3V*%
X146830000Y-87500000D03*
D10*
%TO.P,J5,2,Pin_2_2*%
%TO.N,Net-(J5-Pin_2)*%
X144290000Y-87500000D03*
%TO.P,J5,3,Pin_3_3*%
%TO.N,GND*%
X141750000Y-87500000D03*
%TO.P,J5,4,Pin_4_4*%
%TO.N,Net-(J5-Pin_4)*%
X139210000Y-87500000D03*
%TO.P,J5,5,Pin_5_5*%
%TO.N,/MCU/NRST*%
X136670000Y-87500000D03*
%TD*%
D11*
%TO.P,GPIO9,1,Pin_1_1*%
%TO.N,Net-(GPIO9-Pin_1)*%
X186000000Y-98583400D03*
%TO.P,GPIO9,2,Pin_2_2*%
%TO.N,Net-(GPIO9-Pin_2)*%
X186000000Y-96083400D03*
%TO.P,GPIO9,3,Pin_3_3*%
%TO.N,GND*%
X186000000Y-93583400D03*
%TD*%
%TO.P,GPIO4,1,Pin_1_1*%
%TO.N,Net-(GPIO4-Pin_1)*%
X148650000Y-124050000D03*
%TO.P,GPIO4,2,Pin_2_2*%
%TO.N,Net-(GPIO4-Pin_2)*%
X151150000Y-124050000D03*
%TO.P,GPIO4,3,Pin_3_3*%
%TO.N,GND*%
X153650000Y-124050000D03*
%TD*%
D14*
%TO.P,D17,1,K_1*%
%TO.N,/CAN/CAN_RX*%
X161460000Y-100250000D03*
D15*
%TO.P,D17,2,A_2*%
%TO.N,Net-(D17-A)*%
X164000000Y-100250000D03*
%TD*%
D11*
%TO.P,GPIO2,1,Pin_1_1*%
%TO.N,Net-(GPIO2-Pin_1)*%
X125100000Y-124100000D03*
%TO.P,GPIO2,2,Pin_2_2*%
%TO.N,Net-(GPIO2-Pin_2)*%
X127600000Y-124100000D03*
%TO.P,GPIO2,3,Pin_3_3*%
%TO.N,GND*%
X130100000Y-124100000D03*
%TD*%
D14*
%TO.P,D16,1,K_1*%
%TO.N,GND*%
X174500000Y-100250000D03*
D15*
%TO.P,D16,2,A_2*%
%TO.N,Net-(D16-A)*%
X171960000Y-100250000D03*
%TD*%
D17*
%TO.P,J6,1,Pin_1_1*%
%TO.N,Net-(J4-Pin_1)*%
X98000000Y-84750000D03*
D18*
%TO.P,J6,2,Pin_2_2*%
%TO.N,Net-(J6-Pin_2)*%
X98000000Y-79750000D03*
%TD*%
D11*
%TO.P,GPIO8,1,Pin_1_1*%
%TO.N,Net-(GPIO8-Pin_1)*%
X185900000Y-110300000D03*
%TO.P,GPIO8,2,Pin_2_2*%
%TO.N,Net-(GPIO8-Pin_2)*%
X185900000Y-107800000D03*
%TO.P,GPIO8,3,Pin_3_3*%
%TO.N,GND*%
X185900000Y-105300000D03*
%TD*%
D16*
%TO.P,H2,1,1_1*%
%TO.N,unconnected-(H2-Pad1)*%
X189500000Y-66500000D03*
%TD*%
D13*
%TO.P,J1,1,Pin_1_1*%
%TO.N,/MCU/GPIO_LM_1*%
X109346600Y-68582100D03*
%TO.P,J1,2,Pin_2_2*%
%TO.N,GND*%
X106846600Y-68582100D03*
%TD*%
D19*
%TO.P,IN1,*%
%TO.N,*%
X97000000Y-125700000D03*
X97000000Y-114700000D03*
D20*
%TO.P,IN1,1,Pin_1_1*%
%TO.N,GND*%
X107000000Y-117700000D03*
D21*
%TO.P,IN1,2,Pin_2_2*%
%TO.N,+BATT*%
X107000000Y-122700000D03*
%TD*%
D13*
%TO.P,J8,1,Pin_1_1*%
%TO.N,/MCU/GPIO_LM_3*%
X127653400Y-68582100D03*
%TO.P,J8,2,Pin_2_2*%
%TO.N,GND*%
X125153400Y-68582100D03*
%TD*%
%TO.P,J2,1,Pin_1_1*%
%TO.N,GND*%
X96250000Y-106650000D03*
%TO.P,J2,2,Pin_2_2*%
%TO.N,/PowerAndUSB/VIN+*%
X96250000Y-109150000D03*
%TD*%
D22*
%TO.P,C4,1*%
%TO.N,VIN*%
X128000000Y-110250000D03*
D23*
%TO.P,C4,2*%
%TO.N,GND*%
X130500000Y-110250000D03*
%TD*%
D24*
%TO.N,/CAN/CAN_TX*%
X149590380Y-102740380D03*
X153750000Y-102750000D03*
%TO.N,GND*%
X94300000Y-89950000D03*
X99250000Y-89000000D03*
X110250000Y-105000000D03*
X133250000Y-111250000D03*
X134750000Y-110000000D03*
X122250000Y-86500000D03*
X112500000Y-115750000D03*
X109500000Y-102250000D03*
X94200000Y-95050000D03*
X146492464Y-107139387D03*
X117062500Y-91500000D03*
X117500000Y-105000000D03*
X182250000Y-94000000D03*
X147750000Y-105250000D03*
X120750000Y-102000000D03*
X180000000Y-70000000D03*
X111250000Y-105000000D03*
X100250000Y-97250000D03*
X145750000Y-98250000D03*
X133750000Y-108000000D03*
X104307500Y-87000000D03*
X134000000Y-112000000D03*
X110500000Y-103500000D03*
X138469760Y-96500000D03*
X114900000Y-135900000D03*
X114000000Y-108750000D03*
X124355100Y-86500000D03*
X130199997Y-105250000D03*
X110500000Y-102250000D03*
X111250000Y-94500000D03*
X146250000Y-109475000D03*
X111000000Y-109500000D03*
X117600000Y-106739264D03*
X147250000Y-96000000D03*
X129500000Y-93000000D03*
X101000000Y-102250000D03*
X124200000Y-90160000D03*
X94000000Y-97750000D03*
X94025000Y-92475000D03*
X124200000Y-91400000D03*
X145750000Y-92250000D03*
X116500000Y-137500000D03*
X143750000Y-90250000D03*
X129500000Y-96750000D03*
X138000000Y-90500000D03*
X138250000Y-108000000D03*
X104250000Y-98250000D03*
X112000000Y-92750000D03*
X137250000Y-105250000D03*
X140750000Y-101750000D03*
X93800000Y-93750000D03*
X115000000Y-109750000D03*
X113000000Y-109750000D03*
X178250000Y-94500000D03*
X115000000Y-108750000D03*
X130500000Y-88500000D03*
X117750000Y-81250000D03*
X126600000Y-91400000D03*
X111500000Y-102250000D03*
X117500000Y-105750000D03*
X98750000Y-98750000D03*
X101750000Y-98250000D03*
X93800000Y-91500000D03*
X116251400Y-99750000D03*
X107000000Y-95250000D03*
X105750000Y-99250000D03*
X112000000Y-109750000D03*
X114000000Y-109750000D03*
X124000000Y-105750000D03*
X117750000Y-138750000D03*
X110250000Y-109000000D03*
X119250000Y-96750000D03*
X125360000Y-90200000D03*
X113278750Y-82971250D03*
X93800000Y-89000000D03*
X125400000Y-91400000D03*
X105750000Y-78500000D03*
X112250000Y-105000000D03*
X123250000Y-86500000D03*
X93800000Y-96500000D03*
X120750000Y-115750000D03*
X121900000Y-108450000D03*
X99750000Y-98750000D03*
X141750000Y-98000000D03*
X126600000Y-90200000D03*
%TO.N,SYS_5V*%
X125700000Y-102000000D03*
X120700000Y-87250000D03*
X113646050Y-82103950D03*
X121150000Y-100650000D03*
X114250000Y-82750000D03*
%TO.N,/CAN/CAN_RX*%
X157750000Y-104750000D03*
X150500000Y-103750000D03*
%TO.N,+3.3V*%
X121500000Y-120250000D03*
X162000000Y-94750000D03*
X139500000Y-92750000D03*
X102750000Y-79862500D03*
X147003835Y-107754613D03*
X145250000Y-120250000D03*
X135000000Y-96250000D03*
X183500000Y-102000000D03*
X129387500Y-89000000D03*
X130125000Y-89875000D03*
X174000000Y-70250000D03*
X174250000Y-94250000D03*
X184000000Y-90000000D03*
X131000000Y-105250000D03*
X111500000Y-97500000D03*
X138250000Y-104000000D03*
X133500000Y-120250000D03*
X129387500Y-88000000D03*
X180750000Y-120250000D03*
X149000000Y-89250000D03*
X168750000Y-120250000D03*
X157000000Y-120250000D03*
X156925000Y-94500000D03*
%TO.N,/MCU/NRST*%
X143500000Y-100000000D03*
X145500000Y-91250000D03*
X176500000Y-91250000D03*
X143500000Y-94500000D03*
%TO.N,/PowerAndUSB/D-*%
X101250000Y-88500000D03*
X101750000Y-94750000D03*
X100500000Y-94500000D03*
X106000000Y-94750000D03*
%TO.N,BOOT0*%
X144500000Y-91000000D03*
X176500000Y-90250000D03*
%TO.N,/MCU/GPIO_2*%
X125500000Y-115750000D03*
X139750000Y-115750000D03*
%TO.N,VIN*%
X108250000Y-110425000D03*
X109500000Y-110425000D03*
%TO.N,/PowerAndUSB/VIN_5V*%
X127502983Y-97508949D03*
X123200000Y-98250000D03*
X115250000Y-98250000D03*
X125500000Y-104000000D03*
X126750000Y-104250000D03*
X117750000Y-104000000D03*
X115250000Y-104000000D03*
%TO.N,Net-(U4-PR1)*%
X124749694Y-97513128D03*
X120833273Y-97285355D03*
%TO.N,/PowerAndUSB/USB_5V*%
X107500000Y-92000000D03*
X117200000Y-97500000D03*
X112750000Y-92000000D03*
X123250000Y-96750000D03*
%TO.N,Net-(U4-ST)*%
X127250000Y-96750000D03*
X118750000Y-94250000D03*
X124768329Y-96713343D03*
%TO.N,Net-(J5-Pin_4)*%
X139750000Y-84750000D03*
X154000000Y-85000000D03*
%TO.N,/MCU/PA13-JTMS-SWDIO*%
X151250000Y-98250000D03*
X148607771Y-98465542D03*
%TO.N,+BATT*%
X171175000Y-132325000D03*
X135925000Y-130575000D03*
X124175000Y-128825000D03*
X124175000Y-130325000D03*
X171175000Y-130575000D03*
X171175000Y-134075000D03*
X188500000Y-98500000D03*
X147675000Y-129075000D03*
X147675000Y-132325000D03*
X105750000Y-135500000D03*
X188250000Y-110750000D03*
X159425000Y-134075000D03*
X124175000Y-132075000D03*
X159425000Y-130575000D03*
X135925000Y-129075000D03*
X171175000Y-129075000D03*
X159425000Y-129075000D03*
X124175000Y-133825000D03*
X181500000Y-130750000D03*
X112250000Y-132250000D03*
X181500000Y-129500000D03*
X188250000Y-109500000D03*
X112250000Y-130500000D03*
X159425000Y-132325000D03*
X188500000Y-100000000D03*
X112250000Y-129000000D03*
X112250000Y-134000000D03*
X135925000Y-132325000D03*
X147675000Y-130575000D03*
X135925000Y-134075000D03*
X147675000Y-134075000D03*
%TO.N,/MCU/GPIO_LM_4*%
X135000000Y-77000000D03*
X148500000Y-100750000D03*
%TO.N,/MCU/GPIO_LM_2*%
X130750000Y-77750000D03*
X148500000Y-101750000D03*
%TO.N,/MCU/GPIO_6*%
X170750000Y-116250000D03*
X144000000Y-116250000D03*
%TO.N,/PowerAndUSB/D+*%
X100500000Y-95500000D03*
X106750000Y-96500000D03*
X103250000Y-95500000D03*
%TO.N,/MCU/GPIO_4*%
X147500000Y-117750000D03*
X141662500Y-116750000D03*
%TO.N,/MCU/GPIO_LM_5*%
X144500000Y-100000000D03*
X140000000Y-77750000D03*
%TO.N,Net-(F2-Pad1)*%
X97500000Y-93750000D03*
X97500000Y-101000000D03*
%TO.N,/PowerAndUSB/VOTGID*%
X98250000Y-99500000D03*
X100500000Y-99500000D03*
%TO.N,/MCU/PA14-JTCK-SWCLK*%
X146000000Y-94500000D03*
X151250000Y-94000000D03*
%TO.N,Net-(J5-Pin_2)*%
X152000000Y-86000000D03*
%TO.N,/MCU/GPIO_1*%
X124500000Y-115000000D03*
X139250000Y-115000000D03*
%TO.N,Net-(U1-EN)*%
X118800000Y-110600000D03*
X121200000Y-110600000D03*
%TO.N,/MCU/GPIO_7*%
X144750000Y-115500000D03*
X183250000Y-115750000D03*
%TO.N,/MCU/GPIO_LM_7*%
X154250000Y-99250000D03*
X145750000Y-99250000D03*
%TO.N,/MCU/GPIO_LM_6*%
X152250000Y-99750000D03*
X149100000Y-100220851D03*
%TO.N,Net-(U7-PA15(JTDI))*%
X145750000Y-93250000D03*
X168250000Y-93250000D03*
%TO.N,/MCU/USART1_RX*%
X136927300Y-102500000D03*
X114500000Y-102500000D03*
%TO.N,/MCU/USART1_TX*%
X113750000Y-102000000D03*
X136927300Y-103500000D03*
%TO.N,/MCU/GPIO_3*%
X137250000Y-116350000D03*
X140400000Y-116350000D03*
%TO.N,/MCU/GPIO_5*%
X160000000Y-117750000D03*
X142750000Y-116750000D03*
%TO.N,/MCU/GPIO_8*%
X179500000Y-114500000D03*
X145750000Y-114900000D03*
%TO.N,/MCU/GPIO_9*%
X146500000Y-114250000D03*
X178750000Y-114000000D03*
%TO.N,/MCU/GPIO_LM_1*%
X130250000Y-101500000D03*
X127250000Y-78500000D03*
X128750000Y-91250000D03*
X145500000Y-102250000D03*
%TO.N,/MCU/GPIO_LM_3*%
X131500000Y-77000000D03*
X145250000Y-101000000D03*
%TO.N,/PowerAndUSB/VIN+*%
X99750000Y-104000000D03*
X101250000Y-104000000D03*
X99750000Y-106750000D03*
%TD*%
%TO.N,/CAN/CAN_TX*%
D25*
X149600000Y-102750000D02*
X149590380Y-102740380D01*
X153750000Y-102750000D02*
X149600000Y-102750000D01*
X156210000Y-100250000D02*
X156210000Y-100790000D01*
%TO.N,GND*%
D26*
X133250000Y-111250000D02*
X134000000Y-112000000D01*
X132250000Y-110250000D02*
X133250000Y-111250000D01*
X130500000Y-110250000D02*
X132250000Y-110250000D01*
%TO.N,SYS_5V*%
D27*
X125700000Y-102000000D02*
X122500000Y-102000000D01*
D28*
X120000000Y-86550000D02*
X114800000Y-86550000D01*
D27*
X122500000Y-102000000D02*
X121150000Y-100650000D01*
D28*
X114800000Y-86550000D02*
X114250000Y-86000000D01*
X114250000Y-82707900D02*
X114250000Y-86000000D01*
X113646050Y-82103950D02*
X114250000Y-82707900D01*
X120700000Y-87250000D02*
X120000000Y-86550000D01*
%TO.N,/CAN/CAN_RX*%
D25*
X150500000Y-103750000D02*
X156750000Y-103750000D01*
X156750000Y-103750000D02*
X157750000Y-104750000D01*
%TO.N,/MCU/NRST*%
X176500000Y-91250000D02*
X145500000Y-91250000D01*
X143500000Y-100000000D02*
X143500000Y-94500000D01*
%TO.N,/PowerAndUSB/D-*%
X100750000Y-94750000D02*
X101750000Y-94750000D01*
X100500000Y-89250000D02*
X101250000Y-88500000D01*
X101750000Y-94750000D02*
X106000000Y-94750000D01*
X100500000Y-94500000D02*
X100500000Y-89250000D01*
X100500000Y-94500000D02*
X100750000Y-94750000D01*
%TO.N,BOOT0*%
X145250000Y-90250000D02*
X144500000Y-91000000D01*
X176500000Y-90250000D02*
X145250000Y-90250000D01*
%TO.N,/MCU/GPIO_2*%
D29*
X125500000Y-115750000D02*
X139750000Y-115750000D01*
%TO.N,VIN*%
D30*
X128000000Y-110250000D02*
X125350000Y-112900000D01*
X111150000Y-112900000D02*
X108750000Y-110500000D01*
X125350000Y-112900000D02*
X111150000Y-112900000D01*
%TO.N,/PowerAndUSB/VIN_5V*%
D31*
X126250000Y-104750000D02*
X124750000Y-104750000D01*
X124750000Y-104750000D02*
X124000000Y-104000000D01*
D27*
X124000000Y-104000000D02*
X125500000Y-104000000D01*
D32*
X127494034Y-97500000D02*
X127502983Y-97508949D01*
D27*
X117750000Y-104000000D02*
X124000000Y-104000000D01*
D31*
X126750000Y-104250000D02*
X126250000Y-104750000D01*
D32*
X123200000Y-98250000D02*
X115250000Y-98250000D01*
X125500000Y-98250000D02*
X126250000Y-97500000D01*
X126250000Y-97500000D02*
X127494034Y-97500000D01*
D27*
X115250000Y-104000000D02*
X117750000Y-104000000D01*
D32*
X123200000Y-98250000D02*
X125500000Y-98250000D01*
%TO.N,Net-(U4-PR1)*%
D29*
X120833273Y-97285355D02*
X120833273Y-97166727D01*
X124750000Y-97512822D02*
X124749694Y-97513128D01*
X121166546Y-97500000D02*
X124750000Y-97500000D01*
X124750000Y-97500000D02*
X124750000Y-97512822D01*
X120833273Y-97166727D02*
X121166546Y-97500000D01*
%TO.N,/PowerAndUSB/USB_5V*%
D32*
X107500000Y-92000000D02*
X112750000Y-92000000D01*
X117200000Y-97500000D02*
X119628678Y-97500000D01*
X120628678Y-96500000D02*
X123000000Y-96500000D01*
X123000000Y-96500000D02*
X123250000Y-96750000D01*
X119628678Y-97500000D02*
X120628678Y-96500000D01*
%TO.N,Net-(U4-ST)*%
D29*
X124768329Y-96268329D02*
X124768329Y-96713343D01*
X122750000Y-94250000D02*
X124768329Y-96268329D01*
X127250000Y-96750000D02*
X124804986Y-96750000D01*
X124804986Y-96750000D02*
X124768329Y-96713343D01*
X118750000Y-94250000D02*
X122750000Y-94250000D01*
%TO.N,Net-(J5-Pin_4)*%
X153750000Y-84750000D02*
X154000000Y-85000000D01*
X139750000Y-84750000D02*
X153750000Y-84750000D01*
%TO.N,/MCU/PA13-JTMS-SWDIO*%
X148892229Y-98750000D02*
X150750000Y-98750000D01*
X150750000Y-98750000D02*
X151250000Y-98250000D01*
X148607771Y-98465542D02*
X148892229Y-98750000D01*
%TO.N,/MCU/GPIO_LM_4*%
X132900000Y-92584314D02*
X137650000Y-92584314D01*
X145848529Y-100750000D02*
X148500000Y-100750000D01*
X145001471Y-100400000D02*
X145498529Y-100400000D01*
X145498529Y-100400000D02*
X145848529Y-100750000D01*
X140315686Y-99184314D02*
X141981372Y-100850000D01*
X137650000Y-92584314D02*
X140315686Y-95250000D01*
X141981372Y-100850000D02*
X144551471Y-100850000D01*
X140315686Y-95250000D02*
X140315686Y-99184314D01*
X135000000Y-77000000D02*
X132900000Y-79100000D01*
X144551471Y-100850000D02*
X145001471Y-100400000D01*
X132900000Y-79100000D02*
X132900000Y-92584314D01*
%TO.N,/MCU/GPIO_LM_2*%
X139500000Y-95750000D02*
X137750000Y-94000000D01*
X141650000Y-101650000D02*
X139500000Y-99500000D01*
X131500000Y-92750000D02*
X131500000Y-78500000D01*
X131500000Y-78500000D02*
X130750000Y-77750000D01*
X132750000Y-94000000D02*
X131500000Y-92750000D01*
X139500000Y-99500000D02*
X139500000Y-95750000D01*
X148500000Y-101750000D02*
X148400000Y-101650000D01*
X148400000Y-101650000D02*
X141650000Y-101650000D01*
X137750000Y-94000000D02*
X132750000Y-94000000D01*
%TO.N,/MCU/GPIO_6*%
X144000000Y-116250000D02*
X170750000Y-116250000D01*
%TO.N,/PowerAndUSB/D+*%
X103250000Y-95750000D02*
X103250000Y-95500000D01*
X106750000Y-96500000D02*
X104000000Y-96500000D01*
D31*
X100500000Y-95500000D02*
X103250000Y-95500000D01*
D29*
X104000000Y-96500000D02*
X103250000Y-95750000D01*
%TO.N,/MCU/GPIO_4*%
X141662500Y-116750000D02*
X142662500Y-117750000D01*
X142662500Y-117750000D02*
X147500000Y-117750000D01*
%TO.N,/MCU/GPIO_LM_5*%
X144500000Y-100000000D02*
X144500000Y-94500000D01*
X138000000Y-79750000D02*
X140000000Y-77750000D01*
X139381372Y-93750000D02*
X138750000Y-93118628D01*
X138000000Y-87916346D02*
X138000000Y-79750000D01*
X138750000Y-93118628D02*
X138750000Y-88666346D01*
X144500000Y-94500000D02*
X143750000Y-93750000D01*
X143750000Y-93750000D02*
X139381372Y-93750000D01*
X138750000Y-88666346D02*
X138000000Y-87916346D01*
%TO.N,Net-(F2-Pad1)*%
D32*
X97500000Y-93750000D02*
X97500000Y-101000000D01*
%TO.N,/PowerAndUSB/VOTGID*%
D29*
X98250000Y-99500000D02*
X100500000Y-99500000D01*
%TO.N,/MCU/PA14-JTCK-SWCLK*%
X146800000Y-93700000D02*
X146000000Y-94500000D01*
X151250000Y-94000000D02*
X150950000Y-93700000D01*
X150950000Y-93700000D02*
X146800000Y-93700000D01*
%TO.N,Net-(J5-Pin_2)*%
X151250000Y-85250000D02*
X146540000Y-85250000D01*
X152000000Y-86000000D02*
X151250000Y-85250000D01*
X146540000Y-85250000D02*
X144290000Y-87500000D01*
%TO.N,/MCU/GPIO_1*%
X124500000Y-115000000D02*
X139250000Y-115000000D01*
%TO.N,Net-(U1-EN)*%
D32*
X121200000Y-110600000D02*
X118800000Y-110600000D01*
%TO.N,/MCU/GPIO_7*%
D29*
X144750000Y-115500000D02*
X183000000Y-115500000D01*
X183000000Y-115500000D02*
X183250000Y-115750000D01*
%TO.N,/MCU/GPIO_LM_7*%
X154250000Y-99250000D02*
X154150000Y-99150000D01*
X154150000Y-99150000D02*
X145850000Y-99150000D01*
X145850000Y-99150000D02*
X145750000Y-99250000D01*
%TO.N,/MCU/GPIO_LM_6*%
X149570851Y-99750000D02*
X149100000Y-100220851D01*
X152250000Y-99750000D02*
X149570851Y-99750000D01*
%TO.N,Net-(U7-PA15(JTDI))*%
D25*
X145750000Y-93250000D02*
X168250000Y-93250000D01*
%TO.N,/MCU/USART1_RX*%
X136677300Y-102750000D02*
X126700000Y-102750000D01*
X126600000Y-102650000D02*
X114650000Y-102650000D01*
X136927300Y-102500000D02*
X136677300Y-102750000D01*
X126700000Y-102750000D02*
X126600000Y-102650000D01*
X114650000Y-102650000D02*
X114500000Y-102500000D01*
%TO.N,/MCU/USART1_TX*%
X136927300Y-103500000D02*
X136677300Y-103250000D01*
X136677300Y-103250000D02*
X114330761Y-103250000D01*
X114330761Y-103250000D02*
X113750000Y-102669239D01*
X113750000Y-102669239D02*
X113750000Y-102000000D01*
%TO.N,/MCU/GPIO_3*%
D29*
X137250000Y-116350000D02*
X140400000Y-116350000D01*
%TO.N,/MCU/GPIO_5*%
X143000000Y-117000000D02*
X159250000Y-117000000D01*
X159250000Y-117000000D02*
X160000000Y-117750000D01*
X142750000Y-116750000D02*
X143000000Y-117000000D01*
%TO.N,/MCU/GPIO_8*%
X179500000Y-114500000D02*
X179100000Y-114900000D01*
X179100000Y-114900000D02*
X145750000Y-114900000D01*
X145750000Y-114900000D02*
X145850000Y-115000000D01*
%TO.N,/MCU/GPIO_9*%
X146500000Y-114250000D02*
X178500000Y-114250000D01*
X178500000Y-114250000D02*
X178750000Y-114000000D01*
%TO.N,/MCU/GPIO_LM_1*%
X140501471Y-102350000D02*
X145400000Y-102350000D01*
X145400000Y-102350000D02*
X145500000Y-102250000D01*
X139651471Y-101500000D02*
X140501471Y-102350000D01*
X130250000Y-101500000D02*
X139651471Y-101500000D01*
X128000000Y-78500000D02*
X128750000Y-79250000D01*
X128750000Y-79250000D02*
X128750000Y-91250000D01*
X127250000Y-78500000D02*
X128000000Y-78500000D01*
%TO.N,/MCU/GPIO_LM_3*%
X139750000Y-95434314D02*
X139900000Y-95584315D01*
X141815686Y-101250000D02*
X145000000Y-101250000D01*
X132500000Y-78000000D02*
X132500000Y-92750000D01*
X132500000Y-92750000D02*
X133250000Y-93500000D01*
X139750000Y-95250000D02*
X139750000Y-95434314D01*
X139900000Y-95584315D02*
X139900000Y-99334314D01*
X131500000Y-77000000D02*
X132500000Y-78000000D01*
X138000000Y-93500000D02*
X139750000Y-95250000D01*
X139900000Y-99334314D02*
X141815686Y-101250000D01*
X145000000Y-101250000D02*
X145250000Y-101000000D01*
X133250000Y-93500000D02*
X138000000Y-93500000D01*
%TD*%
M02*
